{
.appVersion = "1363";
DisplayStrings = (
"/letterA/letterAA/letterI/letterII/letterU/letterUU/letterVocR/letterVocRR/letterVocL/letterVocLL/letterE/letterAI/letterO/letterAU/Ka/Kha/Ga/Gha/Nga/Ca/Cha/Ja/Jha/Nya/Tta/Ttha/Dda/Ddha/Nna/Ta/Tha/Da/Dha/Na/Pa/Pha/Ba/Bha/Ma/Ya/Ra/La/Lla/Va/Sha/Ssa/Sa/Ha",
"/Sa/Ekam/SiddhamSign",
"/Visarga/U/U/letterA/letterAA/letterI/letterII/letterU/letterUU/letterVocR/letterVocRR/letterVocL/letterVocLL/letterE/letterAI/letterO/letterAU/Ka/Kha/Ga/Gha/Nga/Ca/Cha/Ja/Jha/Nya/Tta/Ttha/Dda/Ddha/Nna/Ta/Tha/Da/Dha/Na/Pa/Pha/Ba/Bha/Ma/Ya/Ra/La/Lla/Va/Sha/Ssa/Sa/Ha",
"/Danda/DoubleDanda/SutraMark/Sh_Zero/Pha/Nya/Sh_One/Sh_Two/Nya/space/Sh_Three/Sh_Four/Sh_Five/space/Nya/Sh_Six/Sh_Seven/Sh_Eight/Sh_Nine/Nya/Ekam/SiddhamSign"
);
classes = (
{
code = "Ba BhRa Bha Ca Cha DDha DYa Da Dda Ddha Dha GRa Ga Gha HYa Ha JJVa JJa JNna JNya JYa Ja Jha KKa KPRa KSsa KTVa KTa Ka Kha La Lla Ma NDha NTa NTha Na NgKa NgNga Nga NnDda NnSha Nna Nya Pa Pha RGa RHa RJa RKSsa RKa RNna RSsa RTRa RTa RTha RTr RVYa RVa RYa Ra SMa SMr STa STha Sa Sha SsNna SsTta SsTtha Ssa TRa TSa TTha TYa Ta Tha TtKa Tta Ttha Va Ya";
name = class1;
},
{
code = "Ba Bha Cha DDha DYa Da Dda Ddha Dha Ga Gha Ha JJVa JJa JNna JNya JYa Ja Jha Ka Kha La Lla Ma NDha NTa NTha Na NgKa NgNga Nga NnDda NnSha Nna Nya Pa Pha RGa RHa RJa RKSsa RKa RNna RSsa RTRa RTa RTha RTr RVYa RVa RYa Ra SMa SMr STa STha Sa Sha SsNna SsTta SsTtha Ssa TRa TSa TTha TYa Ta Tha TtKa Tta Ttha Va Ya";
name = class3;
},
{
code = "JNya KKa NgKa NnSha RGa RKa TtKa";
name = class10;
},
{
code = "Bha Da Ga Gha Jha Kha La Ma Nna Nya Pa Ra Sa Sha Ssa Tha Ya";
name = class12;
},
{
code = "BhRu BhRuu Jaa KKa Ngaa RNna RYa ShRu ShRuu Shu";
name = class14;
},
{
code = "Kl Kll Kr Krr Ra letterII";
name = class16;
},
{
code = "BhRa GRa KPRa KSsa RGa RHa RVa TRa";
name = class18;
},
{
code = "Bhu DRu DRuu Gu HYa JNna JNnaa Jhu KTa Nyu RSsa STha";
name = class20;
},
{
code = "DDha NDha NTha RTRa RTa SsTtha TTha";
name = class42;
},
{

glyphs = (
{
glyphname = .notdef;
lastChange = "2023-01-14 00:48:13 +0000";
layers = (
{
layerId = UUID0;
paths = (
{
closed = 1;
nodes = (
"506 0 LINE",
"506 714 LINE",
"95 714 LINE",
"95 0 LINE"
);
},
{
closed = 1;
nodes = (
"146 663 LINE",
"455 663 LINE",
"455 51 LINE",
"146 51 LINE"
);
}
);
width = 600;
},
{
layerId = "FA3D6E7D-1564-4EF0-9765-0D5E9243D6E7";
paths = (
{
closed = 1;
nodes = (
"506 0 LINE",
"506 714 LINE",
"95 714 LINE",
"95 0 LINE"
);
},
{
closed = 1;
nodes = (
"146 663 LINE",
"455 663 LINE",
"455 51 LINE",
"146 51 LINE"
);
}
);
width = 600;
}
);
},
{
color = 3;
glyphname = Candrabindu;
lastChange = "2023-01-15 19:21:55 +0000";
layers = (
{
anchors = (
{
name = Anchor25;
position = "{-187, 965}";
},
{
name = _Anchor15;
position = "{-185, 710}";
},
{
name = _Anchor18;
position = "{-180, 710}";
},
{
name = _Anchor25;
position = "{-185, 710}";
}
);
background = {
paths = (
{
closed = 1;
nodes = (
"-362 755 LINE",
"-323 866 OFFCURVE",
"-262 905 OFFCURVE",
"-187 905 CURVE SMOOTH",
"-108 905 OFFCURVE",
"-50 865 OFFCURVE",
"0 764 CURVE",
"64 794 LINE",
"11 907 OFFCURVE",
"-66 975 OFFCURVE",
"-187 975 CURVE SMOOTH",
"-307 975 OFFCURVE",
"-388 898 OFFCURVE",
"-429 782 CURVE"
);
},
{
closed = 1;
nodes = (
"-149 706 OFFCURVE",
"-120 735 OFFCURVE",
"-120 771 CURVE SMOOTH",
"-120 806 OFFCURVE",
"-149 835 OFFCURVE",
"-184 835 CURVE SMOOTH",
"-220 835 OFFCURVE",
"-249 806 OFFCURVE",
"-249 771 CURVE SMOOTH",
"-249 735 OFFCURVE",
"-220 706 OFFCURVE",
"-184 706 CURVE SMOOTH"
);
}
);
};
layerId = UUID0;
paths = (
{
closed = 1;
nodes = (
"-340 737 LINE",
"-293 848 OFFCURVE",
"-234 913 OFFCURVE",
"-155 913 CURVE SMOOTH",
"-97 913 OFFCURVE",
"-39 864 OFFCURVE",
"23 762 CURVE",
"51 780 LINE",
"-13 897 OFFCURVE",
"-106 977 OFFCURVE",
"-210 977 CURVE SMOOTH",
"-296 977 OFFCURVE",
"-371 918 OFFCURVE",
"-426 792 CURVE"
);
},
{
closed = 1;
nodes = (
"-83 782 LINE",
"-172 848 LINE",
"-241 762 LINE",
"-152 696 LINE"
);
}
);
width = 0;
},
{
anchors = (
{
name = Anchor25;
position = "{-187, 965}";
},
{
name = _Anchor15;
position = "{-185, 710}";
},
{
name = _Anchor18;
position = "{-180, 710}";
},
{
name = _Anchor25;
position = "{-185, 710}";
}
);
background = {
paths = (
{
closed = 1;
nodes = (
"-291 694 LINE",
"-294 704 OFFCURVE",
"-295 715 OFFCURVE",
"-295 725 CURVE SMOOTH",
"-295 779 OFFCURVE",
"-254 824 OFFCURVE",
"-185 824 CURVE SMOOTH",
"-120 824 OFFCURVE",
"-79 779 OFFCURVE",
"-79 725 CURVE SMOOTH",
"-79 715 OFFCURVE",
"-80 705 OFFCURVE",
"-83 694 CURVE",
"-3 694 LINE",
"-1 704 OFFCURVE",
"0 714 OFFCURVE",
"0 724 CURVE SMOOTH",
"0 810 OFFCURVE",
"-81 890 OFFCURVE",
"-187 890 CURVE SMOOTH",
"-293 890 OFFCURVE",
"-374 810 OFFCURVE",
"-374 724 CURVE SMOOTH",
"-374 714 OFFCURVE",
"-373 704 OFFCURVE",
"-371 694 CURVE"
);
},
{
closed = 1;
nodes = (
"-156 679 OFFCURVE",
"-133 701 OFFCURVE",
"-133 730 CURVE SMOOTH",
"-133 759 OFFCURVE",
"-156 782 OFFCURVE",
"-184 782 CURVE SMOOTH",
"-212 782 OFFCURVE",
"-236 759 OFFCURVE",
"-236 730 CURVE SMOOTH",
"-236 701 OFFCURVE",
"-212 679 OFFCURVE",
"-184 679 CURVE SMOOTH"
);
}
);
};
layerId = "FA3D6E7D-1564-4EF0-9765-0D5E9243D6E7";
paths = (
{
closed = 1;
nodes = (
"-359 724 LINE",
"-299 846 OFFCURVE",
"-244 901 OFFCURVE",
"-162 901 CURVE SMOOTH",
"-103 901 OFFCURVE",
"-42 852 OFFCURVE",
"28 747 CURVE",
"83 779 LINE",
"6 907 OFFCURVE",
"-106 982 OFFCURVE",
"-223 982 CURVE SMOOTH",
"-328 982 OFFCURVE",
"-416 921 OFFCURVE",
"-477 789 CURVE"
);
},
{
closed = 1;
nodes = (
"-63 785 LINE",
"-184 864 LINE",
"-276 763 LINE",
"-155 684 LINE"
);
}
);
width = 0;
}
);
unicode = 11180;
category = Mark;
subCategory = Nonspacing;
},
{
color = 3;
glyphname = Anusvara;
lastChange = "2023-01-15 19:22:30 +0000";
layers = (
{
anchors = (
{
name = Anchor25;
position = "{-67, 897}";
},
{
name = _Anchor15;
position = "{-70, 710}";
},
{
name = _Anchor18;
position = "{-70, 710}";
},
{
name = _Anchor25;
position = "{-70, 710}";
}
);
layerId = UUID0;
paths = (
{
closed = 1;
nodes = (
"10 782 LINE",
"-79 848 LINE",
"-148 762 LINE",
"-59 696 LINE"
);
}
);
width = 0;
},
{
anchors = (
{
name = Anchor25;
position = "{-67, 897}";
},
{
name = _Anchor15;
position = "{-70, 710}";
},
{
name = _Anchor18;
position = "{-70, 710}";
},
{
name = _Anchor25;
position = "{-70, 710}";
}
);
background = {
paths = (
{
closed = 1;
nodes = (
"-30 684 OFFCURVE",
"0 714 OFFCURVE",
"0 753 CURVE SMOOTH",
"0 791 OFFCURVE",
"-30 822 OFFCURVE",
"-66 822 CURVE SMOOTH",
"-102 822 OFFCURVE",
"-133 791 OFFCURVE",
"-133 753 CURVE SMOOTH",
"-133 714 OFFCURVE",
"-102 684 OFFCURVE",
"-66 684 CURVE SMOOTH"
);
}
);
};
layerId = "FA3D6E7D-1564-4EF0-9765-0D5E9243D6E7";
paths = (
{
closed = 1;
nodes = (
"39 783 LINE",
"-82 862 LINE",
"-175 761 LINE",
"-54 682 LINE"
);
}
);
width = 0;
}
);
unicode = 11181;
category = Mark;
subCategory = Nonspacing;
},
{
color = 3;
glyphname = Visarga;
lastChange = "2023-01-15 19:23:09 +0000";
layers = (
{
background = {
paths = (
{
closed = 1;
nodes = (
"182 359 OFFCURVE",
"211 388 OFFCURVE",
"211 424 CURVE SMOOTH",
"211 459 OFFCURVE",
"182 488 OFFCURVE",
"147 488 CURVE SMOOTH",
"111 488 OFFCURVE",
"82 459 OFFCURVE",
"82 424 CURVE SMOOTH",
"82 388 OFFCURVE",
"111 359 OFFCURVE",
"147 359 CURVE SMOOTH"
);
},
{
closed = 1;
nodes = (
"182 96 OFFCURVE",
"211 125 OFFCURVE",
"211 161 CURVE SMOOTH",
"211 196 OFFCURVE",
"182 225 OFFCURVE",
"147 225 CURVE SMOOTH",
"111 225 OFFCURVE",
"82 196 OFFCURVE",
"82 161 CURVE SMOOTH",
"82 125 OFFCURVE",
"111 96 OFFCURVE",
"147 96 CURVE SMOOTH"
);
}
);
};
layerId = UUID0;
paths = (
{
closed = 1;
nodes = (
"227 432 LINE",
"138 498 LINE",
"69 412 LINE",
"158 346 LINE"
);
},
{
closed = 1;
nodes = (
"227 172 LINE",
"138 238 LINE",
"69 152 LINE",
"158 86 LINE"
);
}
);
width = 293;
},
{
background = {
paths = (
{
closed = 1;
nodes = (
"245 331 OFFCURVE",
"288 369 OFFCURVE",
"288 416 CURVE SMOOTH",
"288 463 OFFCURVE",
"244 500 OFFCURVE",
"191 500 CURVE SMOOTH",
"137 500 OFFCURVE",
"93 463 OFFCURVE",
"93 416 CURVE SMOOTH",
"93 368 OFFCURVE",
"137 331 OFFCURVE",
"191 331 CURVE SMOOTH"
);
},
{
closed = 1;
nodes = (
"245 84 OFFCURVE",
"288 122 OFFCURVE",
"288 169 CURVE SMOOTH",
"288 216 OFFCURVE",
"244 253 OFFCURVE",
"191 253 CURVE SMOOTH",
"137 253 OFFCURVE",
"93 216 OFFCURVE",
"93 169 CURVE SMOOTH",
"93 121 OFFCURVE",
"137 84 OFFCURVE",
"191 84 CURVE SMOOTH"
);
}
);
};
layerId = "FA3D6E7D-1564-4EF0-9765-0D5E9243D6E7";
paths = (
{
closed = 1;
nodes = (
"295 429 LINE",
"174 508 LINE",
"81 407 LINE",
"202 328 LINE"
);
},
{
closed = 1;
nodes = (
"295 177 LINE",
"174 256 LINE",
"81 155 LINE",
"202 76 LINE"
);
}
);
width = 381;
}
);
unicode = 11182;
category = Letter;
},
{
color = 3;
glyphname = letterA;
lastChange = "2023-01-15 20:22:05 +0000";
layers = (
{
anchors = (
{
name = Anchor14;
position = "{350, 0}";
},
{
name = Anchor15;
position = "{360, 710}";
},
{
name = Anchor17;
position = "{640, 710}";
},
{
name = Anchor18;
position = "{360, 710}";
},
{
name = Anchor20;
position = "{640, 710}";
},
{
name = Anchor21;
position = "{350, 0}";
}
);
background = {
paths = (
{
closed = 1;
nodes = (
"585 590 LINE",
"500 590 LINE",
"501 0 LINE",
"586 0 LINE"
);
},
{
closed = 1;
nodes = (
"298 210 OFFCURVE",
"334 249 OFFCURVE",
"334 306 CURVE SMOOTH",
"334 442 LINE",
"249 442 LINE",
"249 381 LINE",
"188 378 OFFCURVE",
"152 341 OFFCURVE",
"152 295 CURVE SMOOTH",
"152 248 OFFCURVE",
"188 210 OFFCURVE",
"244 210 CURVE SMOOTH"
);
},
{
closed = 1;
nodes = (
"247 550 LINE",
"209 625 LINE",
"42 511 LINE",
"91 443 LINE"
);
},
{
closed = 1;
nodes = (
"572 307 LINE",
"562 382 LINE",
"313 382 LINE",
"313 307 LINE"
);
},
{
closed = 1;
nodes = (
"334 584 LINE",
"249 576 LINE",
"249 402 LINE",
"334 399 LINE"
);
},
{
closed = 1;
nodes = (
"672 550 LINE",
"672 625 LINE",
"209 625 LINE",
"228 550 LINE"
);
}
);
};
components = (
{
name = U;
transform = "{1, 0, 0, 1, 586, 83}";
}
);
layerId = UUID0;
paths = (
{
closed = 1;
nodes = (
"586 590 LINE",
"501 590 LINE",
"501 30 LINE",
"586 -20 LINE"
);
},
{
closed = 1;
nodes = (
"301 190 OFFCURVE",
"335 232 OFFCURVE",
"335 286 CURVE",
"335 411 LINE",
"250 442 LINE",
"250 381 LINE",
"179 378 OFFCURVE",
"143 336 OFFCURVE",
"143 291 CURVE",
"155 241 OFFCURVE",
"206 201 OFFCURVE",
"249 190 CURVE"
);
},
{
closed = 1;
nodes = (
"155 474 OFFCURVE",
"200 513 OFFCURVE",
"238 550 CURVE",
"200 625 LINE",
"146 571 OFFCURVE",
"91 539 OFFCURVE",
"24 515 CURVE",
"23 511 LINE",
"85 446 LINE"
);
},
{
closed = 1;
nodes = (
"573 307 LINE",
"533 382 LINE",
"284 382 LINE",
"324 307 LINE"
);
},
{
closed = 1;
nodes = (
"337 479 OFFCURVE",
"321 530 OFFCURVE",
"285 584 CURVE",
"233 574 LINE",
"245 544 OFFCURVE",
"250 519 OFFCURVE",
"250 402 CURVE",
"335 399 LINE"
);
},
{
closed = 1;
nodes = (
"691 550 LINE",
"651 625 LINE",
"200 625 LINE",
"219 550 LINE"
);
}
);
width = 667;
},
{
anchors = (
{
name = Anchor14;
position = "{330, 0}";
},
{
name = Anchor15;
position = "{340, 710}";
},
{
name = Anchor17;
position = "{620, 710}";
},
{
name = Anchor18;
position = "{340, 710}";
},
{
name = Anchor20;
position = "{620, 710}";
},
{
name = Anchor21;
position = "{330, 0}";
}
);
associatedMasterId = UUID0;
layerId = "514F5EC6-2EB1-4922-B325-2C044351955C";
name = "Jan 13 23, 18:46";
paths = (
{
closed = 1;
nodes = (
"566 0 LINE",
"566 550 LINE",
"618 550 LINE",
"618 625 LINE",
"44 625 LINE",
"44 550 LINE",
"117 550 LINE",
"105 513 OFFCURVE",
"98 477 OFFCURVE",
"98 437 CURVE SMOOTH",
"98 390 OFFCURVE",
"110 344 OFFCURVE",
"134 310 CURVE",
"3 219 LINE",
"47 156 LINE",
"182 253 LINE",
"219 226 OFFCURVE",
"263 210 OFFCURVE",
"318 210 CURVE SMOOTH",
"329 210 OFFCURVE",
"339 210 OFFCURVE",
"349 211 CURVE",
"161 81 LINE",
"205 18 LINE",
"481 217 LINE",
"481 0 LINE"
);
},
{
closed = 1;
nodes = (
"261 283 OFFCURVE",
"183 316 OFFCURVE",
"183 442 CURVE SMOOTH",
"183 478 OFFCURVE",
"190 515 OFFCURVE",
"201 550 CURVE",
"481 550 LINE",
"481 307 LINE",
"438 293 OFFCURVE",
"398 283 OFFCURVE",
"344 283 CURVE SMOOTH"
);
}
);
width = 642;
},
{
anchors = (
{
name = Anchor14;
position = "{470, 0}";
},
{
name = Anchor15;
position = "{480, 710}";
},
{
name = Anchor17;
position = "{760, 710}";
},
{
name = Anchor18;
position = "{480, 710}";
},
{
name = Anchor20;
position = "{760, 710}";
},
{
name = Anchor21;
position = "{470, 0}";
}
);
background = {
paths = (
{
closed = 1;
nodes = (
"712 597 LINE",
"567 597 LINE",
"567 0 LINE",
"712 0 LINE"
);
},
{
closed = 1;
nodes = (
"374 191 OFFCURVE",
"421 238 OFFCURVE",
"421 306 CURVE SMOOTH",
"421 467 LINE",
"284 467 LINE",
"284 398 LINE",
"217 388 OFFCURVE",
"170 349 OFFCURVE",
"170 295 CURVE SMOOTH",
"170 235 OFFCURVE",
"225 191 OFFCURVE",
"299 191 CURVE SMOOTH"
);
},
{
closed = 1;
nodes = (
"327 536 LINE",
"226 630 LINE",
"31 519 LINE",
"110 405 LINE"
);
},
{
closed = 1;
nodes = (
"701 283 LINE",
"683 401 LINE",
"354 401 LINE",
"354 283 LINE"
);
},
{
closed = 1;
nodes = (
"421 593 LINE",
"284 582 LINE",
"284 373 LINE",
"421 368 LINE"
);
},
{
closed = 1;
nodes = (
"811 511 LINE",
"811 630 LINE",
"226 630 LINE",
"243 511 LINE"
);
}
);
};
components = (
{
name = U;
transform = "{1, 0, 0, 1, 692, 30}";
}
);
layerId = "FA3D6E7D-1564-4EF0-9765-0D5E9243D6E7";
paths = (
{
closed = 1;
nodes = (
"693 591 LINE",
"567 591 LINE",
"567 34 LINE",
"693 -32 LINE"
);
},
{
closed = 1;
nodes = (
"306 183 CURVE",
"367 183 OFFCURVE",
"417 232 OFFCURVE",
"417 288 CURVE SMOOTH",
"417 393 LINE",
"294 454 LINE",
"294 387 LINE",
"223 380 OFFCURVE",
"173 342 OFFCURVE",
"173 291 CURVE",
"187 240 OFFCURVE",
"242 197 OFFCURVE"
);
},
{
closed = 1;
nodes = (
"213 459 OFFCURVE",
"269 514 OFFCURVE",
"312 551 CURVE",
"233 625 LINE",
"182 577 OFFCURVE",
"137 544 OFFCURVE",
"53 518 CURVE",
"40 515 LINE",
"40 503 LINE",
"120 429 LINE"
);
},
{
closed = 1;
nodes = (
"686 297 LINE",
"630 389 LINE",
"321 389 LINE",
"377 297 LINE"
);
},
{
closed = 1;
nodes = (
"421 470 OFFCURVE",
"404 524 OFFCURVE",
"355 587 CURVE",
"271 572 LINE",
"289 537 OFFCURVE",
"294 509 OFFCURVE",
"294 390 CURVE",
"417 386 LINE"
);
},
{
closed = 1;
nodes = (
"815 533 LINE",
"760 625 LINE",
"233 625 LINE",
"259 533 LINE"
);
}
);
width = 751;
},
{
anchors = (
{
name = Anchor14;
position = "{330, 0}";
},
{
name = Anchor15;
position = "{340, 710}";
},
{
name = Anchor17;
position = "{620, 710}";
},
{
name = Anchor18;
position = "{340, 710}";
},
{
name = Anchor20;
position = "{620, 710}";
},
{
name = Anchor21;
position = "{330, 0}";
}
);
associatedMasterId = "FA3D6E7D-1564-4EF0-9765-0D5E9243D6E7";
layerId = "65021932-B67B-4F95-9B73-766D02FCD39D";
name = "Jan 13 23, 18:46";
paths = (
{
closed = 1;
nodes = (
"566 0 LINE",
"566 550 LINE",
"618 550 LINE",
"618 625 LINE",
"44 625 LINE",
"44 550 LINE",
"117 550 LINE",
"105 513 OFFCURVE",
"98 477 OFFCURVE",
"98 437 CURVE SMOOTH",
"98 390 OFFCURVE",
"110 344 OFFCURVE",
"134 310 CURVE",
"3 219 LINE",
"47 156 LINE",
"182 253 LINE",
"219 226 OFFCURVE",
"263 210 OFFCURVE",
"318 210 CURVE SMOOTH",
"329 210 OFFCURVE",
"339 210 OFFCURVE",
"349 211 CURVE",
"161 81 LINE",
"205 18 LINE",
"481 217 LINE",
"481 0 LINE"
);
},
{
closed = 1;
nodes = (
"261 283 OFFCURVE",
"183 316 OFFCURVE",
"183 442 CURVE SMOOTH",
"183 478 OFFCURVE",
"190 515 OFFCURVE",
"201 550 CURVE",
"481 550 LINE",
"481 307 LINE",
"438 293 OFFCURVE",
"398 283 OFFCURVE",
"344 283 CURVE SMOOTH"
);
}
);
width = 642;
}
);
rightMetricsKey = "=Ga";
unicode = 11183;
category = Letter;
},
{
color = 3;
glyphname = letterAA;
lastChange = "2023-01-15 20:22:05 +0000";
layers = (
{
anchors = (
{
name = Anchor14;
position = "{295, -30}";
},
{
name = Anchor17;
position = "{640, 710}";
},
{
name = Anchor18;
position = "{360, 710}";
},
{
name = Anchor20;
position = "{640, 710}";
},
{
name = Anchor21;
position = "{295, -30}";
}
);
background = {
paths = (
{
closed = 1;
nodes = (
"587 590 LINE",
"502 590 LINE",
"502 100 LINE",
"587 90 LINE"
);
},
{
closed = 1;
nodes = (
"300 210 OFFCURVE",
"336 249 OFFCURVE",
"336 306 CURVE SMOOTH",
"336 411 LINE",
"251 442 LINE",
"251 381 LINE",
"190 378 OFFCURVE",
"154 341 OFFCURVE",
"154 295 CURVE SMOOTH",
"154 248 OFFCURVE",
"190 210 OFFCURVE",
"246 210 CURVE SMOOTH"
);
},
{
closed = 1;
nodes = (
"249 550 LINE",
"211 625 LINE",
"44 511 LINE",
"93 443 LINE"
);
},
{
closed = 1;
nodes = (
"574 307 LINE",
"564 382 LINE",
"315 382 LINE",
"315 307 LINE"
);
},
{
closed = 1;
nodes = (
"336 584 LINE",
"251 576 LINE",
"251 402 LINE",
"336 399 LINE"
);
},
{
closed = 1;
nodes = (
"674 550 LINE",
"674 625 LINE",
"211 625 LINE",
"230 550 LINE"
);
},
{
closed = 1;
nodes = (
"628 -132 OFFCURVE",
"682 -77 OFFCURVE",
"682 7 CURVE SMOOTH",
"682 88 OFFCURVE",
"612 145 OFFCURVE",
"529 145 CURVE SMOOTH",
"485 145 OFFCURVE",
"441 126 OFFCURVE",
"411 105 CURVE",
"451 42 LINE",
"478 59 OFFCURVE",
"502 70 OFFCURVE",
"530 70 CURVE SMOOTH",
"580 70 OFFCURVE",
"604 44 OFFCURVE",
"604 8 CURVE SMOOTH",
"604 -33 OFFCURVE",
"576 -59 OFFCURVE",
"524 -59 CURVE SMOOTH",
"468 -59 OFFCURVE",
"427 -43 OFFCURVE",
"324 46 CURVE",
"277 -10 LINE",
"382 -104 OFFCURVE",
"459 -132 OFFCURVE",
"526 -132 CURVE SMOOTH"
);
}
);
};
layerId = UUID0;
paths = (
{
closed = 1;
nodes = (
"301 190 OFFCURVE",
"335 232 OFFCURVE",
"335 286 CURVE",
"335 411 LINE",
"250 442 LINE",
"250 381 LINE",
"179 378 OFFCURVE",
"143 336 OFFCURVE",
"143 291 CURVE",
"155 241 OFFCURVE",
"206 201 OFFCURVE",
"249 190 CURVE"
);
},
{
closed = 1;
nodes = (
"155 474 OFFCURVE",
"200 513 OFFCURVE",
"238 550 CURVE",
"200 625 LINE",
"146 571 OFFCURVE",
"91 539 OFFCURVE",
"24 515 CURVE",
"23 511 LINE",
"85 446 LINE"
);
},
{
closed = 1;
nodes = (
"573 307 LINE",
"533 382 LINE",
"284 382 LINE",
"324 307 LINE"
);
},
{
closed = 1;
nodes = (
"337 479 OFFCURVE",
"321 530 OFFCURVE",
"285 584 CURVE",
"233 574 LINE",
"245 544 OFFCURVE",
"250 519 OFFCURVE",
"250 402 CURVE",
"335 399 LINE"
);
},
{
closed = 1;
nodes = (
"586 590 LINE",
"501 590 LINE",
"501 140 LINE",
"586 86 LINE"
);
},
{
closed = 1;
nodes = (
"691 550 LINE",
"651 625 LINE",
"200 625 LINE",
"219 550 LINE"
);
},
{
closed = 1;
nodes = (
"649 -140 OFFCURVE",
"708 -94 OFFCURVE",
"708 -35 CURVE SMOOTH",
"708 50 OFFCURVE",
"585 144 OFFCURVE",
"494 144 CURVE SMOOTH",
"462 144 OFFCURVE",
"425 130 OFFCURVE",
"394 107 CURVE",
"395 106 LINE",
"409 89 OFFCURVE",
"454 50 OFFCURVE",
"473 36 CURVE",
"501 59 OFFCURVE",
"527 73 OFFCURVE",
"559 73 CURVE SMOOTH",
"588 73 OFFCURVE",
"625 47 OFFCURVE",
"625 7 CURVE SMOOTH",
"625 -35 OFFCURVE",
"579 -66 OFFCURVE",
"514 -66 CURVE SMOOTH",
"456 -66 OFFCURVE",
"391 -30 OFFCURVE",
"298 48 CURVE",
"295 47 LINE",
"283 10 LINE",
"376 -74 OFFCURVE",
"486 -140 OFFCURVE",
"579 -140 CURVE SMOOTH"
);
}
);
width = 684;
},
{
anchors = (
{
name = Anchor14;
position = "{406, -30}";
},
{
name = Anchor17;
position = "{751, 710}";
},
{
name = Anchor18;
position = "{471, 710}";
},
{
name = Anchor20;
position = "{751, 710}";
},
{
name = Anchor21;
position = "{406, -30}";
}
);
background = {
paths = (
{
closed = 1;
nodes = (
"693 593 LINE",
"548 593 LINE",
"548 87 LINE",
"693 72 LINE"
);
},
{
closed = 1;
nodes = (
"355 188 OFFCURVE",
"403 235 OFFCURVE",
"403 302 CURVE SMOOTH",
"403 419 LINE",
"265 462 LINE",
"265 395 LINE",
"199 385 OFFCURVE",
"152 345 OFFCURVE",
"152 292 CURVE SMOOTH",
"152 232 OFFCURVE",
"207 188 OFFCURVE",
"281 188 CURVE SMOOTH"
);
},
{
closed = 1;
nodes = (
"683 279 LINE",
"663 398 LINE",
"335 398 LINE",
"335 279 LINE"
);
},
{
closed = 1;
nodes = (
"403 590 LINE",
"265 578 LINE",
"265 370 LINE",
"403 365 LINE"
);
},
{
closed = 1;
nodes = (
"308 536 LINE",
"207 630 LINE",
"12 518 LINE",
"91 405 LINE"
);
},
{
closed = 1;
nodes = (
"792 511 LINE",
"792 630 LINE",
"207 630 LINE",
"224 511 LINE"
);
},
{
closed = 1;
nodes = (
"708 -148 OFFCURVE",
"785 -90 OFFCURVE",
"785 7 CURVE SMOOTH",
"785 95 OFFCURVE",
"699 161 OFFCURVE",
"587 161 CURVE SMOOTH",
"532 161 OFFCURVE",
"475 145 OFFCURVE",
"427 115 CURVE",
"492 18 LINE",
"532 42 OFFCURVE",
"560 50 OFFCURVE",
"588 50 CURVE SMOOTH",
"629 50 OFFCURVE",
"648 31 OFFCURVE",
"648 6 CURVE SMOOTH",
"648 -21 OFFCURVE",
"627 -39 OFFCURVE",
"581 -39 CURVE SMOOTH",
"503 -39 OFFCURVE",
"458 -10 OFFCURVE",
"349 75 CURVE",
"274 -11 LINE",
"393 -104 OFFCURVE",
"485 -148 OFFCURVE",
"584 -148 CURVE SMOOTH"
);
}
);
};
layerId = "FA3D6E7D-1564-4EF0-9765-0D5E9243D6E7";
paths = (
{
closed = 1;
nodes = (
"306 182 LINE SMOOTH",
"371 182 OFFCURVE",
"417 225 OFFCURVE",
"417 285 CURVE SMOOTH",
"417 412 LINE",
"291 453 LINE",
"291 386 LINE",
"220 378 OFFCURVE",
"173 341 OFFCURVE",
"173 290 CURVE SMOOTH",
"173 288 LINE",
"186 242 OFFCURVE",
"242 196 OFFCURVE",
"302 182 CURVE"
);
},
{
closed = 1;
nodes = (
"203 459 OFFCURVE",
"248 494 OFFCURVE",
"310 549 CURVE",
"233 623 LINE",
"176 573 OFFCURVE",
"129 541 OFFCURVE",
"40 514 CURVE",
"40 502 LINE",
"120 429 LINE"
);
},
{
closed = 1;
nodes = (
"686 296 LINE",
"630 388 LINE",
"321 388 LINE",
"377 296 LINE"
);
},
{
closed = 1;
nodes = (
"421 469 OFFCURVE",
"404 522 OFFCURVE",
"355 586 CURVE",
"268 571 LINE",
"286 536 OFFCURVE",
"291 508 OFFCURVE",
"291 388 CURVE",
"417 384 LINE"
);
},
{
closed = 1;
nodes = (
"693 590 LINE",
"567 590 LINE",
"567 139 LINE",
"693 69 LINE"
);
},
{
closed = 1;
nodes = (
"815 531 LINE",
"760 623 LINE",
"233 623 LINE",
"259 531 LINE"
);
},
{
closed = 1;
nodes = (
"747 -169 OFFCURVE",
"803 -122 OFFCURVE",
"803 -54 CURVE SMOOTH",
"803 19 OFFCURVE",
"674 141 OFFCURVE",
"561 141 CURVE SMOOTH",
"516 141 OFFCURVE",
"472 124 OFFCURVE",
"442 107 CURVE",
"442 105 LINE",
"472 77 OFFCURVE",
"516 42 OFFCURVE",
"545 22 CURVE",
"569 38 OFFCURVE",
"600 48 OFFCURVE",
"624 48 CURVE SMOOTH",
"659 48 OFFCURVE",
"690 25 OFFCURVE",
"690 -9 CURVE SMOOTH",
"690 -47 OFFCURVE",
"654 -78 OFFCURVE",
"596 -78 CURVE SMOOTH",
"515 -78 OFFCURVE",
"441 -40 OFFCURVE",
"327 46 CURVE",
"324 45 LINE",
"303 -10 LINE",
"406 -91 OFFCURVE",
"530 -169 OFFCURVE",
"660 -169 CURVE SMOOTH"
);
}
);
width = 751;
}
);
leftMetricsKey = letterA;
rightMetricsKey = Ga;
unicode = 11184;
category = Letter;
},
{
color = 3;
glyphname = letterI;
lastChange = "2023-01-15 19:26:08 +0000";
layers = (
{
anchors = (
{
name = Anchor14;
position = "{380, 0}";
},
{
name = Anchor15;
position = "{320, 710}";
},
{
name = Anchor17;
position = "{600, 710}";
},
{
name = Anchor18;
position = "{320, 710}";
},
{
name = Anchor20;
position = "{600, 710}";
},
{
name = Anchor21;
position = "{380, 0}";
}
);
background = {
paths = (
{
closed = 1;
nodes = (
"126 435 LINE",
"159 498 OFFCURVE",
"183 523 OFFCURVE",
"218 523 CURVE SMOOTH",
"268 523 OFFCURVE",
"336 447 OFFCURVE",
"408 447 CURVE SMOOTH",
"475 447 OFFCURVE",
"519 492 OFFCURVE",
"561 580 CURVE",
"489 614 LINE",
"458 547 OFFCURVE",
"438 531 OFFCURVE",
"405 531 CURVE SMOOTH",
"353 531 OFFCURVE",
"291 607 OFFCURVE",
"209 607 CURVE SMOOTH",
"150 607 OFFCURVE",
"97 563 OFFCURVE",
"55 474 CURVE"
);
},
{
closed = 1;
nodes = (
"486 13 OFFCURVE",
"558 83 OFFCURVE",
"558 189 CURVE SMOOTH",
"558 295 OFFCURVE",
"476 366 OFFCURVE",
"364 366 CURVE SMOOTH",
"301 366 OFFCURVE",
"249 341 OFFCURVE",
"214 312 CURVE",
"259 245 LINE",
"293 271 OFFCURVE",
"329 285 OFFCURVE",
"367 285 CURVE SMOOTH",
"437 285 OFFCURVE",
"472 249 OFFCURVE",
"472 191 CURVE SMOOTH",
"472 132 OFFCURVE",
"434 95 OFFCURVE",
"352 95 CURVE SMOOTH",
"279 95 OFFCURVE",
"216 120 OFFCURVE",
"98 242 CURVE",
"43 184 LINE",
"159 57 OFFCURVE",
"262 13 OFFCURVE",
"354 13 CURVE SMOOTH"
);
}
);
};
layerId = UUID0;
paths = (
{
closed = 1;
nodes = (
"511 2 OFFCURVE",
"575 76 OFFCURVE",
"575 163 CURVE SMOOTH",
"575 255 OFFCURVE",
"477 353 OFFCURVE",
"358 353 CURVE SMOOTH",
"305 353 OFFCURVE",
"254 323 OFFCURVE",
"219 292 CURVE",
"217 287 LINE",
"242 266 OFFCURVE",
"278 239 OFFCURVE",
"306 221 CURVE",
"343 261 OFFCURVE",
"382 282 OFFCURVE",
"415 282 CURVE SMOOTH",
"459 282 OFFCURVE",
"487 259 OFFCURVE",
"487 215 CURVE SMOOTH",
"487 146 OFFCURVE",
"432 85 OFFCURVE",
"345 85 CURVE SMOOTH",
"276 85 OFFCURVE",
"203 126 OFFCURVE",
"65 305 CURVE",
"61 305 LINE",
"40 263 LINE",
"181 64 OFFCURVE",
"289 2 OFFCURVE",
"400 2 CURVE SMOOTH"
);
},
{
closed = 1;
nodes = (
"146 430 LINE",
"167 503 OFFCURVE",
"191 538 OFFCURVE",
"229 538 CURVE SMOOTH",
"289 538 OFFCURVE",
"411 447 OFFCURVE",
"474 447 CURVE SMOOTH",
"527 447 OFFCURVE",
"562 500 OFFCURVE",
"583 572 CURVE",
"505 624 LINE",
"502 624 LINE",
"483 548 OFFCURVE",
"463 524 OFFCURVE",
"427 524 CURVE SMOOTH",
"358 524 OFFCURVE",
"253 615 OFFCURVE",
"183 615 CURVE SMOOTH",
"135 615 OFFCURVE",
"92 573 OFFCURVE",
"67 487 CURVE",
"143 430 LINE"
);
}
);
width = 633;
},
{
anchors = (
{
name = Anchor14;
position = "{430, 0}";
},
{
name = Anchor15;
position = "{370, 710}";
},
{
name = Anchor17;
position = "{650, 710}";
},
{
name = Anchor18;
position = "{370, 710}";
},
{
name = Anchor20;
position = "{650, 710}";
},
{
name = Anchor21;
position = "{430, 0}";
}
);
background = {
paths = (
{
closed = 1;
nodes = (
"180 398 LINE",
"223 471 OFFCURVE",
"244 495 OFFCURVE",
"276 495 CURVE SMOOTH",
"292 495 OFFCURVE",
"310 489 OFFCURVE",
"355 465 CURVE SMOOTH",
"394 445 OFFCURVE",
"443 420 OFFCURVE",
"493 420 CURVE SMOOTH",
"581 420 OFFCURVE",
"642 468 OFFCURVE",
"701 586 CURVE",
"574 639 LINE",
"538 562 OFFCURVE",
"522 546 OFFCURVE",
"489 546 CURVE SMOOTH",
"468 546 OFFCURVE",
"445 559 OFFCURVE",
"413 575 CURVE SMOOTH",
"373 596 OFFCURVE",
"323 625 OFFCURVE",
"266 625 CURVE SMOOTH",
"182 625 OFFCURVE",
"109 566 OFFCURVE",
"57 456 CURVE"
);
},
{
closed = 1;
nodes = (
"591 7 OFFCURVE",
"700 78 OFFCURVE",
"700 196 CURVE SMOOTH",
"700 308 OFFCURVE",
"598 387 OFFCURVE",
"443 387 CURVE SMOOTH",
"368 387 OFFCURVE",
"294 365 OFFCURVE",
"240 325 CURVE",
"318 217 LINE",
"361 246 OFFCURVE",
"402 260 OFFCURVE",
"446 260 CURVE SMOOTH",
"520 260 OFFCURVE",
"551 235 OFFCURVE",
"551 198 CURVE SMOOTH",
"551 160 OFFCURVE",
"515 132 OFFCURVE",
"429 132 CURVE SMOOTH",
"326 132 OFFCURVE",
"260 161 OFFCURVE",
"133 275 CURVE",
"39 187 LINE",
"168 63 OFFCURVE",
"300 7 OFFCURVE",
"431 7 CURVE SMOOTH"
);
}
);
};
layerId = "FA3D6E7D-1564-4EF0-9765-0D5E9243D6E7";
paths = (
{
closed = 1;
nodes = (
"571 2 OFFCURVE",
"658 70 OFFCURVE",
"658 167 CURVE SMOOTH",
"658 268 OFFCURVE",
"535 362 OFFCURVE",
"403 362 CURVE SMOOTH",
"336 362 OFFCURVE",
"272 327 OFFCURVE",
"235 296 CURVE",
"235 290 LINE",
"264 265 OFFCURVE",
"312 228 OFFCURVE",
"347 209 CURVE",
"388 251 OFFCURVE",
"429 276 OFFCURVE",
"465 276 CURVE SMOOTH",
"504 276 OFFCURVE",
"528 254 OFFCURVE",
"528 218 CURVE SMOOTH",
"528 151 OFFCURVE",
"474 98 OFFCURVE",
"388 98 CURVE SMOOTH",
"306 98 OFFCURVE",
"223 151 OFFCURVE",
"89 310 CURVE",
"84 310 LINE",
"35 264 LINE",
"181 82 OFFCURVE",
"306 2 OFFCURVE",
"449 2 CURVE SMOOTH"
);
},
{
closed = 1;
nodes = (
"179 420 LINE",
"207 492 OFFCURVE",
"231 517 OFFCURVE",
"264 518 CURVE SMOOTH",
"296 519 OFFCURVE",
"327 507 OFFCURVE",
"385 481 CURVE SMOOTH",
"447 453 OFFCURVE",
"495 438 OFFCURVE",
"536 438 CURVE SMOOTH",
"591 438 OFFCURVE",
"636 479 OFFCURVE",
"657 570 CURVE",
"560 624 LINE",
"551 624 LINE",
"528 550 OFFCURVE",
"510 530 OFFCURVE",
"479 530 CURVE SMOOTH",
"449 530 OFFCURVE",
"421 540 OFFCURVE",
"356 570 CURVE SMOOTH",
"281 605 OFFCURVE",
"245 616 OFFCURVE",
"207 616 CURVE SMOOTH",
"149 616 OFFCURVE",
"101 565 OFFCURVE",
"75 479 CURVE",
"173 419 LINE"
);
}
);
width = 713;
}
);
unicode = 11185;
category = Letter;
},
{
color = 3;
glyphname = letterII;
lastChange = "2023-01-15 20:22:05 +0000";
layers = (
{
anchors = (
{
name = Anchor14;
position = "{180, 0}";
},
{
name = Anchor17;
position = "{384, 897}";
},
{
name = Anchor18;
position = "{205, 875}";
},
{
name = Anchor20;
position = "{384, 897}";
},
{
name = Anchor21;
position = "{180, 0}";
}
);
background = {
paths = (
{
closed = 1;
nodes = (
"124 709 OFFCURVE",
"153 738 OFFCURVE",
"153 774 CURVE SMOOTH",
"153 809 OFFCURVE",
"124 838 OFFCURVE",
"89 838 CURVE SMOOTH",
"53 838 OFFCURVE",
"24 809 OFFCURVE",
"24 774 CURVE SMOOTH",
"24 738 OFFCURVE",
"53 709 OFFCURVE",
"89 709 CURVE SMOOTH"
);
},
{
closed = 1;
nodes = (
"322 709 OFFCURVE",
"351 738 OFFCURVE",
"351 774 CURVE SMOOTH",
"351 809 OFFCURVE",
"322 838 OFFCURVE",
"287 838 CURVE SMOOTH",
"251 838 OFFCURVE",
"222 809 OFFCURVE",
"222 774 CURVE SMOOTH",
"222 738 OFFCURVE",
"251 709 OFFCURVE",
"287 709 CURVE SMOOTH"
);
},
{
closed = 1;
nodes = (
"281 590 LINE",
"196 590 LINE",
"196 242 LINE",
"64 242 LINE",
"64 213 LINE",
"254 27 LINE",
"281 27 LINE"
);
},
{
closed = 1;
nodes = (
"393 550 LINE",
"393 625 LINE",
"-6 625 LINE",
"-6 550 LINE"
);
}
);
};
layerId = UUID0;
paths = (
{
closed = 1;
nodes = (
"364 782 LINE",
"275 848 LINE",
"206 762 LINE",
"295 696 LINE"
);
},
{
closed = 1;
nodes = (
"167 782 LINE",
"78 848 LINE",
"9 762 LINE",
"98 696 LINE"
);
},
{
closed = 1;
nodes = (
"281 590 LINE",
"196 590 LINE",
"196 262 LINE",
"160 255 OFFCURVE",
"86 241 OFFCURVE",
"61 235 CURVE",
"58 226 OFFCURVE",
"54 217 OFFCURVE",
"52 210 CURVE",
"93 160 OFFCURVE",
"192 66 OFFCURVE",
"251 17 CURVE",
"259 15 OFFCURVE",
"273 12 OFFCURVE",
"281 12 CURVE"
);
},
{
closed = 1;
nodes = (
"411 550 LINE",
"371 625 LINE",
"-24 625 LINE",
"16 550 LINE"
);
}
);
width = 387;
},
{
anchors = (
{
name = Anchor14;
position = "{210, 0}";
},
{
name = Anchor17;
position = "{414, 897}";
},
{
name = Anchor18;
position = "{235, 875}";
},
{
name = Anchor20;
position = "{414, 897}";
},
{
name = Anchor21;
position = "{210, 0}";
}
);
background = {
paths = (
{
closed = 1;
nodes = (
"137 668 OFFCURVE",
"181 706 OFFCURVE",
"181 754 CURVE SMOOTH",
"181 800 OFFCURVE",
"137 838 OFFCURVE",
"84 838 CURVE SMOOTH",
"31 838 OFFCURVE",
"-14 800 OFFCURVE",
"-14 754 CURVE SMOOTH",
"-14 706 OFFCURVE",
"30 668 OFFCURVE",
"84 668 CURVE SMOOTH"
);
},
{
closed = 1;
nodes = (
"363 668 OFFCURVE",
"407 706 OFFCURVE",
"407 754 CURVE SMOOTH",
"407 800 OFFCURVE",
"363 838 OFFCURVE",
"310 838 CURVE SMOOTH",
"257 838 OFFCURVE",
"212 800 OFFCURVE",
"212 754 CURVE SMOOTH",
"212 706 OFFCURVE",
"256 668 OFFCURVE",
"310 668 CURVE SMOOTH"
);
},
{
closed = 1;
nodes = (
"312 598 LINE",
"167 598 LINE",
"167 271 LINE",
"17 271 LINE",
"17 192 LINE",
"216 21 LINE",
"312 21 LINE"
);
},
{
closed = 1;
nodes = (
"440 512 LINE",
"440 630 LINE",
"-63 630 LINE",
"-63 512 LINE"
);
}
);
};
layerId = "FA3D6E7D-1564-4EF0-9765-0D5E9243D6E7";
paths = (
{
closed = 1;
nodes = (
"417 773 LINE",
"296 852 LINE",
"204 751 LINE",
"325 672 LINE"
);
},
{
closed = 1;
nodes = (
"200 773 LINE",
"79 852 LINE",
"-13 751 LINE",
"108 672 LINE"
);
},
{
closed = 1;
nodes = (
"311 21 CURVE",
"311 592 LINE",
"185 592 LINE",
"185 271 LINE",
"126 261 OFFCURVE",
"63 250 OFFCURVE",
"49 247 CURVE",
"41 241 OFFCURVE",
"34 232 OFFCURVE",
"31 225 CURVE",
"52 197 OFFCURVE",
"200 57 OFFCURVE",
"258 13 CURVE",
"274 11 OFFCURVE",
"301 17 OFFCURVE"
);
},
{
closed = 1;
nodes = (
"461 533 LINE",
"405 625 LINE",
"-64 625 LINE",
"-8 533 LINE"
);
}
);
width = 397;
}
);
leftMetricsKey = Ga;
rightMetricsKey = Ga;
unicode = 11186;
category = Letter;
},
{
color = 3;
glyphname = letterU;
lastChange = "2023-01-15 19:27:04 +0000";
layers = (
{
anchors = (
{
name = Anchor14;
position = "{355, 0}";
},
{
name = Anchor15;
position = "{340, 710}";
},
{
name = Anchor17;
position = "{540, 710}";
},
{
name = Anchor18;
position = "{340, 710}";
},
{
name = Anchor20;
position = "{540, 710}";
},
{
name = Anchor21;
position = "{355, 0}";
}
);
background = {
paths = (
{
closed = 1;
nodes = (
"505 17 OFFCURVE",
"576 92 OFFCURVE",
"577 202 CURVE SMOOTH",
"578 299 OFFCURVE",
"509 386 OFFCURVE",
"387 386 CURVE SMOOTH",
"369 386 OFFCURVE",
"318 370 OFFCURVE",
"310 365 CURVE",
"354 341 LINE",
"437 398 OFFCURVE",
"511 484 OFFCURVE",
"545 550 CURVE",
"471 576 LINE",
"412 479 OFFCURVE",
"348 422 OFFCURVE",
"267 377 CURVE",
"297 302 LINE",
"325 310 OFFCURVE",
"349 313 OFFCURVE",
"381 313 CURVE SMOOTH",
"456 312 OFFCURVE",
"496 264 OFFCURVE",
"496 203 CURVE SMOOTH",
"496 139 OFFCURVE",
"457 97 OFFCURVE",
"392 97 CURVE SMOOTH",
"310 97 OFFCURVE",
"229 127 OFFCURVE",
"102 425 CURVE",
"31 394 LINE",
"164 82 OFFCURVE",
"276 17 OFFCURVE",
"391 17 CURVE SMOOTH"
);
},
{
closed = 1;
nodes = (
"545 550 LINE",
"545 625 LINE",
"128 625 LINE",
"128 550 LINE"
);
}
);
};
layerId = UUID0;
paths = (
{
closed = 1;
nodes = (
"496 17 OFFCURVE",
"574 101 OFFCURVE",
"575 212 CURVE SMOOTH",
"576 299 OFFCURVE",
"495 375 OFFCURVE",
"383 384 CURVE",
"365 384 OFFCURVE",
"314 370 OFFCURVE",
"306 365 CURVE",
"364 341 LINE",
"447 398 OFFCURVE",
"507 484 OFFCURVE",
"541 550 CURVE",
"516 569 OFFCURVE",
"469 588 OFFCURVE",
"457 586 CURVE",
"416 497 OFFCURVE",
"344 426 OFFCURVE",
"263 381 CURVE",
"278 359 OFFCURVE",
"315 325 OFFCURVE",
"330 315 CURVE",
"356 326 OFFCURVE",
"376 332 OFFCURVE",
"408 331 CURVE SMOOTH",
"449 330 OFFCURVE",
"483 298 OFFCURVE",
"483 239 CURVE SMOOTH",
"483 165 OFFCURVE",
"438 101 OFFCURVE",
"372 101 CURVE SMOOTH",
"293 101 OFFCURVE",
"201 169 OFFCURVE",
"47 480 CURVE",
"43 480 LINE",
"17 434 LINE",
"170 122 OFFCURVE",
"287 17 OFFCURVE",
"411 17 CURVE SMOOTH"
);
},
{
closed = 1;
nodes = (
"541 550 LINE",
"489 625 LINE",
"54 625 LINE",
"94 550 LINE"
);
}
);
width = 588;
},
{
anchors = (
{
name = Anchor14;
position = "{425, 0}";
},
{
name = Anchor15;
position = "{410, 710}";
},
{
name = Anchor17;
position = "{610, 710}";
},
{
name = Anchor18;
position = "{410, 710}";
},
{
name = Anchor20;
position = "{610, 710}";
},
{
name = Anchor21;
position = "{425, 0}";
}
);
background = {
paths = (
{
closed = 1;
nodes = (
"593 11 OFFCURVE",
"688 90 OFFCURVE",
"689 209 CURVE SMOOTH",
"690 323 OFFCURVE",
"590 400 OFFCURVE",
"449 400 CURVE",
"424 400 OFFCURVE",
"371 365 OFFCURVE",
"325 350 CURVE",
"410 314 LINE",
"515 370 OFFCURVE",
"606 432 OFFCURVE",
"663 512 CURVE",
"572 589 LINE",
"495 493 OFFCURVE",
"404 434 OFFCURVE",
"281 386 CURVE",
"334 277 LINE",
"370 287 OFFCURVE",
"394 291 OFFCURVE",
"442 291 CURVE SMOOTH",
"508 291 OFFCURVE",
"549 258 OFFCURVE",
"549 210 CURVE SMOOTH",
"549 163 OFFCURVE",
"512 134 OFFCURVE",
"454 134 CURVE SMOOTH",
"335 134 OFFCURVE",
"256 199 OFFCURVE",
"134 446 CURVE",
"11 400 LINE",
"148 125 OFFCURVE",
"275 11 OFFCURVE",
"453 11 CURVE SMOOTH"
);
},
{
closed = 1;
nodes = (
"663 512 LINE",
"663 631 LINE",
"129 631 LINE",
"129 512 LINE"
);
}
);
};
layerId = "FA3D6E7D-1564-4EF0-9765-0D5E9243D6E7";
paths = (
{
closed = 1;
nodes = (
"550 16 OFFCURVE",
"638 106 OFFCURVE",
"639 215 CURVE SMOOTH",
"641 306 OFFCURVE",
"552 389 OFFCURVE",
"424 389 CURVE SMOOTH",
"389 389 LINE SMOOTH",
"371 389 OFFCURVE",
"354 371 OFFCURVE",
"339 348 CURVE",
"424 348 LINE",
"513 405 OFFCURVE",
"572 468 OFFCURVE",
"611 533 CURVE",
"596 551 LINE",
"567 565 OFFCURVE",
"562 572 OFFCURVE",
"539 577 CURVE",
"504 576 LINE",
"447 495 OFFCURVE",
"365 431 OFFCURVE",
"270 387 CURVE",
"266 374 LINE",
"297 346 OFFCURVE",
"321 327 OFFCURVE",
"357 308 CURVE",
"378 315 OFFCURVE",
"408 323 OFFCURVE",
"434 322 CURVE SMOOTH",
"478 320 OFFCURVE",
"505 291 OFFCURVE",
"505 241 CURVE SMOOTH",
"505 162 OFFCURVE",
"457 117 OFFCURVE",
"393 117 CURVE SMOOTH",
"315 117 OFFCURVE",
"203 199 OFFCURVE",
"51 473 CURVE",
"45 474 LINE",
"-8 431 LINE",
"153 140 OFFCURVE",
"286 16 OFFCURVE",
"443 16 CURVE SMOOTH"
);
},
{
closed = 1;
nodes = (
"611 533 LINE",
"539 626 LINE",
"27 626 LINE",
"82 533 LINE"
);
}
);
width = 628;
}
);
unicode = 11187;
category = Letter;
},
{
color = 3;
glyphname = letterUU;
lastChange = "2023-01-15 19:27:52 +0000";
layers = (
{
anchors = (
{
name = Anchor14;
position = "{355, 0}";
},
{
name = Anchor17;
position = "{540, 710}";
},
{
name = Anchor18;
position = "{340, 710}";
},
{
name = Anchor20;
position = "{540, 710}";
},
{
name = Anchor21;
position = "{355, 0}";
}
);
background = {
paths = (
{
closed = 1;
nodes = (
"753 18 OFFCURVE",
"787 98 OFFCURVE",
"787 172 CURVE SMOOTH",
"787 281 OFFCURVE",
"715 348 OFFCURVE",
"591 348 CURVE SMOOTH",
"568 348 OFFCURVE",
"477 348 OFFCURVE",
"459 348 CURVE",
"467 337 OFFCURVE",
"505 287 OFFCURVE",
"515 270 CURVE",
"557 270 OFFCURVE",
"579 270 OFFCURVE",
"597 270 CURVE SMOOTH",
"675 270 OFFCURVE",
"708 240 OFFCURVE",
"708 173 CURVE SMOOTH",
"708 123 OFFCURVE",
"679 51 OFFCURVE",
"606 -31 CURVE",
"673 -81 LINE"
);
}
);
};
components = (
{
name = letterU;
}
);
layerId = UUID0;
paths = (
{
closed = 1;
nodes = (
"745 -25 OFFCURVE",
"790 62 OFFCURVE",
"790 141 CURVE SMOOTH",
"790 275 OFFCURVE",
"678 345 OFFCURVE",
"567 345 CURVE SMOOTH",
"524 345 OFFCURVE",
"498 343 OFFCURVE",
"475 336 CURVE",
"483 325 OFFCURVE",
"501 264 OFFCURVE",
"511 247 CURVE",
"553 265 OFFCURVE",
"584 274 OFFCURVE",
"622 274 CURVE SMOOTH",
"682 274 OFFCURVE",
"714 245 OFFCURVE",
"714 183 CURVE SMOOTH",
"714 109 OFFCURVE",
"668 27 OFFCURVE",
"586 -48 CURVE",
"586 -52 LINE",
"685 -90 LINE"
);
}
);
width = 780;
},
{
anchors = (
{
name = Anchor14;
position = "{405, 0}";
},
{
name = Anchor17;
position = "{590, 710}";
},
{
name = Anchor18;
position = "{390, 710}";
},
{
name = Anchor20;
position = "{590, 710}";
},
{
name = Anchor21;
position = "{405, 0}";
}
);
background = {
paths = (
{
closed = 1;
nodes = (
"898 10 OFFCURVE",
"947 96 OFFCURVE",
"947 177 CURVE SMOOTH",
"947 295 OFFCURVE",
"852 367 OFFCURVE",
"699 367 CURVE SMOOTH",
"673 367 OFFCURVE",
"570 367 OFFCURVE",
"549 367 CURVE",
"531 327 LINE",
"540 317 OFFCURVE",
"583 271 OFFCURVE",
"594 256 CURVE",
"613 246 LINE",
"661 246 OFFCURVE",
"684 246 OFFCURVE",
"706 246 CURVE SMOOTH",
"782 246 OFFCURVE",
"809 227 OFFCURVE",
"809 178 CURVE SMOOTH",
"809 125 OFFCURVE",
"766 67 OFFCURVE",
"687 -6 CURVE",
"797 -90 LINE"
);
}
);
};
components = (
{
name = letterU;
}
);
layerId = "FA3D6E7D-1564-4EF0-9765-0D5E9243D6E7";
paths = (
{
closed = 1;
nodes = (
"819 -19 OFFCURVE",
"867 69 OFFCURVE",
"867 145 CURVE SMOOTH",
"867 265 OFFCURVE",
"755 352 OFFCURVE",
"605 352 CURVE SMOOTH",
"557 352 OFFCURVE",
"525 350 OFFCURVE",
"499 343 CURVE",
"490 328 LINE",
"506 293 OFFCURVE",
"527 244 OFFCURVE",
"536 233 CURVE",
"594 256 OFFCURVE",
"626 264 OFFCURVE",
"665 264 CURVE SMOOTH",
"723 264 OFFCURVE",
"750 240 OFFCURVE",
"750 185 CURVE SMOOTH",
"750 115 OFFCURVE",
"700 35 OFFCURVE",
"609 -36 CURVE",
"609 -48 LINE",
"740 -92 LINE"
);
}
);
width = 820;
}
);
unicode = 11188;
category = Letter;
},
{
color = 3;
glyphname = letterVocR;
lastChange = "2023-01-15 20:22:05 +0000";
layers = (
{
anchors = (
{
name = Anchor14;
position = "{296, 0}";
},
{
name = Anchor15;
position = "{226, 875}";
},
{
name = Anchor17;
position = "{396, 710}";
},
{
name = Anchor18;
position = "{201, 710}";
},
{
name = Anchor20;
position = "{396, 710}";
},
{
name = Anchor21;
position = "{296, 0}";
}
);
background = {
paths = (
{
closed = 1;
nodes = (
"353 38 OFFCURVE",
"413 70 OFFCURVE",
"460 113 CURVE",
"407 178 LINE",
"363 140 OFFCURVE",
"323 122 OFFCURVE",
"281 122 CURVE SMOOTH",
"220 122 OFFCURVE",
"187 152 OFFCURVE",
"187 219 CURVE SMOOTH",
"187 288 LINE",
"102 316 LINE",
"102 221 LINE SMOOTH",
"102 92 OFFCURVE",
"180 38 OFFCURVE",
"281 38 CURVE SMOOTH"
);
},
{
closed = 1;
nodes = (
"187 590 LINE",
"102 590 LINE",
"102 280 LINE",
"187 248 LINE"
);
},
{
closed = 1;
nodes = (
"485 550 LINE",
"485 625 LINE",
"-5 625 LINE",
"-5 550 LINE"
);
}
);
};
layerId = UUID0;
paths = (
{
closed = 1;
nodes = (
"385 38 OFFCURVE",
"442 72 OFFCURVE",
"479 113 CURVE",
"404 177 LINE",
"370 141 OFFCURVE",
"325 117 OFFCURVE",
"267 117 CURVE SMOOTH",
"207 117 OFFCURVE",
"183 144 OFFCURVE",
"183 201 CURVE SMOOTH",
"183 278 LINE",
"98 316 LINE",
"98 266 LINE",
"98 124 OFFCURVE",
"212 38 OFFCURVE",
"307 38 CURVE SMOOTH"
);
},
{
closed = 1;
nodes = (
"183 590 LINE",
"98 590 LINE",
"98 280 LINE",
"183 238 LINE"
);
},
{
closed = 1;
nodes = (
"497 550 LINE",
"457 625 LINE",
"-24 625 LINE",
"16 550 LINE"
);
}
);
width = 473;
},
{
anchors = (
{
name = Anchor14;
position = "{304, 0}";
},
{
name = Anchor15;
position = "{234, 875}";
},
{
name = Anchor17;
position = "{404, 710}";
},
{
name = Anchor18;
position = "{209, 710}";
},
{
name = Anchor20;
position = "{404, 710}";
},
{
name = Anchor21;
position = "{304, 0}";
}
);
background = {
paths = (
{
closed = 1;
nodes = (
"411 32 OFFCURVE",
"492 63 OFFCURVE",
"554 121 CURVE",
"462 219 LINE",
"409 177 OFFCURVE",
"366 159 OFFCURVE",
"317 159 CURVE SMOOTH",
"258 159 OFFCURVE",
"234 183 OFFCURVE",
"234 230 CURVE SMOOTH",
"234 309 LINE",
"89 348 LINE",
"89 228 LINE SMOOTH",
"89 104 OFFCURVE",
"174 32 OFFCURVE",
"317 32 CURVE SMOOTH"
);
},
{
closed = 1;
nodes = (
"234 598 LINE",
"89 598 LINE",
"89 265 LINE",
"234 224 LINE"
);
},
{
closed = 1;
nodes = (
"573 513 LINE",
"573 630 LINE",
"-33 630 LINE",
"-33 513 LINE"
);
}
);
};
layerId = "FA3D6E7D-1564-4EF0-9765-0D5E9243D6E7";
paths = (
{
closed = 1;
nodes = (
"406 37 OFFCURVE",
"482 68 OFFCURVE",
"532 120 CURVE",
"428 198 LINE",
"385 154 OFFCURVE",
"338 133 OFFCURVE",
"279 133 CURVE SMOOTH",
"224 133 OFFCURVE",
"203 153 OFFCURVE",
"203 205 CURVE SMOOTH",
"203 285 LINE",
"77 334 LINE",
"77 268 LINE SMOOTH",
"77 142 OFFCURVE",
"190 37 OFFCURVE",
"323 37 CURVE SMOOTH"
);
},
{
closed = 1;
nodes = (
"203 592 LINE",
"77 592 LINE",
"77 277 LINE",
"203 222 LINE"
);
},
{
closed = 1;
nodes = (
"555 533 LINE",
"500 625 LINE",
"-64 625 LINE",
"-9 533 LINE"
);
}
);
width = 491;
}
);
leftMetricsKey = Ga;
rightMetricsKey = Ga;
unicode = 11189;
category = Letter;
},
{
color = 3;
glyphname = letterVocRR;
lastChange = "2023-01-15 20:22:05 +0000";
layers = (
{
anchors = (
{
name = Anchor14;
position = "{295, 0}";
},
{
name = Anchor17;
position = "{450, 710}";
},
{
name = Anchor18;
position = "{220, 710}";
},
{
name = Anchor20;
position = "{450, 710}";
},
{
name = Anchor21;
position = "{295, 0}";
}
);
background = {
paths = (
{
closed = 1;
nodes = (
"474 293 OFFCURVE",
"505 301 OFFCURVE",
"530 315 CURVE",
"497 381 LINE",
"481 373 OFFCURVE",
"465 369 OFFCURVE",
"450 369 CURVE SMOOTH",
"411 369 OFFCURVE",
"395 390 OFFCURVE",
"395 438 CURVE SMOOTH",
"395 518 LINE",
"312 516 LINE",
"312 436 LINE SMOOTH",
"312 340 OFFCURVE",
"366 293 OFFCURVE",
"444 293 CURVE SMOOTH"
);
},
{
closed = 1;
nodes = (
"395 600 LINE",
"312 600 LINE",
"312 500 LINE",
"395 498 LINE"
);
},
{
closed = 1;
nodes = (
"571 550 LINE",
"571 625 LINE",
"129 625 LINE",
"169 550 LINE"
);
}
);
};
components = (
{
name = letterVocR;
}
);
layerId = UUID0;
paths = (
{
closed = 1;
nodes = (
"509 290 OFFCURVE",
"545 305 OFFCURVE",
"565 322 CURVE",
"505 384 LINE",
"486 369 OFFCURVE",
"460 359 OFFCURVE",
"436 359 CURVE SMOOTH",
"409 359 OFFCURVE",
"391 376 OFFCURVE",
"391 408 CURVE SMOOTH",
"391 478 LINE",
"308 516 LINE",
"308 482 LINE",
"308 367 OFFCURVE",
"392 290 OFFCURVE",
"470 290 CURVE SMOOTH"
);
},
{
closed = 1;
nodes = (
"391 600 LINE",
"308 600 LINE",
"308 500 LINE",
"391 458 LINE"
);
},
{
closed = 1;
nodes = (
"586 550 LINE",
"546 625 LINE",
"125 625 LINE",
"165 550 LINE"
);
}
);
width = 562;
},
{
anchors = (
{
name = Anchor14;
position = "{295, 0}";
},
{
name = Anchor17;
position = "{450, 710}";
},
{
name = Anchor18;
position = "{220, 710}";
},
{
name = Anchor20;
position = "{450, 710}";
},
{
name = Anchor21;
position = "{295, 0}";
}
);
background = {
paths = (
{
closed = 1;
nodes = (
"572 276 OFFCURVE",
"618 292 OFFCURVE",
"653 315 CURVE",
"595 408 LINE",
"573 396 OFFCURVE",
"555 392 OFFCURVE",
"536 392 CURVE SMOOTH",
"509 392 OFFCURVE",
"495 405 OFFCURVE",
"495 437 CURVE SMOOTH",
"495 532 LINE",
"362 528 LINE",
"362 430 LINE SMOOTH",
"362 332 OFFCURVE",
"420 276 OFFCURVE",
"526 276 CURVE SMOOTH"
);
},
{
closed = 1;
nodes = (
"495 608 LINE",
"362 608 LINE",
"362 466 LINE",
"495 465 LINE"
);
},
{
closed = 1;
nodes = (
"698 513 LINE",
"698 630 LINE",
"116 630 LINE",
"192 513 LINE"
);
}
);
};
components = (
{
name = letterVocR;
}
);
layerId = "FA3D6E7D-1564-4EF0-9765-0D5E9243D6E7";
paths = (
{
closed = 1;
nodes = (
"557 282 OFFCURVE",
"611 299 OFFCURVE",
"634 322 CURVE",
"550 399 LINE",
"526 379 OFFCURVE",
"502 368 OFFCURVE",
"473 368 CURVE SMOOTH",
"452 368 OFFCURVE",
"440 381 OFFCURVE",
"440 406 CURVE SMOOTH",
"440 479 LINE",
"316 529 LINE",
"316 478 LINE SMOOTH",
"316 371 OFFCURVE",
"405 282 OFFCURVE",
"510 282 CURVE SMOOTH"
);
},
{
closed = 1;
nodes = (
"440 602 LINE",
"316 602 LINE",
"316 490 LINE",
"440 435 LINE"
);
},
{
closed = 1;
nodes = (
"661 533 LINE",
"605 625 LINE",
"108 625 LINE",
"163 533 LINE"
);
}
);
width = 597;
}
);
leftMetricsKey = Ga;
rightMetricsKey = Ga;
unicode = 1118A;
category = Letter;
},
{
color = 3;
glyphname = letterVocL;
lastChange = "2023-01-15 20:22:05 +0000";
layers = (
{
anchors = (
{
name = Anchor14;
position = "{333, 0}";
},
{
name = Anchor15;
position = "{373, 710}";
},
{
name = Anchor17;
position = "{598, 710}";
},
{
name = Anchor18;
position = "{328, 710}";
},
{
name = Anchor20;
position = "{598, 710}";
},
{
name = Anchor21;
position = "{333, 0}";
}
);
background = {
paths = (
{
closed = 1;
nodes = (
"467 12 OFFCURVE",
"529 33 OFFCURVE",
"577 66 CURVE",
"536 133 LINE",
"488 101 OFFCURVE",
"439 87 OFFCURVE",
"396 87 CURVE SMOOTH",
"361 87 OFFCURVE",
"343 101 OFFCURVE",
"343 126 CURVE SMOOTH",
"343 194 OFFCURVE",
"546 234 OFFCURVE",
"546 350 CURVE SMOOTH",
"546 417 OFFCURVE",
"487 465 OFFCURVE",
"398 465 CURVE SMOOTH",
"349 465 OFFCURVE",
"296 449 OFFCURVE",
"255 426 CURVE",
"289 357 LINE",
"325 377 OFFCURVE",
"369 390 OFFCURVE",
"400 390 CURVE SMOOTH",
"446 390 OFFCURVE",
"465 375 OFFCURVE",
"465 350 CURVE SMOOTH",
"465 285 OFFCURVE",
"258 244 OFFCURVE",
"260 124 CURVE SMOOTH",
"261 56 OFFCURVE",
"312 12 OFFCURVE",
"398 12 CURVE SMOOTH"
);
},
{
closed = 1;
nodes = (
"165 590 LINE",
"80 590 LINE",
"80 0 LINE",
"165 0 LINE"
);
},
{
closed = 1;
nodes = (
"630 550 LINE",
"630 625 LINE",
"-3 625 LINE",
"-3 550 LINE"
);
},
{
closed = 1;
nodes = (
"444 590 LINE",
"359 590 LINE",
"359 428 LINE",
"444 418 LINE"
);
}
);
};
layerId = UUID0;
paths = (
{
closed = 1;
nodes = (
"493 22 OFFCURVE",
"520 29 OFFCURVE",
"568 59 CURVE",
"523 133 LINE",
"477 100 OFFCURVE",
"421 87 OFFCURVE",
"385 87 CURVE SMOOTH",
"357 87 OFFCURVE",
"332 102 OFFCURVE",
"332 133 CURVE SMOOTH",
"332 197 OFFCURVE",
"541 231 OFFCURVE",
"541 315 CURVE SMOOTH",
"541 389 OFFCURVE",
"452 453 OFFCURVE",
"364 453 CURVE SMOOTH",
"325 453 OFFCURVE",
"288 442 OFFCURVE",
"255 418 CURVE",
"316 351 LINE",
"350 378 OFFCURVE",
"391 389 OFFCURVE",
"416 389 CURVE SMOOTH",
"449 389 OFFCURVE",
"465 374 OFFCURVE",
"465 348 CURVE SMOOTH",
"465 285 OFFCURVE",
"257 261 OFFCURVE",
"258 178 CURVE SMOOTH",
"259 92 OFFCURVE",
"348 22 OFFCURVE",
"441 22 CURVE SMOOTH"
);
},
{
closed = 1;
nodes = (
"161 590 LINE",
"76 590 LINE",
"76 30 LINE",
"161 -20 LINE"
);
},
{
closed = 1;
nodes = (
"646 550 LINE",
"606 625 LINE",
"-24 625 LINE",
"16 550 LINE"
);
},
{
closed = 1;
nodes = (
"440 590 LINE",
"355 590 LINE",
"355 428 LINE",
"440 418 LINE"
);
}
);
width = 622;
},
{
anchors = (
{
name = Anchor14;
position = "{411, 0}";
},
{
name = Anchor15;
position = "{451, 710}";
},
{
name = Anchor17;
position = "{676, 710}";
},
{
name = Anchor18;
position = "{406, 710}";
},
{
name = Anchor20;
position = "{676, 710}";
},
{
name = Anchor21;
position = "{411, 0}";
}
);
background = {
paths = (
{
closed = 1;
nodes = (
"565 -4 OFFCURVE",
"649 20 OFFCURVE",
"714 64 CURVE",
"641 165 LINE",
"588 132 OFFCURVE",
"530 111 OFFCURVE",
"475 111 CURVE SMOOTH",
"450 111 OFFCURVE",
"441 119 OFFCURVE",
"441 129 CURVE SMOOTH",
"441 144 OFFCURVE",
"454 155 OFFCURVE",
"519 187 CURVE SMOOTH",
"584 219 OFFCURVE",
"671 262 OFFCURVE",
"671 338 CURVE SMOOTH",
"671 417 OFFCURVE",
"591 467 OFFCURVE",
"478 467 CURVE SMOOTH",
"413 467 OFFCURVE",
"341 451 OFFCURVE",
"284 419 CURVE",
"345 314 LINE",
"387 337 OFFCURVE",
"452 357 OFFCURVE",
"490 357 CURVE SMOOTH",
"519 357 OFFCURVE",
"530 349 OFFCURVE",
"530 338 CURVE SMOOTH",
"530 324 OFFCURVE",
"516 316 OFFCURVE",
"453 285 CURVE SMOOTH",
"386 252 OFFCURVE",
"295 205 OFFCURVE",
"297 124 CURVE SMOOTH",
"298 45 OFFCURVE",
"369 -4 OFFCURVE",
"478 -4 CURVE SMOOTH"
);
},
{
closed = 1;
nodes = (
"216 597 LINE",
"71 597 LINE",
"71 0 LINE",
"216 0 LINE"
);
},
{
closed = 1;
nodes = (
"766 513 LINE",
"766 630 LINE",
"-23 630 LINE",
"-23 513 LINE"
);
},
{
closed = 1;
nodes = (
"552 597 LINE",
"411 597 LINE",
"411 399 LINE",
"552 386 LINE"
);
}
);
};
layerId = "FA3D6E7D-1564-4EF0-9765-0D5E9243D6E7";
paths = (
{
closed = 1;
nodes = (
"555 21 OFFCURVE",
"589 30 OFFCURVE",
"648 64 CURVE",
"584 156 LINE",
"531 117 OFFCURVE",
"468 103 OFFCURVE",
"427 103 CURVE SMOOTH",
"400 103 OFFCURVE",
"386 116 OFFCURVE",
"386 138 CURVE SMOOTH",
"386 157 OFFCURVE",
"407 172 OFFCURVE",
"480 205 CURVE SMOOTH",
"541 233 OFFCURVE",
"615 266 OFFCURVE",
"615 314 CURVE SMOOTH",
"615 389 OFFCURVE",
"513 458 OFFCURVE",
"404 458 CURVE SMOOTH",
"353 458 OFFCURVE",
"302 443 OFFCURVE",
"265 415 CURVE",
"350 333 LINE",
"382 360 OFFCURVE",
"427 377 OFFCURVE",
"461 377 CURVE SMOOTH",
"488 377 OFFCURVE",
"499 367 OFFCURVE",
"499 346 CURVE SMOOTH",
"499 328 OFFCURVE",
"478 315 OFFCURVE",
"406 285 CURVE SMOOTH",
"345 260 OFFCURVE",
"271 229 OFFCURVE",
"271 181 CURVE SMOOTH",
"272 96 OFFCURVE",
"374 21 OFFCURVE",
"489 21 CURVE SMOOTH"
);
},
{
closed = 1;
nodes = (
"198 591 LINE",
"71 591 LINE",
"71 34 LINE",
"198 -32 LINE"
);
},
{
closed = 1;
nodes = (
"738 533 LINE",
"682 625 LINE",
"-64 625 LINE",
"-8 533 LINE"
);
},
{
closed = 1;
nodes = (
"504 591 LINE",
"378 591 LINE",
"378 416 LINE",
"504 403 LINE"
);
}
);
width = 674;
}
);
leftMetricsKey = Ga;
rightMetricsKey = Ga;
unicode = 1118B;
category = Letter;
},
{
color = 3;
glyphname = letterVocLL;
lastChange = "2023-01-15 20:22:05 +0000";
layers = (
{
anchors = (
{
name = Anchor14;
position = "{300, 0}";
},
{
name = Anchor17;
position = "{867, 710}";
},
{
name = Anchor18;
position = "{340, 710}";
},
{
name = Anchor20;
position = "{867, 710}";
},
{
name = Anchor21;
position = "{300, 0}";
}
);
background = {
paths = (
{
closed = 1;
nodes = (
"940 550 LINE",
"940 625 LINE",
"510 625 LINE",
"550 550 LINE"
);
},
{
closed = 1;
nodes = (
"830 328 OFFCURVE",
"867 370 OFFCURVE",
"867 449 CURVE SMOOTH",
"867 570 LINE",
"787 605 LINE",
"787 451 LINE SMOOTH",
"787 419 OFFCURVE",
"776 407 OFFCURVE",
"753 407 CURVE SMOOTH",
"731 407 OFFCURVE",
"708 423 OFFCURVE",
"673 469 CURVE SMOOTH",
"584 588 LINE",
"506 563 LINE",
"619 420 LINE SMOOTH",
"673 352 OFFCURVE",
"716 328 OFFCURVE",
"766 328 CURVE SMOOTH"
);
}
);
};
components = (
{
name = letterVocL;
}
);
layerId = UUID0;
paths = (
{
closed = 1;
nodes = (
"829 311 OFFCURVE",
"863 351 OFFCURVE",
"863 422 CURVE SMOOTH",
"863 570 LINE",
"778 605 LINE",
"778 462 LINE SMOOTH",
"778 409 OFFCURVE",
"765 388 OFFCURVE",
"735 388 CURVE SMOOTH",
"700 388 OFFCURVE",
"652 423 OFFCURVE",
"541 588 CURVE",
"497 563 LINE",
"635 365 OFFCURVE",
"709 311 OFFCURVE",
"776 311 CURVE SMOOTH"
);
},
{
closed = 1;
nodes = (
"951 550 LINE",
"911 625 LINE",
"506 625 LINE",
"546 550 LINE"
);
}
);
width = 927;
},
{
anchors = (
{
name = Anchor14;
position = "{410, 0}";
},
{
name = Anchor17;
position = "{840, 710}";
},
{
name = Anchor18;
position = "{450, 710}";
},
{
name = Anchor20;
position = "{840, 710}";
},
{
name = Anchor21;
position = "{410, 0}";
}
);
background = {
paths = (
{
closed = 1;
nodes = (
"1083 512 LINE",
"1083 630 LINE",
"525 630 LINE",
"602 512 LINE"
);
},
{
closed = 1;
nodes = (
"964 319 OFFCURVE",
"1019 368 OFFCURVE",
"1019 450 CURVE SMOOTH",
"1019 573 LINE",
"897 621 LINE",
"897 461 LINE SMOOTH",
"897 444 OFFCURVE",
"888 431 OFFCURVE",
"870 431 CURVE SMOOTH",
"852 431 OFFCURVE",
"837 443 OFFCURVE",
"801 483 CURVE SMOOTH",
"697 599 LINE",
"576 565 LINE",
"721 408 LINE SMOOTH",
"779 346 OFFCURVE",
"833 319 OFFCURVE",
"889 319 CURVE SMOOTH"
);
}
);
};
components = (
{
name = letterVocL;
}
);
layerId = "FA3D6E7D-1564-4EF0-9765-0D5E9243D6E7";
paths = (
{
closed = 1;
nodes = (
"919 301 OFFCURVE",
"961 346 OFFCURVE",
"961 418 CURVE SMOOTH",
"961 567 LINE",
"835 613 LINE",
"835 457 LINE SMOOTH",
"835 411 OFFCURVE",
"825 395 OFFCURVE",
"804 395 CURVE SMOOTH",
"768 395 OFFCURVE",
"703 454 OFFCURVE",
"597 595 CURVE",
"522 558 LINE",
"676 374 OFFCURVE",
"758 301 OFFCURVE",
"849 301 CURVE SMOOTH"
);
},
{
closed = 1;
nodes = (
"1065 533 LINE",
"1009 625 LINE",
"529 625 LINE",
"585 533 LINE"
);
}
);
width = 1001;
}
);
leftMetricsKey = Ga;
rightMetricsKey = Ga;
unicode = 1118C;
category = Letter;
},
{
color = 3;
glyphname = letterE;
lastChange = "2023-01-15 20:22:05 +0000";
layers = (
{
anchors = (
{
name = Anchor14;
position = "{341, 0}";
},
{
name = Anchor15;
position = "{371, 710}";
},
{
name = Anchor17;
position = "{591, 710}";
},
{
name = Anchor18;
position = "{321, 710}";
},
{
name = Anchor20;
position = "{591, 710}";
},
{
name = Anchor21;
position = "{341, 0}";
}
);
background = {
paths = (
{
closed = 1;
nodes = (
"163 590 LINE",
"78 590 LINE",
"78 0 LINE",
"163 0 LINE"
);
},
{
closed = 1;
nodes = (
"597 550 LINE",
"597 625 LINE",
"-5 625 LINE",
"-5 550 LINE"
);
},
{
closed = 1;
nodes = (
"490 228 OFFCURVE",
"536 273 OFFCURVE",
"536 363 CURVE SMOOTH",
"536 570 LINE",
"451 605 LINE",
"451 365 LINE SMOOTH",
"451 326 OFFCURVE",
"441 310 OFFCURVE",
"418 310 CURVE SMOOTH",
"396 310 OFFCURVE",
"374 329 OFFCURVE",
"338 378 CURVE SMOOTH",
"185 588 LINE",
"109 560 LINE",
"279 329 LINE SMOOTH",
"327 263 OFFCURVE",
"367 228 OFFCURVE",
"428 228 CURVE SMOOTH"
);
}
);
};
layerId = UUID0;
paths = (
{
closed = 1;
nodes = (
"496 169 OFFCURVE",
"532 207 OFFCURVE",
"532 265 CURVE SMOOTH",
"532 551 LINE",
"447 605 LINE",
"447 319 LINE SMOOTH",
"447 286 OFFCURVE",
"432 263 OFFCURVE",
"401 263 CURVE SMOOTH",
"358 263 OFFCURVE",
"286 355 OFFCURVE",
"130 580 CURVE",
"121 509 LINE",
"262 295 OFFCURVE",
"370 169 OFFCURVE",
"449 169 CURVE SMOOTH"
);
},
{
closed = 1;
nodes = (
"159 590 LINE",
"74 590 LINE",
"74 30 LINE",
"159 -20 LINE"
);
},
{
closed = 1;
nodes = (
"533 550 LINE",
"481 625 LINE",
"-24 625 LINE",
"16 550 LINE"
);
}
);
width = 509;
},
{
anchors = (
{
name = Anchor14;
position = "{364, 0}";
},
{
name = Anchor15;
position = "{394, 710}";
},
{
name = Anchor17;
position = "{614, 710}";
},
{
name = Anchor18;
position = "{344, 710}";
},
{
name = Anchor20;
position = "{614, 710}";
},
{
name = Anchor21;
position = "{364, 0}";
}
);
background = {
paths = (
{
closed = 1;
nodes = (
"231 597 LINE",
"86 597 LINE",
"86 0 LINE",
"231 0 LINE"
);
},
{
closed = 1;
nodes = (
"726 512 LINE",
"726 630 LINE",
"-8 630 LINE",
"-8 512 LINE"
);
},
{
closed = 1;
nodes = (
"599 209 OFFCURVE",
"657 268 OFFCURVE",
"657 360 CURVE SMOOTH",
"657 572 LINE",
"512 620 LINE",
"512 356 LINE SMOOTH",
"512 339 OFFCURVE",
"505 334 OFFCURVE",
"496 334 CURVE SMOOTH",
"481 334 OFFCURVE",
"462 348 OFFCURVE",
"425 390 CURVE SMOOTH",
"240 598 LINE",
"109 557 LINE",
"328 312 LINE SMOOTH",
"393 239 OFFCURVE",
"439 209 OFFCURVE",
"509 209 CURVE SMOOTH"
);
}
);
};
layerId = "FA3D6E7D-1564-4EF0-9765-0D5E9243D6E7";
paths = (
{
closed = 1;
nodes = (
"566 163 OFFCURVE",
"610 206 OFFCURVE",
"610 266 CURVE SMOOTH",
"610 533 LINE",
"484 618 LINE",
"484 318 LINE SMOOTH",
"484 289 OFFCURVE",
"471 274 OFFCURVE",
"450 274 CURVE SMOOTH",
"421 274 OFFCURVE",
"385 294 OFFCURVE",
"140 609 CURVE",
"125 501 LINE",
"353 219 OFFCURVE",
"421 163 OFFCURVE",
"502 163 CURVE SMOOTH"
);
},
{
closed = 1;
nodes = (
"200 591 LINE",
"73 591 LINE",
"73 34 LINE",
"200 -32 LINE"
);
},
{
closed = 1;
nodes = (
"610 533 LINE",
"548 625 LINE",
"-64 625 LINE",
"-8 533 LINE"
);
}
);
width = 546;
}
);
leftMetricsKey = Ga;
rightMetricsKey = Ga;
unicode = 1118D;
category = Letter;
},
{
color = 3;
glyphname = letterAI;
lastChange = "2023-01-15 20:22:05 +0000";
layers = (
{
anchors = (
{
name = Anchor14;
position = "{331, 0}";
},
{
name = Anchor17;
position = "{581, 865}";
},
{
name = Anchor18;
position = "{296, 840}";
},
{
name = Anchor20;
position = "{581, 865}";
},
{
name = Anchor21;
position = "{331, 0}";
}
);
background = {
paths = (
{
closed = 1;
nodes = (
"498 720 LINE",
"498 790 LINE",
"105 790 LINE",
"105 720 LINE"
);
}
);
};
components = (
{
name = letterE;
}
);
layerId = UUID0;
paths = (
{
closed = 1;
nodes = (
"464 720 LINE",
"416 790 LINE",
"23 790 LINE",
"71 720 LINE"
);
}
);
width = 509;
},
{
anchors = (
{
name = Anchor14;
position = "{310, 0}";
},
{
name = Anchor17;
position = "{560, 865}";
},
{
name = Anchor18;
position = "{275, 840}";
},
{
name = Anchor20;
position = "{560, 865}";
},
{
name = Anchor21;
position = "{310, 0}";
}
);
background = {
paths = (
{
closed = 1;
nodes = (
"606 677 LINE",
"606 791 LINE",
"75 791 LINE",
"75 677 LINE"
);
}
);
};
components = (
{
name = letterE;
}
);
layerId = "FA3D6E7D-1564-4EF0-9765-0D5E9243D6E7";
paths = (
{
closed = 1;
nodes = (
"530 700 LINE",
"462 788 LINE",
"-6 788 LINE",
"62 700 LINE"
);
}
);
width = 546;
}
);
leftMetricsKey = Ga;
rightMetricsKey = Ga;
unicode = 1118E;
category = Letter;
},
{
color = 3;
glyphname = letterO;
lastChange = "2023-01-15 20:22:05 +0000";
layers = (
{
anchors = (
{
name = Anchor14;
position = "{342, 0}";
},
{
name = Anchor15;
position = "{187, 710}";
},
{
name = Anchor17;
position = "{607, 710}";
},
{
name = Anchor18;
position = "{327, 710}";
},
{
name = Anchor20;
position = "{607, 710}";
},
{
name = Anchor21;
position = "{342, 0}";
}
);
background = {
paths = (
{
closed = 1;
nodes = (
"166 590 LINE",
"81 590 LINE",
"81 0 LINE",
"166 0 LINE"
);
},
{
closed = 1;
nodes = (
"638 550 LINE",
"637 625 LINE",
"-2 625 LINE",
"-2 550 LINE"
);
},
{
closed = 1;
nodes = (
"543 101 OFFCURVE",
"611 162 OFFCURVE",
"612 264 CURVE SMOOTH",
"613 356 OFFCURVE",
"542 414 OFFCURVE",
"437 414 CURVE SMOOTH",
"419 414 OFFCURVE",
"368 400 OFFCURVE",
"360 395 CURVE",
"402 371 LINE",
"485 428 OFFCURVE",
"551 494 OFFCURVE",
"605 560 CURVE",
"531 586 LINE",
"472 508 OFFCURVE",
"416 457 OFFCURVE",
"327 410 CURVE",
"357 339 LINE",
"383 345 OFFCURVE",
"407 349 OFFCURVE",
"435 348 CURVE SMOOTH",
"496 346 OFFCURVE",
"532 317 OFFCURVE",
"532 265 CURVE SMOOTH",
"532 210 OFFCURVE",
"501 178 OFFCURVE",
"440 178 CURVE SMOOTH",
"352 178 OFFCURVE",
"265 242 OFFCURVE",
"159 508 CURVE",
"97 472 LINE",
"211 184 OFFCURVE",
"321 101 OFFCURVE",
"439 101 CURVE SMOOTH"
);
}
);
};
layerId = UUID0;
paths = (
{
closed = 1;
nodes = (
"541 116 OFFCURVE",
"601 195 OFFCURVE",
"603 275 CURVE SMOOTH",
"605 351 OFFCURVE",
"516 414 OFFCURVE",
"437 416 CURVE",
"419 416 OFFCURVE",
"380 409 OFFCURVE",
"372 404 CURVE",
"416 381 LINE",
"503 438 OFFCURVE",
"550 497 OFFCURVE",
"583 550 CURVE",
"558 569 OFFCURVE",
"534 593 OFFCURVE",
"522 591 CURVE",
"467 506 OFFCURVE",
"420 470 OFFCURVE",
"338 425 CURVE",
"353 401 OFFCURVE",
"383 368 OFFCURVE",
"396 356 CURVE",
"420 362 OFFCURVE",
"437 366 OFFCURVE",
"460 366 CURVE SMOOTH",
"498 366 OFFCURVE",
"523 346 OFFCURVE",
"523 305 CURVE SMOOTH",
"523 247 OFFCURVE",
"485 194 OFFCURVE",
"420 194 CURVE SMOOTH",
"344 194 OFFCURVE",
"249 296 OFFCURVE",
"143 554 CURVE",
"114 515 LINE",
"210 267 OFFCURVE",
"329 116 OFFCURVE",
"454 116 CURVE SMOOTH"
);
},
{
closed = 1;
nodes = (
"159 590 LINE",
"74 590 LINE",
"74 30 LINE",
"159 -20 LINE"
);
},
{
closed = 1;
nodes = (
"583 550 LINE",
"531 625 LINE",
"-24 625 LINE",
"16 550 LINE"
);
}
);
width = 579;
},
{
anchors = (
{
name = Anchor14;
position = "{355, 0}";
},
{
name = Anchor15;
position = "{200, 710}";
},
{
name = Anchor17;
position = "{620, 710}";
},
{
name = Anchor18;
position = "{340, 710}";
},
{
name = Anchor20;
position = "{620, 710}";
},
{
name = Anchor21;
position = "{355, 0}";
}
);
background = {
paths = (
{
closed = 1;
nodes = (
"217 597 LINE",
"72 597 LINE",
"72 0 LINE",
"217 0 LINE"
);
},
{
closed = 1;
nodes = (
"755 512 LINE",
"754 630 LINE",
"-23 630 LINE",
"-23 512 LINE"
);
},
{
closed = 1;
nodes = (
"638 92 OFFCURVE",
"723 158 OFFCURVE",
"724 267 CURVE SMOOTH",
"725 362 OFFCURVE",
"646 422 OFFCURVE",
"502 422 CURVE",
"458 414 OFFCURVE",
"438 407 OFFCURVE",
"388 385 CURVE",
"463 343 LINE",
"566 401 OFFCURVE",
"659 471 OFFCURVE",
"737 557 CURVE",
"619 587 LINE",
"542 505 OFFCURVE",
"473 464 OFFCURVE",
"360 418 CURVE",
"412 320 LINE",
"451 327 OFFCURVE",
"468 329 OFFCURVE",
"498 328 CURVE SMOOTH",
"558 326 OFFCURVE",
"588 303 OFFCURVE",
"588 270 CURVE SMOOTH",
"588 234 OFFCURVE",
"561 210 OFFCURVE",
"505 210 CURVE SMOOTH",
"385 210 OFFCURVE",
"299 295 OFFCURVE",
"193 528 CURVE",
"88 473 LINE",
"211 209 OFFCURVE",
"334 92 OFFCURVE",
"504 92 CURVE SMOOTH"
);
}
);
};
layerId = "FA3D6E7D-1564-4EF0-9765-0D5E9243D6E7";
paths = (
{
closed = 1;
nodes = (
"583 112 OFFCURVE",
"657 185 OFFCURVE",
"659 275 CURVE SMOOTH",
"661 352 OFFCURVE",
"572 416 OFFCURVE",
"466 418 CURVE SMOOTH",
"443 418 OFFCURVE",
"395 409 OFFCURVE",
"386 404 CURVE",
"387 387 LINE",
"444 366 LINE",
"549 425 OFFCURVE",
"607 482 OFFCURVE",
"645 533 CURVE",
"607 550 LINE",
"601 554 OFFCURVE",
"576 574 OFFCURVE",
"556 588 CURVE",
"500 512 OFFCURVE",
"444 471 OFFCURVE",
"347 425 CURVE",
"343 416 LINE",
"359 396 OFFCURVE",
"393 361 OFFCURVE",
"415 343 CURVE",
"446 353 OFFCURVE",
"466 358 OFFCURVE",
"491 358 CURVE SMOOTH",
"524 358 OFFCURVE",
"544 340 OFFCURVE",
"544 305 CURVE SMOOTH",
"544 248 OFFCURVE",
"504 206 OFFCURVE",
"447 206 CURVE SMOOTH",
"375 206 OFFCURVE",
"280 282 OFFCURVE",
"147 573 CURVE",
"102 509 LINE",
"249 209 OFFCURVE",
"356 112 OFFCURVE",
"485 112 CURVE SMOOTH"
);
},
{
closed = 1;
nodes = (
"177 591 LINE",
"50 591 LINE",
"50 34 LINE",
"177 -32 LINE"
);
},
{
closed = 1;
nodes = (
"645 533 LINE",
"580 625 LINE",
"-64 625 LINE",
"-9 533 LINE"
);
}
);
width = 595;
}
);
leftMetricsKey = Ga;
rightMetricsKey = Ga;
unicode = 1118F;
category = Letter;
},
{
color = 3;
glyphname = letterAU;
lastChange = "2023-01-15 20:22:05 +0000";
layers = (
{
anchors = (
{
name = Anchor14;
position = "{355, 0}";
},
{
name = Anchor17;
position = "{785, 710}";
},
{
name = Anchor18;
position = "{405, 710}";
},
{
name = Anchor20;
position = "{785, 710}";
},
{
name = Anchor21;
position = "{355, 0}";
}
);
background = {
paths = (
{
closed = 1;
nodes = (
"953 550 LINE",
"953 625 LINE",
"526 625 LINE",
"566 550 LINE"
);
},
{
closed = 1;
nodes = (
"832 345 OFFCURVE",
"866 385 OFFCURVE",
"866 459 CURVE SMOOTH",
"866 572 LINE",
"792 605 LINE",
"792 461 LINE SMOOTH",
"792 430 OFFCURVE",
"782 419 OFFCURVE",
"761 419 CURVE SMOOTH",
"740 419 OFFCURVE",
"719 434 OFFCURVE",
"687 477 CURVE SMOOTH",
"604 589 LINE",
"530 566 LINE",
"633 431 LINE SMOOTH",
"682 367 OFFCURVE",
"723 345 OFFCURVE",
"773 345 CURVE SMOOTH"
);
}
);
};
components = (
{
name = letterO;
}
);
layerId = UUID0;
paths = (
{
closed = 1;
nodes = (
"845 311 OFFCURVE",
"879 351 OFFCURVE",
"879 422 CURVE SMOOTH",
"879 570 LINE",
"794 605 LINE",
"794 462 LINE SMOOTH",
"794 409 OFFCURVE",
"781 388 OFFCURVE",
"751 388 CURVE SMOOTH",
"716 388 OFFCURVE",
"668 423 OFFCURVE",
"557 588 CURVE",
"513 563 LINE",
"651 365 OFFCURVE",
"725 311 OFFCURVE",
"792 311 CURVE SMOOTH"
);
},
{
closed = 1;
nodes = (
"967 550 LINE",
"927 625 LINE",
"522 625 LINE",
"562 550 LINE"
);
}
);
width = 943;
},
{
anchors = (
{
name = Anchor14;
position = "{355, 0}";
},
{
name = Anchor17;
position = "{785, 710}";
},
{
name = Anchor18;
position = "{405, 710}";
},
{
name = Anchor20;
position = "{785, 710}";
},
{
name = Anchor21;
position = "{355, 0}";
}
);
background = {
paths = (
{
closed = 1;
nodes = (
"1101 512 LINE",
"1101 630 LINE",
"543 630 LINE",
"620 512 LINE"
);
},
{
closed = 1;
nodes = (
"982 319 OFFCURVE",
"1037 368 OFFCURVE",
"1037 450 CURVE SMOOTH",
"1037 573 LINE",
"915 621 LINE",
"915 461 LINE SMOOTH",
"915 444 OFFCURVE",
"906 431 OFFCURVE",
"888 431 CURVE SMOOTH",
"870 431 OFFCURVE",
"855 443 OFFCURVE",
"819 483 CURVE SMOOTH",
"715 599 LINE",
"594 565 LINE",
"739 408 LINE SMOOTH",
"797 346 OFFCURVE",
"851 319 OFFCURVE",
"907 319 CURVE SMOOTH"
);
}
);
};
components = (
{
name = letterO;
}
);
layerId = "FA3D6E7D-1564-4EF0-9765-0D5E9243D6E7";
paths = (
{
closed = 1;
nodes = (
"936 301 OFFCURVE",
"978 346 OFFCURVE",
"978 418 CURVE SMOOTH",
"978 567 LINE",
"852 613 LINE",
"852 457 LINE SMOOTH",
"852 411 OFFCURVE",
"841 395 OFFCURVE",
"821 395 CURVE SMOOTH",
"791 395 OFFCURVE",
"747 425 OFFCURVE",
"613 595 CURVE",
"539 558 LINE",
"714 350 OFFCURVE",
"785 301 OFFCURVE",
"866 301 CURVE SMOOTH"
);
},
{
closed = 1;
nodes = (
"1081 533 LINE",
"1026 625 LINE",
"546 625 LINE",
"601 533 LINE"
);
}
);
width = 1017;
}
);
leftMetricsKey = Ga;
rightMetricsKey = Ga;
unicode = 11190;
category = Letter;
},
{
color = 3;
glyphname = Ka;
lastChange = "2023-01-15 20:22:05 +0000";
layers = (
{
anchors = (
{
name = Anchor14;
position = "{337, 0}";
},
{
name = Anchor15;
position = "{341, 710}";
},
{
name = Anchor16;
position = "{383, 0}";
},
{
name = Anchor17;
position = "{647, 710}";
},
{
name = Anchor18;
position = "{332, 710}";
},
{
name = Anchor19;
position = "{383, 0}";
},
{
name = Anchor20;
position = "{647, 710}";
},
{
name = Anchor21;
position = "{337, 0}";
}
);
background = {
paths = (
{
closed = 1;
nodes = (
"383 590 LINE",
"298 590 LINE",
"298 0 LINE",
"383 0 LINE"
);
},
{
closed = 1;
nodes = (
"670 550 LINE",
"670 625 LINE",
"-6 625 LINE",
"-6 550 LINE"
);
},
{
closed = 1;
nodes = (
"265 154 OFFCURVE",
"316 170 OFFCURVE",
"346 190 CURVE",
"346 267 LINE",
"293 235 OFFCURVE",
"257 225 OFFCURVE",
"215 225 CURVE SMOOTH",
"152 225 OFFCURVE",
"126 259 OFFCURVE",
"126 306 CURVE SMOOTH",
"126 353 OFFCURVE",
"152 390 OFFCURVE",
"217 390 CURVE SMOOTH",
"250 390 OFFCURVE",
"280 382 OFFCURVE",
"312 368 CURVE",
"312 440 LINE",
"283 452 OFFCURVE",
"245 460 OFFCURVE",
"209 460 CURVE SMOOTH",
"105 460 OFFCURVE",
"45 395 OFFCURVE",
"45 309 CURVE SMOOTH",
"45 228 OFFCURVE",
"103 154 OFFCURVE",
"217 154 CURVE SMOOTH"
);
},
{
closed = 1;
nodes = (
"416 461 OFFCURVE",
"365 445 OFFCURVE",
"335 425 CURVE",
"335 348 LINE",
"388 380 OFFCURVE",
"424 390 OFFCURVE",
"466 390 CURVE SMOOTH",
"528 390 OFFCURVE",
"555 354 OFFCURVE",
"555 309 CURVE SMOOTH",
"555 264 OFFCURVE",
"528 225 OFFCURVE",
"464 225 CURVE SMOOTH",
"431 225 OFFCURVE",
"401 233 OFFCURVE",
"369 247 CURVE",
"369 176 LINE",
"398 163 OFFCURVE",
"436 154 OFFCURVE",
"472 154 CURVE SMOOTH",
"577 154 OFFCURVE",
"634 220 OFFCURVE",
"634 306 CURVE SMOOTH",
"634 386 OFFCURVE",
"578 461 OFFCURVE",
"464 461 CURVE SMOOTH"
);
}
);
};
layerId = UUID0;
paths = (
{
closed = 1;
nodes = (
"301 140 OFFCURVE",
"330 145 OFFCURVE",
"360 154 CURVE",
"352 244 LINE",
"312 228 OFFCURVE",
"272 217 OFFCURVE",
"220 217 CURVE SMOOTH",
"146 217 OFFCURVE",
"110 249 OFFCURVE",
"111 281 CURVE SMOOTH",
"112 314 OFFCURVE",
"170 365 OFFCURVE",
"309 391 CURVE",
"305 482 LINE",
"127 452 OFFCURVE",
"28 374 OFFCURVE",
"28 319 CURVE SMOOTH",
"28 259 OFFCURVE",
"149 140 OFFCURVE",
"268 140 CURVE SMOOTH"
);
},
{
closed = 1;
nodes = (
"383 590 LINE",
"298 590 LINE",
"298 30 LINE",
"383 -20 LINE"
);
},
{
closed = 1;
nodes = (
"566 147 OFFCURVE",
"631 200 OFFCURVE",
"631 255 CURVE SMOOTH",
"631 317 OFFCURVE",
"544 419 OFFCURVE",
"374 479 CURVE",
"370 399 LINE",
"505 378 OFFCURVE",
"551 321 OFFCURVE",
"551 286 CURVE SMOOTH",
"551 253 OFFCURVE",
"508 212 OFFCURVE",
"440 212 CURVE SMOOTH",
"401 212 OFFCURVE",
"352 230 OFFCURVE",
"317 248 CURVE",
"309 205 LINE",
"381 166 OFFCURVE",
"443 147 OFFCURVE",
"491 147 CURVE SMOOTH"
);
},
{
closed = 1;
nodes = (
"688 550 LINE",
"648 625 LINE",
"-24 625 LINE",
"16 550 LINE"
);
}
);
width = 664;
},
{
anchors = (
{
name = Anchor14;
position = "{356, 0}";
},
{
name = Anchor15;
position = "{360, 710}";
},
{
name = Anchor16;
position = "{424, 0}";
},
{
name = Anchor17;
position = "{666, 710}";
},
{
name = Anchor18;
position = "{351, 710}";
},
{
name = Anchor19;
position = "{424, 0}";
},
{
name = Anchor20;
position = "{666, 710}";
},
{
name = Anchor21;
position = "{356, 0}";
}
);
background = {
paths = (
{
closed = 1;
nodes = (
"424 597 LINE",
"279 597 LINE",
"279 0 LINE",
"424 0 LINE"
);
},
{
closed = 1;
nodes = (
"751 512 LINE",
"751 630 LINE",
"-67 630 LINE",
"-67 512 LINE"
);
},
{
closed = 1;
nodes = (
"271 126 OFFCURVE",
"343 145 OFFCURVE",
"382 170 CURVE",
"382 296 LINE",
"308 255 OFFCURVE",
"261 236 OFFCURVE",
"206 236 CURVE SMOOTH",
"153 236 OFFCURVE",
"128 258 OFFCURVE",
"128 292 CURVE SMOOTH",
"128 328 OFFCURVE",
"154 351 OFFCURVE",
"208 351 CURVE SMOOTH",
"251 351 OFFCURVE",
"293 337 OFFCURVE",
"343 315 CURVE",
"343 430 LINE",
"306 447 OFFCURVE",
"246 461 OFFCURVE",
"196 461 CURVE SMOOTH",
"65 461 OFFCURVE",
"-9 394 OFFCURVE",
"-9 295 CURVE SMOOTH",
"-9 195 OFFCURVE",
"71 126 OFFCURVE",
"211 126 CURVE SMOOTH"
);
},
{
closed = 1;
nodes = (
"436 462 OFFCURVE",
"360 439 OFFCURVE",
"321 413 CURVE",
"321 292 LINE",
"396 333 OFFCURVE",
"440 351 OFFCURVE",
"497 351 CURVE SMOOTH",
"548 351 OFFCURVE",
"574 328 OFFCURVE",
"574 295 CURVE SMOOTH",
"574 261 OFFCURVE",
"546 236 OFFCURVE",
"494 236 CURVE SMOOTH",
"456 236 OFFCURVE",
"415 249 OFFCURVE",
"360 272 CURVE",
"360 156 LINE",
"399 139 OFFCURVE",
"454 126 OFFCURVE",
"502 126 CURVE SMOOTH",
"636 126 OFFCURVE",
"710 192 OFFCURVE",
"710 292 CURVE SMOOTH",
"710 393 OFFCURVE",
"631 462 OFFCURVE",
"496 462 CURVE SMOOTH"
);
}
);
};
layerId = "FA3D6E7D-1564-4EF0-9765-0D5E9243D6E7";
paths = (
{
closed = 1;
nodes = (
"320 135 OFFCURVE",
"358 140 OFFCURVE",
"399 152 CURVE",
"388 262 LINE",
"334 242 OFFCURVE",
"290 229 OFFCURVE",
"228 229 CURVE SMOOTH",
"164 229 OFFCURVE",
"123 250 OFFCURVE",
"124 281 CURVE SMOOTH",
"126 319 OFFCURVE",
"217 362 OFFCURVE",
"343 381 CURVE",
"337 489 LINE",
"150 465 OFFCURVE",
"0 388 OFFCURVE",
"0 318 CURVE SMOOTH",
"0 257 OFFCURVE",
"141 135 OFFCURVE",
"281 135 CURVE SMOOTH"
);
},
{
closed = 1;
nodes = (
"424 591 LINE",
"297 591 LINE",
"297 34 LINE",
"424 -32 LINE"
);
},
{
closed = 1;
nodes = (
"615 142 OFFCURVE",
"696 196 OFFCURVE",
"696 256 CURVE SMOOTH",
"696 336 OFFCURVE",
"559 439 OFFCURVE",
"382 489 CURVE",
"376 388 LINE",
"494 375 OFFCURVE",
"575 331 OFFCURVE",
"575 286 CURVE SMOOTH",
"575 254 OFFCURVE",
"527 224 OFFCURVE",
"470 224 CURVE SMOOTH",
"432 224 OFFCURVE",
"376 240 OFFCURVE",
"322 268 CURVE",
"308 204 LINE",
"390 163 OFFCURVE",
"466 142 OFFCURVE",
"526 142 CURVE SMOOTH"
);
},
{
closed = 1;
nodes = (
"766 533 LINE",
"710 625 LINE",
"-64 625 LINE",
"-8 533 LINE"
);
}
);
width = 702;
},
{
anchors = (
{
name = Anchor14;
position = "{350, 0}";
},
{
name = Anchor15;
position = "{354, 710}";
},
{
name = Anchor16;
position = "{396, 0}";
},
{
name = Anchor17;
position = "{660, 710}";
},
{
name = Anchor18;
position = "{345, 710}";
},
{
name = Anchor19;
position = "{396, 0}";
},
{
name = Anchor20;
position = "{660, 710}";
},
{
name = Anchor21;
position = "{350, 0}";
}
);
associatedMasterId = UUID0;
layerId = "DD0FB831-587A-4D7F-A394-863E811E0A9E";
name = "Jan 13 23, 18:48";
paths = (
{
closed = 1;
nodes = (
"396 0 LINE",
"396 145 LINE",
"429 123 OFFCURVE",
"470 109 OFFCURVE",
"512 109 CURVE SMOOTH",
"609 109 OFFCURVE",
"677 189 OFFCURVE",
"677 289 CURVE SMOOTH",
"677 400 OFFCURVE",
"593 465 OFFCURVE",
"512 465 CURVE SMOOTH",
"464 465 OFFCURVE",
"424 448 OFFCURVE",
"396 413 CURVE",
"396 550 LINE",
"637 550 LINE",
"637 625 LINE",
"62 625 LINE",
"62 550 LINE",
"311 550 LINE",
"311 428 LINE",
"277 450 OFFCURVE",
"236 465 OFFCURVE",
"195 465 CURVE SMOOTH",
"102 465 OFFCURVE",
"30 389 OFFCURVE",
"30 280 CURVE SMOOTH",
"30 174 OFFCURVE",
"114 109 OFFCURVE",
"195 109 CURVE SMOOTH",
"243 109 OFFCURVE",
"282 124 OFFCURVE",
"311 161 CURVE",
"311 0 LINE"
);
},
{
closed = 1;
nodes = (
"159 184 OFFCURVE",
"115 215 OFFCURVE",
"115 285 CURVE SMOOTH",
"115 351 OFFCURVE",
"154 390 OFFCURVE",
"203 390 CURVE SMOOTH",
"243 390 OFFCURVE",
"276 372 OFFCURVE",
"311 349 CURVE",
"311 274 LINE",
"286 217 OFFCURVE",
"253 184 OFFCURVE",
"208 184 CURVE SMOOTH"
);
},
{
closed = 1;
nodes = (
"464 184 OFFCURVE",
"430 201 OFFCURVE",
"396 225 CURVE",
"396 299 LINE",
"420 357 OFFCURVE",
"454 390 OFFCURVE",
"501 390 CURVE SMOOTH",
"551 390 OFFCURVE",
"592 360 OFFCURVE",
"592 285 CURVE SMOOTH",
"592 219 OFFCURVE",
"553 184 OFFCURVE",
"504 184 CURVE SMOOTH"
);
}
);
width = 707;
}
);
leftMetricsKey = Ga;
rightMetricsKey = Ga;
unicode = 11191;
category = Letter;
},
{
color = 3;
glyphname = Kha;
lastChange = "2023-01-15 20:14:03 +0000";
layers = (
{
anchors = (
{
name = Anchor14;
position = "{348, 0}";
},
{
name = Anchor15;
position = "{343, 710}";
},
{
name = Anchor16;
position = "{630, 0}";
},
{
name = Anchor17;
position = "{678, 710}";
},
{
name = Anchor18;
position = "{343, 710}";
},
{
name = Anchor19;
position = "{630, 0}";
},
{
name = Anchor20;
position = "{678, 710}";
},
{
name = Anchor21;
position = "{348, 0}";
}
);
background = {
paths = (
{
closed = 1;
nodes = (
"511 169 OFFCURVE",
"558 186 OFFCURVE",
"600 213 CURVE",
"583 289 LINE",
"540 258 OFFCURVE",
"499 244 OFFCURVE",
"455 244 CURVE SMOOTH",
"401 244 OFFCURVE",
"375 270 OFFCURVE",
"375 331 CURVE SMOOTH",
"375 428 LINE",
"290 436 LINE",
"290 346 LINE SMOOTH",
"290 229 OFFCURVE",
"360 169 OFFCURVE",
"455 169 CURVE SMOOTH"
);
},
{
closed = 1;
nodes = (
"175 590 LINE",
"90 590 LINE",
"90 0 LINE",
"175 0 LINE"
);
},
{
closed = 1;
nodes = (
"375 590 LINE",
"290 590 LINE",
"290 400 LINE",
"375 388 LINE"
);
},
{
closed = 1;
nodes = (
"631 590 LINE",
"546 590 LINE",
"546 0 LINE",
"631 0 LINE"
);
},
{
closed = 1;
nodes = (
"718 550 LINE",
"718 625 LINE",
"-8 625 LINE",
"-8 550 LINE"
);
}
);
};
layerId = UUID0;
paths = (
{
closed = 1;
nodes = (
"531 158 OFFCURVE",
"570 187 OFFCURVE",
"599 214 CURVE",
"582 302 LINE",
"524 253 OFFCURVE",
"482 233 OFFCURVE",
"434 233 CURVE SMOOTH",
"394 233 OFFCURVE",
"374 259 OFFCURVE",
"374 315 CURVE SMOOTH",
"374 398 LINE",
"289 436 LINE",
"289 386 LINE",
"289 244 OFFCURVE",
"399 158 OFFCURVE",
"474 158 CURVE SMOOTH"
);
},
{
closed = 1;
nodes = (
"174 590 LINE",
"89 590 LINE",
"89 30 LINE",
"174 -20 LINE"
);
},
{
closed = 1;
nodes = (
"374 590 LINE",
"289 590 LINE",
"289 400 LINE",
"374 358 LINE"
);
},
{
closed = 1;
nodes = (
"630 590 LINE",
"545 590 LINE",
"545 30 LINE",
"630 -20 LINE"
);
},
{
closed = 1;
nodes = (
"732 550 LINE",
"692 625 LINE",
"-24 625 LINE",
"16 550 LINE"
);
}
);
width = 708;
},
{
anchors = (
{
name = Anchor14;
position = "{378, 0}";
},
{
name = Anchor15;
position = "{373, 710}";
},
{
name = Anchor16;
position = "{712, 0}";
},
{
name = Anchor17;
position = "{708, 710}";
},
{
name = Anchor18;
position = "{373, 710}";
},
{
name = Anchor19;
position = "{712, 0}";
},
{
name = Anchor20;
position = "{708, 710}";
},
{
name = Anchor21;
position = "{378, 0}";
}
);
background = {
paths = (
{
closed = 1;
nodes = (
"555 154 OFFCURVE",
"618 171 OFFCURVE",
"680 207 CURVE",
"648 328 LINE",
"592 289 OFFCURVE",
"543 272 OFFCURVE",
"487 272 CURVE SMOOTH",
"437 272 OFFCURVE",
"420 288 OFFCURVE",
"420 330 CURVE SMOOTH",
"420 443 LINE",
"275 455 LINE",
"275 344 LINE SMOOTH",
"275 228 OFFCURVE",
"358 154 OFFCURVE",
"487 154 CURVE SMOOTH"
);
},
{
closed = 1;
nodes = (
"172 597 LINE",
"27 597 LINE",
"27 0 LINE",
"172 0 LINE"
);
},
{
closed = 1;
nodes = (
"420 597 LINE",
"275 597 LINE",
"275 374 LINE",
"420 356 LINE"
);
},
{
closed = 1;
nodes = (
"712 597 LINE",
"567 597 LINE",
"567 0 LINE",
"712 0 LINE"
);
},
{
closed = 1;
nodes = (
"811 512 LINE",
"811 630 LINE",
"-85 630 LINE",
"-85 512 LINE"
);
}
);
};
layerId = "FA3D6E7D-1564-4EF0-9765-0D5E9243D6E7";
paths = (
{
closed = 1;
nodes = (
"598 152 OFFCURVE",
"649 189 OFFCURVE",
"679 214 CURVE",
"654 326 LINE",
"578 266 OFFCURVE",
"533 245 OFFCURVE",
"480 245 CURVE SMOOTH",
"447 245 OFFCURVE",
"430 266 OFFCURVE",
"430 314 CURVE SMOOTH",
"430 400 LINE",
"304 450 LINE",
"304 383 LINE SMOOTH",
"304 263 OFFCURVE",
"410 152 OFFCURVE",
"524 152 CURVE SMOOTH"
);
},
{
closed = 1;
nodes = (
"211 591 LINE",
"84 591 LINE",
"84 34 LINE",
"211 -32 LINE"
);
},
{
closed = 1;
nodes = (
"430 591 LINE",
"304 591 LINE",
"304 392 LINE",
"430 337 LINE"
);
},
{
closed = 1;
nodes = (
"712 591 LINE",
"586 591 LINE",
"586 34 LINE",
"712 -32 LINE"
);
},
{
closed = 1;
nodes = (
"834 533 LINE",
"778 625 LINE",
"-64 625 LINE",
"-8 533 LINE"
);
}
);
width = 770;
}
);
leftMetricsKey = Ga;
rightMetricsKey = Ga;
unicode = 11192;
category = Letter;
},
{
color = 3;
glyphname = Ga;
lastChange = "2023-01-15 20:13:31 +0000";
layers = (
{
anchors = (
{
name = Anchor14;
position = "{323, 0}";
},
{
name = Anchor15;
position = "{318, 710}";
},
{
name = Anchor16;
position = "{521, 0}";
},
{
name = Anchor17;
position = "{583, 710}";
},
{
name = Anchor18;
position = "{323, 710}";
},
{
name = Anchor19;
position = "{521, 0}";
},
{
name = Anchor20;
position = "{583, 710}";
},
{
name = Anchor21;
position = "{323, 0}";
}
);
background = {
paths = (
{
closed = 1;
nodes = (
"264 590 LINE",
"179 590 LINE",
"179 352 LINE",
"56 352 LINE",
"56 324 LINE",
"237 137 LINE",
"264 137 LINE"
);
},
{
closed = 1;
nodes = (
"521 590 LINE",
"436 590 LINE",
"436 0 LINE",
"521 0 LINE"
);
},
{
closed = 1;
nodes = (
"611 550 LINE",
"611 625 LINE",
"-6 625 LINE",
"-6 550 LINE"
);
}
);
};
layerId = UUID0;
paths = (
{
closed = 1;
nodes = (
"264 590 LINE",
"179 590 LINE",
"179 352 LINE",
"131 352 OFFCURVE",
"95 352 OFFCURVE",
"55 352 CURVE",
"51 346 OFFCURVE",
"48 338 OFFCURVE",
"46 330 CURVE",
"98 269 OFFCURVE",
"194 172 OFFCURVE",
"242 130 CURVE",
"249 128 OFFCURVE",
"256 127 OFFCURVE",
"264 127 CURVE"
);
},
{
closed = 1;
nodes = (
"521 590 LINE",
"436 590 LINE",
"436 30 LINE",
"521 -20 LINE"
);
},
{
closed = 1;
nodes = (
"629 550 LINE",
"589 625 LINE",
"-24 625 LINE",
"16 550 LINE"
);
}
);
width = 605;
},
{
anchors = (
{
name = Anchor14;
position = "{355, 0}";
},
{
name = Anchor15;
position = "{350, 710}";
},
{
name = Anchor16;
position = "{576, 0}";
},
{
name = Anchor17;
position = "{615, 710}";
},
{
name = Anchor18;
position = "{355, 710}";
},
{
name = Anchor19;
position = "{576, 0}";
},
{
name = Anchor20;
position = "{615, 710}";
},
{
name = Anchor21;
position = "{355, 0}";
}
);
background = {
paths = (
{
closed = 1;
nodes = (
"283 597 LINE",
"138 597 LINE",
"138 374 LINE",
"-3 374 LINE",
"-3 299 LINE",
"187 124 LINE",
"283 124 LINE"
);
},
{
closed = 1;
nodes = (
"576 597 LINE",
"431 597 LINE",
"431 0 LINE",
"576 0 LINE"
);
},
{
closed = 1;
nodes = (
"678 512 LINE",
"678 630 LINE",
"-73 630 LINE",
"-73 512 LINE"
);
}
);
};
layerId = "FA3D6E7D-1564-4EF0-9765-0D5E9243D6E7";
paths = (
{
closed = 1;
nodes = (
"293 591 LINE",
"166 591 LINE",
"166 360 LINE",
"121 360 OFFCURVE",
"86 360 OFFCURVE",
"46 360 CURVE",
"36 360 LINE",
"28 352 OFFCURVE",
"20 335 OFFCURVE",
"19 327 CURVE",
"71 273 OFFCURVE",
"183 171 OFFCURVE",
"241 127 CURVE",
"260 123 OFFCURVE",
"277 122 OFFCURVE",
"293 123 CURVE"
);
},
{
closed = 1;
nodes = (
"575 591 LINE",
"449 591 LINE",
"449 34 LINE",
"575 -32 LINE"
);
},
{
closed = 1;
nodes = (
"701 533 LINE",
"645 625 LINE",
"-64 625 LINE",
"-8 533 LINE"
);
}
);
width = 637;
}
);
unicode = 11193;
category = Letter;
},
{
color = 3;
glyphname = Gha;
lastChange = "2023-01-15 20:22:05 +0000";
layers = (
{
anchors = (
{
name = Anchor14;
position = "{330, 0}";
},
{
name = Anchor16;
position = "{653, 0}";
},
{
name = Anchor17;
position = "{675, 710}";
},
{
name = Anchor18;
position = "{350, 710}";
},
{
name = Anchor19;
position = "{653, 0}";
},
{
name = Anchor20;
position = "{675, 710}";
},
{
name = Anchor21;
position = "{330, 0}";
}
);
background = {
paths = (
{
closed = 1;
nodes = (
"330 245 OFFCURVE",
"383 292 OFFCURVE",
"397 367 CURVE",
"334 430 LINE",
"334 364 OFFCURVE",
"303 324 OFFCURVE",
"256 324 CURVE SMOOTH",
"215 324 OFFCURVE",
"186 349 OFFCURVE",
"186 423 CURVE SMOOTH",
"186 483 OFFCURVE",
"186 514 OFFCURVE",
"186 578 CURVE SMOOTH",
"186 625 LINE",
"-6 625 LINE",
"-6 550 LINE",
"101 550 LINE",
"101 519 OFFCURVE",
"101 461 OFFCURVE",
"101 422 CURVE SMOOTH",
"101 308 OFFCURVE",
"161 245 OFFCURVE",
"255 245 CURVE SMOOTH"
);
},
{
closed = 1;
nodes = (
"551 245 OFFCURVE",
"587 270 OFFCURVE",
"616 317 CURVE",
"568 411 LINE",
"568 361 OFFCURVE",
"542 324 OFFCURVE",
"491 324 CURVE SMOOTH",
"447 324 OFFCURVE",
"419 359 OFFCURVE",
"419 422 CURVE SMOOTH",
"419 467 LINE",
"334 505 LINE",
"334 414 LINE SMOOTH",
"334 398 OFFCURVE",
"355 382 OFFCURVE",
"358 368 CURVE",
"373 284 OFFCURVE",
"428 245 OFFCURVE",
"494 245 CURVE SMOOTH"
);
},
{
closed = 1;
nodes = (
"419 582 LINE",
"334 582 LINE",
"334 462 LINE",
"419 440 LINE"
);
},
{
closed = 1;
nodes = (
"653 590 LINE",
"568 625 LINE",
"568 0 LINE",
"653 0 LINE"
);
},
{
closed = 1;
nodes = (
"741 550 LINE",
"741 625 LINE",
"568 625 LINE",
"608 550 LINE"
);
}
);
};
layerId = UUID0;
paths = (
{
closed = 1;
nodes = (
"316 251 OFFCURVE",
"364 290 OFFCURVE",
"384 327 CURVE",
"329 418 LINE",
"329 365 OFFCURVE",
"272 321 OFFCURVE",
"234 321 CURVE SMOOTH",
"205 321 OFFCURVE",
"186 343 OFFCURVE",
"186 392 CURVE SMOOTH",
"186 444 LINE SMOOTH",
"186 484 OFFCURVE",
"172 519 OFFCURVE",
"132 578 CURVE SMOOTH",
"100 625 LINE",
"-24 625 LINE",
"16 550 LINE",
"90 550 LINE",
"98 528 OFFCURVE",
"101 503 OFFCURVE",
"101 471 CURVE SMOOTH",
"101 420 LINE SMOOTH",
"101 334 OFFCURVE",
"206 251 OFFCURVE",
"275 251 CURVE SMOOTH"
);
},
{
closed = 1;
nodes = (
"552 242 OFFCURVE",
"588 267 OFFCURVE",
"616 309 CURVE",
"568 400 LINE",
"568 351 OFFCURVE",
"507 317 OFFCURVE",
"463 317 CURVE SMOOTH",
"436 317 OFFCURVE",
"414 338 OFFCURVE",
"414 391 CURVE SMOOTH",
"414 464 LINE",
"329 502 LINE",
"329 402 LINE",
"329 331 OFFCURVE",
"429 242 OFFCURVE",
"510 242 CURVE SMOOTH"
);
},
{
closed = 1;
nodes = (
"414 562 LINE",
"329 595 LINE",
"329 459 LINE",
"414 407 LINE"
);
},
{
closed = 1;
nodes = (
"653 590 LINE",
"568 625 LINE",
"568 30 LINE",
"653 -20 LINE"
);
},
{
closed = 1;
nodes = (
"759 550 LINE",
"719 625 LINE",
"568 625 LINE",
"608 550 LINE"
);
}
);
width = 735;
},
{
anchors = (
{
name = Anchor14;
position = "{363, 0}";
},
{
name = Anchor16;
position = "{720, 0}";
},
{
name = Anchor17;
position = "{708, 710}";
},
{
name = Anchor18;
position = "{383, 710}";
},
{
name = Anchor19;
position = "{720, 0}";
},
{
name = Anchor20;
position = "{708, 710}";
},
{
name = Anchor21;
position = "{363, 0}";
}
);
background = {
paths = (
{
closed = 1;
nodes = (
"342 225 OFFCURVE",
"412 289 OFFCURVE",
"425 374 CURVE",
"308 445 LINE",
"308 368 OFFCURVE",
"284 347 OFFCURVE",
"243 347 CURVE SMOOTH",
"207 347 OFFCURVE",
"188 367 OFFCURVE",
"188 416 CURVE SMOOTH",
"188 472 OFFCURVE",
"188 501 OFFCURVE",
"188 562 CURVE SMOOTH",
"188 630 LINE",
"-79 630 LINE",
"-79 512 LINE",
"43 512 LINE",
"43 482 OFFCURVE",
"43 443 OFFCURVE",
"43 415 CURVE SMOOTH",
"43 297 OFFCURVE",
"117 225 OFFCURVE",
"240 225 CURVE SMOOTH"
);
},
{
closed = 1;
nodes = (
"579 225 OFFCURVE",
"642 254 OFFCURVE",
"683 316 CURVE",
"619 418 LINE",
"575 405 LINE",
"575 368 OFFCURVE",
"552 347 OFFCURVE",
"511 347 CURVE SMOOTH",
"475 347 OFFCURVE",
"453 370 OFFCURVE",
"453 415 CURVE SMOOTH",
"453 475 LINE",
"308 527 LINE",
"308 408 LINE SMOOTH",
"308 394 OFFCURVE",
"316 381 OFFCURVE",
"329 367 CURVE",
"345 358 LINE",
"364 282 OFFCURVE",
"424 225 OFFCURVE",
"515 225 CURVE SMOOTH"
);
},
{
closed = 1;
nodes = (
"453 590 LINE",
"308 590 LINE",
"308 434 LINE",
"453 402 LINE"
);
},
{
closed = 1;
nodes = (
"720 590 LINE",
"575 630 LINE",
"575 0 LINE",
"720 0 LINE"
);
},
{
closed = 1;
nodes = (
"820 512 LINE",
"820 630 LINE",
"575 630 LINE",
"632 512 LINE"
);
}
);
};
layerId = "FA3D6E7D-1564-4EF0-9765-0D5E9243D6E7";
paths = (
{
closed = 1;
nodes = (
"341 237 OFFCURVE",
"404 275 OFFCURVE",
"429 321 CURVE",
"361 419 LINE",
"331 414 LINE",
"331 375 OFFCURVE",
"283 330 OFFCURVE",
"243 330 CURVE SMOOTH",
"217 330 OFFCURVE",
"206 347 OFFCURVE",
"206 389 CURVE SMOOTH",
"206 440 LINE SMOOTH",
"206 480 OFFCURVE",
"190 515 OFFCURVE",
"144 575 CURVE SMOOTH",
"106 625 LINE",
"-64 625 LINE",
"-9 533 LINE",
"71 533 LINE",
"77 516 OFFCURVE",
"80 494 OFFCURVE",
"80 466 CURVE SMOOTH",
"80 416 LINE SMOOTH",
"80 336 OFFCURVE",
"197 237 OFFCURVE",
"292 237 CURVE SMOOTH"
);
},
{
closed = 1;
nodes = (
"601 230 OFFCURVE",
"647 261 OFFCURVE",
"680 308 CURVE",
"625 402 LINE",
"594 397 LINE",
"584 358 OFFCURVE",
"538 326 OFFCURVE",
"498 326 CURVE SMOOTH",
"472 326 OFFCURVE",
"457 348 OFFCURVE",
"457 388 CURVE SMOOTH",
"457 464 LINE",
"331 514 LINE",
"331 399 LINE SMOOTH",
"331 324 OFFCURVE",
"452 230 OFFCURVE",
"549 230 CURVE SMOOTH"
);
},
{
closed = 1;
nodes = (
"457 560 LINE",
"331 603 LINE",
"331 450 LINE",
"457 382 LINE"
);
},
{
closed = 1;
nodes = (
"720 587 LINE",
"594 624 LINE",
"594 34 LINE",
"720 -32 LINE"
);
},
{
closed = 1;
nodes = (
"843 533 LINE",
"788 625 LINE",
"594 625 LINE",
"643 533 LINE"
);
}
);
width = 779;
}
);
leftMetricsKey = Ga;
rightMetricsKey = Ga;
unicode = 11194;
category = Letter;
},
{
color = 3;
glyphname = Nga;
lastChange = "2023-01-15 20:22:05 +0000";
layers = (
{
anchors = (
{
name = Anchor14;
position = "{429, 0}";
},
{
name = Anchor15;
position = "{309, 710}";
},
{
name = Anchor16;
position = "{525, 20}";
},
{
name = Anchor17;
position = "{474, 710}";
},
{
name = Anchor18;
position = "{229, 710}";
},
{
name = Anchor19;
position = "{525, 20}";
},
{
name = Anchor20;
position = "{474, 710}";
},
{
name = Anchor21;
position = "{429, 0}";
}
);
background = {
paths = (
{
closed = 1;
nodes = (
"527 51 LINE",
"274 221 LINE SMOOTH",
"216 260 OFFCURVE",
"199 284 OFFCURVE",
"199 351 CURVE SMOOTH",
"199 580 LINE",
"114 580 LINE",
"114 363 LINE SMOOTH",
"114 272 OFFCURVE",
"141 216 OFFCURVE",
"224 160 CURVE SMOOTH",
"482 -13 LINE"
);
},
{
closed = 1;
nodes = (
"575 550 LINE",
"575 625 LINE",
"-6 625 LINE",
"-6 550 LINE"
);
},
{
closed = 1;
nodes = (
"476 590 LINE",
"391 590 LINE",
"391 312 LINE",
"476 312 LINE"
);
}
);
};
layerId = UUID0;
paths = (
{
closed = 1;
nodes = (
"490 -13 LINE",
"509 29 LINE",
"376 95 OFFCURVE",
"251 186 OFFCURVE",
"199 259 CURVE",
"199 342 OFFCURVE",
"199 480 OFFCURVE",
"199 580 CURVE",
"114 580 LINE",
"114 451 OFFCURVE",
"114 313 OFFCURVE",
"114 254 CURVE",
"191 164 OFFCURVE",
"345 53 OFFCURVE",
"487 -13 CURVE"
);
},
{
closed = 1;
nodes = (
"593 550 LINE",
"553 625 LINE",
"-24 625 LINE",
"16 550 LINE"
);
},
{
closed = 1;
nodes = (
"476 590 LINE",
"391 590 LINE",
"391 362 LINE",
"476 312 LINE"
);
}
);
width = 569;
},
{
anchors = (
{
name = Anchor14;
position = "{379, 0}";
},
{
name = Anchor15;
position = "{369, 710}";
},
{
name = Anchor16;
position = "{556, 20}";
},
{
name = Anchor17;
position = "{534, 710}";
},
{
name = Anchor18;
position = "{289, 710}";
},
{
name = Anchor19;
position = "{557, 20}";
},
{
name = Anchor20;
position = "{534, 710}";
},
{
name = Anchor21;
position = "{379, 0}";
}
);
background = {
paths = (
{
closed = 1;
nodes = (
"596 77 LINE",
"292 247 LINE SMOOTH",
"229 282 OFFCURVE",
"218 297 OFFCURVE",
"218 348 CURVE SMOOTH",
"218 588 LINE",
"73 588 LINE",
"73 360 LINE SMOOTH",
"73 262 OFFCURVE",
"112 203 OFFCURVE",
"211 148 CURVE SMOOTH",
"523 -25 LINE"
);
},
{
closed = 1;
nodes = (
"657 512 LINE",
"657 630 LINE",
"-54 630 LINE",
"-54 512 LINE"
);
},
{
closed = 1;
nodes = (
"544 597 LINE",
"399 597 LINE",
"399 288 LINE",
"544 288 LINE"
);
}
);
};
layerId = "FA3D6E7D-1564-4EF0-9765-0D5E9243D6E7";
paths = (
{
closed = 1;
nodes = (
"537 -16 LINE",
"564 41 LINE",
"420 103 OFFCURVE",
"282 190 OFFCURVE",
"221 262 CURVE",
"221 346 OFFCURVE",
"221 484 OFFCURVE",
"221 581 CURVE",
"94 581 LINE",
"94 452 OFFCURVE",
"94 311 OFFCURVE",
"94 253 CURVE",
"177 166 OFFCURVE",
"366 50 OFFCURVE",
"529 -16 CURVE"
);
},
{
closed = 1;
nodes = (
"661 533 LINE",
"605 625 LINE",
"-64 625 LINE",
"-8 533 LINE"
);
},
{
closed = 1;
nodes = (
"526 591 LINE",
"399 591 LINE",
"399 356 LINE",
"526 291 LINE"
);
}
);
width = 597;
}
);
leftMetricsKey = Ga;
rightMetricsKey = Ga;
unicode = 11195;
category = Letter;
},
{
color = 3;
glyphname = Ca;
lastChange = "2023-01-15 20:22:05 +0000";
layers = (
{
anchors = (
{
name = Anchor14;
position = "{531, 17}";
},
{
name = Anchor16;
position = "{196, 34}";
},
{
name = Anchor17;
position = "{584, 710}";
},
{
name = Anchor18;
position = "{314, 710}";
},
{
name = Anchor19;
position = "{196, 34}";
},
{
name = Anchor20;
position = "{584, 710}";
},
{
name = Anchor21;
position = "{531, 17}";
}
);
background = {
anchors = (
{
name = Anchor14;
position = "{531, 0}";
},
{
name = Anchor16;
position = "{196, 34}";
},
{
name = Anchor17;
position = "{584, 710}";
},
{
name = Anchor18;
position = "{314, 710}";
},
{
name = Anchor19;
position = "{196, 34}";
},
{
name = Anchor20;
position = "{584, 710}";
},
{
name = Anchor21;
position = "{531, 0}";
}
);
paths = (
{
closed = 1;
nodes = (
"531 0 LINE",
"531 570 LINE",
"446 605 LINE",
"446 145 LINE",
"443 145 LINE",
"385 212 OFFCURVE",
"268 296 OFFCURVE",
"166 310 CURVE",
"166 224 LINE",
"304 191 OFFCURVE",
"396 108 OFFCURVE",
"458 0 CURVE"
);
},
{
closed = 1;
nodes = (
"199 136 OFFCURVE",
"236 176 OFFCURVE",
"236 242 CURVE SMOOTH",
"236 571 LINE",
"151 611 LINE",
"151 311 LINE",
"82 311 OFFCURVE",
"45 270 OFFCURVE",
"45 221 CURVE SMOOTH",
"45 172 OFFCURVE",
"86 136 OFFCURVE",
"137 136 CURVE SMOOTH"
);
},
{
closed = 1;
nodes = (
"635 550 LINE",
"634 625 LINE",
"1 625 LINE",
"1 550 LINE"
);
}
);
};
layerId = UUID0;
paths = (
{
closed = 1;
nodes = (
"517 9 OFFCURVE",
"524 12 OFFCURVE",
"531 17 CURVE",
"531 570 LINE",
"446 605 LINE",
"446 154 LINE",
"443 154 LINE",
"364 233 OFFCURVE",
"264 299 OFFCURVE",
"166 314 CURVE",
"166 221 LINE",
"294 218 OFFCURVE",
"416 154 OFFCURVE",
"508 6 CURVE"
);
},
{
closed = 1;
nodes = (
"206 116 OFFCURVE",
"236 156 OFFCURVE",
"236 212 CURVE",
"236 571 LINE",
"151 611 LINE",
"151 311 LINE",
"76 308 OFFCURVE",
"41 266 OFFCURVE",
"41 221 CURVE",
"53 171 OFFCURVE",
"107 127 OFFCURVE",
"150 116 CURVE"
);
},
{
closed = 1;
nodes = (
"653 550 LINE",
"613 625 LINE",
"-24 625 LINE",
"16 550 LINE"
);
}
);
width = 629;
},
{
anchors = (
{
name = Anchor14;
position = "{586, 23}";
},
{
name = Anchor16;
position = "{229, 34}";
},
{
name = Anchor17;
position = "{617, 710}";
},
{
name = Anchor18;
position = "{347, 710}";
},
{
name = Anchor19;
position = "{229, 34}";
},
{
name = Anchor20;
position = "{617, 710}";
},
{
name = Anchor21;
position = "{586, 23}";
}
);
background = {
paths = (
{
closed = 1;
nodes = (
"586 0 LINE",
"586 572 LINE",
"441 620 LINE",
"441 176 LINE",
"471 176 LINE",
"395 245 OFFCURVE",
"245 333 OFFCURVE",
"122 336 CURVE",
"122 209 LINE",
"274 183 OFFCURVE",
"388 118 OFFCURVE",
"463 0 CURVE"
);
},
{
closed = 1;
nodes = (
"196 123 OFFCURVE",
"250 171 OFFCURVE",
"250 246 CURVE SMOOTH",
"250 571 LINE",
"105 571 LINE",
"105 334 LINE",
"32 326 OFFCURVE",
"-16 285 OFFCURVE",
"-16 226 CURVE SMOOTH",
"-16 167 OFFCURVE",
"40 123 OFFCURVE",
"113 123 CURVE SMOOTH"
);
},
{
closed = 1;
nodes = (
"704 512 LINE",
"703 630 LINE",
"-66 630 LINE",
"-66 512 LINE"
);
}
);
};
layerId = "FA3D6E7D-1564-4EF0-9765-0D5E9243D6E7";
paths = (
{
closed = 1;
nodes = (
"546 3 LINE",
"563 8 OFFCURVE",
"577 16 OFFCURVE",
"586 23 CURVE",
"586 568 LINE",
"460 614 LINE",
"460 169 LINE",
"481 169 LINE",
"377 259 OFFCURVE",
"257 317 OFFCURVE",
"152 326 CURVE",
"152 214 LINE",
"305 216 OFFCURVE",
"438 144 OFFCURVE",
"534 7 CURVE"
);
},
{
closed = 1;
nodes = (
"151 112 CURVE",
"219 112 OFFCURVE",
"262 152 OFFCURVE",
"262 215 CURVE SMOOTH",
"262 568 LINE",
"135 621 LINE",
"135 320 LINE",
"62 313 OFFCURVE",
"14 276 OFFCURVE",
"14 224 CURVE",
"28 175 OFFCURVE",
"87 126 OFFCURVE"
);
},
{
closed = 1;
nodes = (
"727 533 LINE",
"671 625 LINE",
"-64 625 LINE",
"-8 533 LINE"
);
}
);
width = 663;
}
);
leftMetricsKey = Ga;
rightMetricsKey = Ga;
unicode = 11196;
category = Letter;
},
{
color = 3;
glyphname = Cha;
lastChange = "2023-01-15 20:22:05 +0000";
layers = (
{
anchors = (
{
name = Anchor14;
position = "{347, 0}";
},
{
name = Anchor15;
position = "{287, 710}";
},
{
name = Anchor16;
position = "{552, 0}";
},
{
name = Anchor17;
position = "{662, 710}";
},
{
name = Anchor18;
position = "{342, 710}";
},
{
name = Anchor19;
position = "{417, 15}";
},
{
name = Anchor20;
position = "{662, 710}";
},
{
name = Anchor21;
position = "{347, 0}";
}
);
background = {
paths = (
{
closed = 1;
nodes = (
"259 72 OFFCURVE",
"335 107 OFFCURVE",
"369 166 CURVE",
"313 209 LINE",
"289 175 OFFCURVE",
"243 148 OFFCURVE",
"192 148 CURVE SMOOTH",
"146 148 OFFCURVE",
"117 172 OFFCURVE",
"117 219 CURVE SMOOTH",
"117 265 OFFCURVE",
"160 325 OFFCURVE",
"311 325 CURVE",
"308 400 LINE",
"138 400 OFFCURVE",
"32 317 OFFCURVE",
"32 216 CURVE SMOOTH",
"32 130 OFFCURVE",
"98 72 OFFCURVE",
"192 72 CURVE SMOOTH"
);
},
{
closed = 1;
nodes = (
"385 590 LINE",
"300 590 LINE",
"300 144 LINE",
"385 132 LINE"
);
},
{
closed = 1;
nodes = (
"698 550 LINE",
"698 625 LINE",
"-9 625 LINE",
"-9 550 LINE"
);
},
{
closed = 1;
nodes = (
"586 74 OFFCURVE",
"646 130 OFFCURVE",
"646 216 CURVE SMOOTH",
"646 317 OFFCURVE",
"543 400 OFFCURVE",
"373 400 CURVE",
"370 325 LINE",
"521 325 OFFCURVE",
"564 267 OFFCURVE",
"564 219 CURVE SMOOTH",
"564 170 OFFCURVE",
"533 148 OFFCURVE",
"489 148 CURVE SMOOTH",
"438 148 OFFCURVE",
"394 175 OFFCURVE",
"370 209 CURVE",
"316 163 LINE",
"359 104 OFFCURVE",
"425 74 OFFCURVE",
"492 74 CURVE SMOOTH"
);
}
);
};
layerId = UUID0;
paths = (
{
closed = 1;
nodes = (
"313 84 OFFCURVE",
"385 144 OFFCURVE",
"385 175 CURVE",
"300 217 LINE",
"300 189 OFFCURVE",
"243 148 OFFCURVE",
"192 148 CURVE SMOOTH",
"149 148 OFFCURVE",
"107 183 OFFCURVE",
"107 209 CURVE SMOOTH",
"107 249 OFFCURVE",
"202 306 OFFCURVE",
"311 322 CURVE",
"304 411 LINE",
"163 391 OFFCURVE",
"32 311 OFFCURVE",
"32 250 CURVE SMOOTH",
"32 183 OFFCURVE",
"155 84 OFFCURVE",
"251 84 CURVE SMOOTH"
);
},
{
closed = 1;
nodes = (
"385 590 LINE",
"300 590 LINE",
"300 187 LINE",
"385 140 LINE"
);
},
{
closed = 1;
nodes = (
"590 85 OFFCURVE",
"648 140 OFFCURVE",
"648 197 CURVE SMOOTH",
"648 257 OFFCURVE",
"552 358 OFFCURVE",
"376 411 CURVE",
"375 333 LINE",
"525 310 OFFCURVE",
"567 256 OFFCURVE",
"567 226 CURVE SMOOTH",
"567 195 OFFCURVE",
"535 150 OFFCURVE",
"481 150 CURVE SMOOTH",
"449 150 OFFCURVE",
"406 155 OFFCURVE",
"340 182 CURVE",
"331 141 LINE",
"411 102 OFFCURVE",
"470 85 OFFCURVE",
"534 85 CURVE SMOOTH"
);
},
{
closed = 1;
nodes = (
"716 550 LINE",
"676 625 LINE",
"-24 625 LINE",
"16 550 LINE"
);
}
);
width = 692;
},
{
anchors = (
{
name = Anchor14;
position = "{350, 0}";
},
{
name = Anchor15;
position = "{290, 710}";
},
{
name = Anchor16;
position = "{555, 0}";
},
{
name = Anchor17;
position = "{665, 710}";
},
{
name = Anchor18;
position = "{345, 710}";
},
{
name = Anchor19;
position = "{420, 15}";
},
{
name = Anchor20;
position = "{665, 710}";
},
{
name = Anchor21;
position = "{350, 0}";
}
);
background = {
paths = (
{
closed = 1;
nodes = (
"291 63 OFFCURVE",
"383 115 OFFCURVE",
"413 185 CURVE",
"322 247 LINE",
"300 208 OFFCURVE",
"246 176 OFFCURVE",
"190 176 CURVE SMOOTH",
"147 176 OFFCURVE",
"128 196 OFFCURVE",
"128 222 CURVE SMOOTH",
"128 268 OFFCURVE",
"193 312 OFFCURVE",
"350 308 CURVE",
"345 419 LINE",
"136 425 OFFCURVE",
"-17 342 OFFCURVE",
"-17 222 CURVE SMOOTH",
"-17 128 OFFCURVE",
"67 63 OFFCURVE",
"189 63 CURVE SMOOTH"
);
},
{
closed = 1;
nodes = (
"434 598 LINE",
"289 598 LINE",
"289 133 LINE",
"434 116 LINE"
);
},
{
closed = 1;
nodes = (
"790 512 LINE",
"790 630 LINE",
"-63 630 LINE",
"-63 512 LINE"
);
},
{
closed = 1;
nodes = (
"655 64 OFFCURVE",
"731 127 OFFCURVE",
"731 222 CURVE SMOOTH",
"731 344 OFFCURVE",
"581 425 OFFCURVE",
"373 419 CURVE",
"368 308 LINE",
"518 312 OFFCURVE",
"590 269 OFFCURVE",
"590 225 CURVE SMOOTH",
"590 198 OFFCURVE",
"573 176 OFFCURVE",
"528 176 CURVE SMOOTH",
"472 176 OFFCURVE",
"420 208 OFFCURVE",
"399 249 CURVE",
"306 179 LINE",
"366 108 OFFCURVE",
"444 64 OFFCURVE",
"536 64 CURVE SMOOTH"
);
}
);
};
layerId = "FA3D6E7D-1564-4EF0-9765-0D5E9243D6E7";
paths = (
{
closed = 1;
nodes = (
"332 80 OFFCURVE",
"433 143 OFFCURVE",
"425 183 CURVE",
"323 228 LINE",
"299 219 LINE",
"299 195 OFFCURVE",
"241 162 OFFCURVE",
"197 162 CURVE SMOOTH",
"161 162 OFFCURVE",
"120 189 OFFCURVE",
"120 211 CURVE SMOOTH",
"120 249 OFFCURVE",
"233 302 OFFCURVE",
"345 313 CURVE",
"335 419 LINE",
"169 403 OFFCURVE",
"4 319 OFFCURVE",
"4 251 CURVE SMOOTH",
"4 178 OFFCURVE",
"151 80 OFFCURVE",
"262 80 CURVE SMOOTH"
);
},
{
closed = 1;
nodes = (
"425 591 LINE",
"299 591 LINE",
"299 186 LINE",
"425 124 LINE"
);
},
{
closed = 1;
nodes = (
"640 81 OFFCURVE",
"715 140 OFFCURVE",
"715 200 CURVE SMOOTH",
"715 277 OFFCURVE",
"565 379 OFFCURVE",
"383 422 CURVE",
"381 324 LINE",
"508 309 OFFCURVE",
"593 269 OFFCURVE",
"593 228 CURVE SMOOTH",
"593 195 OFFCURVE",
"556 161 OFFCURVE",
"514 161 CURVE SMOOTH",
"464 161 OFFCURVE",
"414 175 OFFCURVE",
"347 201 CURVE",
"332 141 LINE",
"427 99 OFFCURVE",
"494 81 OFFCURVE",
"567 81 CURVE SMOOTH"
);
},
{
closed = 1;
nodes = (
"796 533 LINE",
"740 625 LINE",
"-64 625 LINE",
"-8 533 LINE"
);
}
);
width = 732;
}
);
leftMetricsKey = Ga;
rightMetricsKey = Ga;
unicode = 11197;
category = Letter;
},
{
color = 3;
glyphname = Ja;
lastChange = "2023-01-15 19:34:40 +0000";
layers = (
{
anchors = (
{
name = Anchor14;
position = "{350, 0}";
},
{
name = Anchor16;
position = "{318, 0}";
},
{
name = Anchor17;
position = "{630, 710}";
},
{
name = Anchor18;
position = "{345, 710}";
},
{
name = Anchor19;
position = "{318, 0}";
},
{
name = Anchor20;
position = "{630, 710}";
},
{
name = Anchor21;
position = "{350, 0}";
}
);
background = {
paths = (
{
closed = 1;
nodes = (
"316 196 OFFCURVE",
"506 106 OFFCURVE",
"646 9 CURVE",
"687 72 LINE",
"543 170 OFFCURVE",
"353 265 OFFCURVE",
"157 310 CURVE",
"133 237 LINE"
);
},
{
closed = 1;
nodes = (
"168 138 OFFCURVE",
"210 171 OFFCURVE",
"210 233 CURVE SMOOTH",
"209 417 LINE",
"130 423 LINE",
"130 311 LINE",
"65 306 OFFCURVE",
"34 266 OFFCURVE",
"34 221 CURVE SMOOTH",
"34 175 OFFCURVE",
"70 138 OFFCURVE",
"119 138 CURVE SMOOTH"
);
},
{
closed = 1;
nodes = (
"660 401 LINE",
"788 594 LINE",
"727 637 LINE",
"644 514 LINE",
"641 514 LINE",
"618 588 OFFCURVE",
"577 627 OFFCURVE",
"512 627 CURVE SMOOTH",
"457 627 OFFCURVE",
"419 597 OFFCURVE",
"397 549 CURVE",
"384 549 LINE",
"355 404 LINE",
"434 404 LINE",
"442 504 OFFCURVE",
"471 555 OFFCURVE",
"513 555 CURVE SMOOTH",
"556 555 OFFCURVE",
"580 509 OFFCURVE",
"592 401 CURVE"
);
},
{
closed = 1;
nodes = (
"209 516 OFFCURVE",
"239 553 OFFCURVE",
"278 553 CURVE SMOOTH",
"319 553 OFFCURVE",
"350 507 OFFCURVE",
"355 404 CURVE",
"424 419 LINE",
"397 544 LINE",
"376 594 OFFCURVE",
"335 627 OFFCURVE",
"274 627 CURVE SMOOTH",
"189 627 OFFCURVE",
"130 566 OFFCURVE",
"130 423 CURVE",
"197 390 LINE",
"209 417 LINE"
);
}
);
};
layerId = UUID0;
paths = (
{
closed = 1;
nodes = (
"659 5 LINE",
"677 33 LINE",
"521 190 OFFCURVE",
"309 295 OFFCURVE",
"136 310 CURVE",
"126 237 LINE",
"333 233 OFFCURVE",
"513 141 OFFCURVE",
"654 5 CURVE"
);
},
{
closed = 1;
nodes = (
"168 134 OFFCURVE",
"206 171 OFFCURVE",
"206 230 CURVE",
"206 422 LINE",
"121 471 LINE",
"121 311 LINE",
"64 308 OFFCURVE",
"22 271 OFFCURVE",
"20 230 CURVE",
"31 177 OFFCURVE",
"81 134 OFFCURVE",
"125 127 CURVE"
);
},
{
closed = 1;
nodes = (
"206 422 LINE",
"206 498 OFFCURVE",
"229 533 OFFCURVE",
"261 533 CURVE SMOOTH",
"296 533 OFFCURVE",
"327 504 OFFCURVE",
"386 383 CURVE",
"399 441 LINE",
"377 488 LINE",
"328 580 OFFCURVE",
"275 626 OFFCURVE",
"221 626 CURVE SMOOTH",
"163 626 OFFCURVE",
"121 560 OFFCURVE",
"121 471 CURVE",
"167 365 LINE"
);
},
{
closed = 1;
nodes = (
"639 380 LINE",
"688 490 OFFCURVE",
"729 529 OFFCURVE",
"776 550 CURVE",
"728 625 LINE",
"679 605 OFFCURVE",
"636 546 OFFCURVE",
"612 495 CURVE",
"609 495 LINE",
"565 587 OFFCURVE",
"518 627 OFFCURVE",
"471 627 CURVE SMOOTH",
"425 627 OFFCURVE",
"386 583 OFFCURVE",
"370 507 CURVE",
"359 506 LINE",
"386 383 LINE",
"413 383 LINE",
"431 498 OFFCURVE",
"462 534 OFFCURVE",
"500 534 CURVE SMOOTH",
"532 534 OFFCURVE",
"561 509 OFFCURVE",
"617 380 CURVE"
);
}
);
width = 812;
},
{
anchors = (
{
name = Anchor14;
position = "{470, 0}";
},
{
name = Anchor16;
position = "{438, 0}";
},
{
name = Anchor17;
position = "{750, 710}";
},
{
name = Anchor18;
position = "{465, 710}";
},
{
name = Anchor19;
position = "{438, 0}";
},
{
name = Anchor20;
position = "{750, 710}";
},
{
name = Anchor21;
position = "{470, 0}";
}
);
background = {
paths = (
{
closed = 1;
nodes = (
"315 191 OFFCURVE",
"551 105 OFFCURVE",
"735 -3 CURVE",
"812 94 LINE",
"639 194 OFFCURVE",
"401 294 OFFCURVE",
"156 338 CURVE",
"111 223 LINE"
);
},
{
closed = 1;
nodes = (
"203 125 OFFCURVE",
"256 171 OFFCURVE",
"256 238 CURVE SMOOTH",
"255 433 LINE",
"117 401 LINE",
"117 333 LINE",
"51 322 OFFCURVE",
"7 282 OFFCURVE",
"7 227 CURVE SMOOTH",
"7 169 OFFCURVE",
"60 125 OFFCURVE",
"128 125 CURVE SMOOTH"
);
},
{
closed = 1;
nodes = (
"757 372 LINE",
"927 585 LINE",
"815 649 LINE",
"713 520 LINE",
"720 505 LINE",
"742 511 LINE",
"712 592 OFFCURVE",
"658 633 OFFCURVE",
"576 633 CURVE SMOOTH",
"516 633 OFFCURVE",
"467 608 OFFCURVE",
"435 545 CURVE",
"411 545 LINE",
"374 371 LINE",
"509 375 LINE",
"514 475 OFFCURVE",
"540 517 OFFCURVE",
"577 517 CURVE SMOOTH",
"614 517 OFFCURVE",
"635 477 OFFCURVE",
"646 372 CURVE"
);
},
{
closed = 1;
nodes = (
"254 486 OFFCURVE",
"273 515 OFFCURVE",
"309 515 CURVE SMOOTH",
"348 515 OFFCURVE",
"373 473 OFFCURVE",
"374 371 CURVE",
"506 394 LINE",
"463 526 LINE",
"433 598 OFFCURVE",
"371 633 OFFCURVE",
"299 633 CURVE SMOOTH",
"179 633 OFFCURVE",
"112 548 OFFCURVE",
"117 401 CURVE",
"228 356 LINE",
"255 405 LINE"
);
}
);
};
layerId = "FA3D6E7D-1564-4EF0-9765-0D5E9243D6E7";
paths = (
{
closed = 1;
nodes = (
"737 -4 LINE",
"771 42 LINE",
"597 199 OFFCURVE",
"348 310 OFFCURVE",
"143 321 CURVE",
"129 230 LINE",
"343 230 OFFCURVE",
"559 143 OFFCURVE",
"729 -5 CURVE"
);
},
{
closed = 1;
nodes = (
"148 123 CURVE",
"210 132 OFFCURVE",
"251 176 OFFCURVE",
"251 233 CURVE SMOOTH",
"251 431 LINE",
"125 465 LINE",
"125 320 LINE",
"64 312 OFFCURVE",
"14 276 OFFCURVE",
"14 233 CURVE",
"26 181 OFFCURVE",
"77 132 OFFCURVE"
);
},
{
closed = 1;
nodes = (
"251 425 LINE",
"251 493 OFFCURVE",
"269 521 OFFCURVE",
"298 521 CURVE SMOOTH",
"326 521 OFFCURVE",
"355 505 OFFCURVE",
"422 371 CURVE",
"458 434 LINE",
"432 482 LINE SMOOTH",
"375 587 OFFCURVE",
"317 626 OFFCURVE",
"254 626 CURVE SMOOTH",
"181 626 OFFCURVE",
"124 572 OFFCURVE",
"125 465 CURVE",
"188 336 LINE"
);
},
{
closed = 1;
nodes = (
"723 368 LINE",
"775 473 OFFCURVE",
"819 520 OFFCURVE",
"882 539 CURVE",
"817 629 LINE",
"761 616 OFFCURVE",
"703 562 OFFCURVE",
"666 494 CURVE",
"666 479 LINE",
"678 469 LINE",
"693 484 LINE",
"641 579 OFFCURVE",
"589 627 OFFCURVE",
"526 627 CURVE SMOOTH",
"468 627 OFFCURVE",
"428 583 OFFCURVE",
"405 510 CURVE",
"384 509 LINE",
"422 371 LINE",
"477 371 LINE",
"493 474 OFFCURVE",
"519 522 OFFCURVE",
"558 522 CURVE SMOOTH",
"592 522 OFFCURVE",
"630 479 OFFCURVE",
"674 368 CURVE"
);
}
);
width = 922;
}
);
unicode = 11198;
category = Letter;
},
{
color = 3;
glyphname = Jha;
lastChange = "2023-01-15 20:22:05 +0000";
layers = (
{
anchors = (
{
name = Anchor14;
position = "{346, 0}";
},
{
name = Anchor15;
position = "{271, 840}";
},
{
name = Anchor16;
position = "{566, 0}";
},
{
name = Anchor17;
position = "{721, 710}";
},
{
name = Anchor18;
position = "{366, 710}";
},
{
name = Anchor19;
position = "{566, 0}";
},
{
name = Anchor20;
position = "{721, 710}";
},
{
name = Anchor21;
position = "{346, 0}";
}
);
background = {
paths = (
{
closed = 1;
nodes = (
"721 550 LINE",
"721 625 LINE",
"-10 625 LINE",
"-10 550 LINE"
);
},
{
closed = 1;
nodes = (
"277 590 LINE",
"192 590 LINE",
"192 242 LINE",
"70 242 LINE",
"70 192 LINE",
"220 27 LINE",
"277 27 LINE"
);
},
{
closed = 1;
nodes = (
"617 228 OFFCURVE",
"663 273 OFFCURVE",
"663 363 CURVE SMOOTH",
"663 570 LINE",
"578 605 LINE",
"578 365 LINE SMOOTH",
"578 326 OFFCURVE",
"568 310 OFFCURVE",
"545 310 CURVE SMOOTH",
"523 310 OFFCURVE",
"501 329 OFFCURVE",
"465 378 CURVE SMOOTH",
"312 588 LINE",
"236 560 LINE",
"406 329 LINE SMOOTH",
"454 263 OFFCURVE",
"494 228 OFFCURVE",
"555 228 CURVE SMOOTH"
);
}
);
};
layerId = UUID0;
paths = (
{
closed = 1;
nodes = (
"631 140 OFFCURVE",
"667 178 OFFCURVE",
"667 236 CURVE SMOOTH",
"667 552 LINE",
"582 606 LINE",
"582 290 LINE SMOOTH",
"582 257 OFFCURVE",
"567 234 OFFCURVE",
"536 234 CURVE SMOOTH",
"496 234 OFFCURVE",
"431 306 OFFCURVE",
"255 581 CURVE",
"246 510 LINE",
"407 243 OFFCURVE",
"511 140 OFFCURVE",
"584 140 CURVE SMOOTH"
);
},
{
closed = 1;
nodes = (
"274 591 LINE",
"189 591 LINE",
"189 220 LINE",
"155 213 OFFCURVE",
"116 206 OFFCURVE",
"90 199 CURVE",
"87 190 OFFCURVE",
"83 181 OFFCURVE",
"81 174 CURVE",
"124 124 OFFCURVE",
"196 54 OFFCURVE",
"252 8 CURVE",
"260 6 OFFCURVE",
"266 5 OFFCURVE",
"274 5 CURVE"
);
},
{
closed = 1;
nodes = (
"791 551 LINE",
"751 626 LINE",
"-24 626 LINE",
"16 551 LINE"
);
}
);
width = 767;
},
{
anchors = (
{
name = Anchor14;
position = "{398, 0}";
},
{
name = Anchor15;
position = "{323, 840}";
},
{
name = Anchor16;
position = "{618, 0}";
},
{
name = Anchor17;
position = "{773, 710}";
},
{
name = Anchor18;
position = "{418, 710}";
},
{
name = Anchor19;
position = "{618, 0}";
},
{
name = Anchor20;
position = "{773, 710}";
},
{
name = Anchor21;
position = "{398, 0}";
}
);
background = {
paths = (
{
closed = 1;
nodes = (
"812 512 LINE",
"812 630 LINE",
"-73 630 LINE",
"-73 512 LINE"
);
},
{
closed = 1;
nodes = (
"303 598 LINE",
"158 598 LINE",
"158 271 LINE",
"19 271 LINE",
"19 189 LINE",
"205 21 LINE",
"303 21 LINE"
);
},
{
closed = 1;
nodes = (
"686 210 OFFCURVE",
"743 269 OFFCURVE",
"743 361 CURVE SMOOTH",
"743 572 LINE",
"598 622 LINE",
"598 359 LINE SMOOTH",
"598 339 OFFCURVE",
"592 335 OFFCURVE",
"583 335 CURVE SMOOTH",
"568 335 OFFCURVE",
"548 349 OFFCURVE",
"511 391 CURVE SMOOTH",
"326 599 LINE",
"189 558 LINE",
"408 313 LINE SMOOTH",
"474 239 OFFCURVE",
"526 210 OFFCURVE",
"596 210 CURVE SMOOTH"
);
}
);
};
layerId = "FA3D6E7D-1564-4EF0-9765-0D5E9243D6E7";
paths = (
{
closed = 1;
nodes = (
"691 136 OFFCURVE",
"736 179 OFFCURVE",
"736 239 CURVE SMOOTH",
"736 549 LINE",
"609 620 LINE",
"609 291 LINE SMOOTH",
"609 260 OFFCURVE",
"598 246 OFFCURVE",
"575 246 CURVE SMOOTH",
"542 246 OFFCURVE",
"511 270 OFFCURVE",
"255 613 CURVE",
"240 503 LINE",
"473 183 OFFCURVE",
"542 136 OFFCURVE",
"628 136 CURVE SMOOTH"
);
},
{
closed = 1;
nodes = (
"304 592 LINE",
"177 592 LINE",
"177 230 LINE",
"126 221 OFFCURVE",
"84 213 OFFCURVE",
"70 209 CURVE",
"67 202 OFFCURVE",
"61 184 OFFCURVE",
"60 176 CURVE",
"140 95 OFFCURVE",
"213 38 OFFCURVE",
"256 8 CURVE",
"270 6 OFFCURVE",
"292 4 OFFCURVE",
"304 5 CURVE"
);
},
{
closed = 1;
nodes = (
"879 534 LINE",
"823 626 LINE",
"-64 626 LINE",
"-8 534 LINE"
);
}
);
width = 815;
}
);
leftMetricsKey = Ga;
rightMetricsKey = Ga;
unicode = 11199;
category = Letter;
},
{
color = 3;
glyphname = Nya;
lastChange = "2023-01-15 20:22:05 +0000";
layers = (
{
anchors = (
{
name = Anchor14;
position = "{382, 0}";
},
{
name = Anchor16;
position = "{582, 20}";
},
{
name = Anchor17;
position = "{662, 710}";
},
{
name = Anchor18;
position = "{357, 710}";
},
{
name = Anchor19;
position = "{582, 20}";
},
{
name = Anchor20;
position = "{662, 710}";
},
{
name = Anchor21;
position = "{382, 0}";
}
);
background = {
paths = (
{
closed = 1;
nodes = (
"699 82 OFFCURVE",
"723 147 OFFCURVE",
"723 209 CURVE SMOOTH",
"723 314 OFFCURVE",
"657 380 OFFCURVE",
"505 380 CURVE SMOOTH",
"477 380 OFFCURVE",
"445 380 OFFCURVE",
"441 380 CURVE",
"444 301 LINE",
"454 301 OFFCURVE",
"493 301 OFFCURVE",
"513 301 CURVE SMOOTH",
"606 301 OFFCURVE",
"641 267 OFFCURVE",
"641 210 CURVE SMOOTH",
"641 167 OFFCURVE",
"623 116 OFFCURVE",
"567 42 CURVE",
"638 -3 LINE"
);
},
{
closed = 1;
nodes = (
"220 590 LINE",
"135 590 LINE",
"135 0 LINE",
"220 0 LINE"
);
},
{
closed = 1;
nodes = (
"744 550 LINE",
"744 625 LINE",
"26 625 LINE",
"26 550 LINE"
);
},
{
closed = 1;
nodes = (
"454 210 OFFCURVE",
"490 249 OFFCURVE",
"490 306 CURVE SMOOTH",
"490 441 LINE",
"405 442 LINE",
"405 381 LINE",
"344 378 OFFCURVE",
"308 341 OFFCURVE",
"308 295 CURVE SMOOTH",
"308 248 OFFCURVE",
"344 210 OFFCURVE",
"400 210 CURVE SMOOTH"
);
},
{
closed = 1;
nodes = (
"490 584 LINE",
"405 576 LINE",
"405 402 LINE",
"490 399 LINE"
);
}
);
};
layerId = UUID0;
paths = (
{
closed = 1;
nodes = (
"696 40 OFFCURVE",
"722 110 OFFCURVE",
"722 167 CURVE SMOOTH",
"722 280 OFFCURVE",
"624 385 OFFCURVE",
"479 385 CURVE SMOOTH",
"453 385 OFFCURVE",
"433 383 OFFCURVE",
"410 380 CURVE",
"426 276 LINE",
"461 298 OFFCURVE",
"506 313 OFFCURVE",
"546 313 CURVE SMOOTH",
"608 313 OFFCURVE",
"644 276 OFFCURVE",
"644 214 CURVE SMOOTH",
"644 163 OFFCURVE",
"616 80 OFFCURVE",
"571 24 CURVE",
"571 20 LINE",
"663 -8 LINE"
);
},
{
closed = 1;
nodes = (
"219 590 LINE",
"134 590 LINE",
"134 30 LINE",
"219 -20 LINE"
);
},
{
closed = 1;
nodes = (
"459 186 OFFCURVE",
"489 226 OFFCURVE",
"489 282 CURVE SMOOTH",
"489 567 LINE",
"404 607 LINE",
"404 381 LINE",
"329 378 OFFCURVE",
"294 336 OFFCURVE",
"294 291 CURVE",
"306 241 OFFCURVE",
"360 197 OFFCURVE",
"403 186 CURVE"
);
},
{
closed = 1;
nodes = (
"761 550 LINE",
"721 625 LINE",
"-24 625 LINE",
"16 550 LINE"
);
}
);
width = 737;
},
{
anchors = (
{
name = Anchor14;
position = "{416, 0}";
},
{
name = Anchor16;
position = "{616, 20}";
},
{
name = Anchor17;
position = "{696, 710}";
},
{
name = Anchor18;
position = "{391, 710}";
},
{
name = Anchor19;
position = "{616, 20}";
},
{
name = Anchor20;
position = "{696, 710}";
},
{
name = Anchor21;
position = "{416, 0}";
}
);
background = {
paths = (
{
closed = 1;
nodes = (
"779 73 OFFCURVE",
"815 145 OFFCURVE",
"815 215 CURVE SMOOTH",
"815 336 OFFCURVE",
"718 400 OFFCURVE",
"543 400 CURVE SMOOTH",
"510 400 OFFCURVE",
"475 400 OFFCURVE",
"470 400 CURVE",
"446 375 LINE",
"449 301 LINE",
"473 278 LINE",
"484 278 OFFCURVE",
"528 278 OFFCURVE",
"552 278 CURVE SMOOTH",
"639 278 OFFCURVE",
"674 258 OFFCURVE",
"674 216 CURVE SMOOTH",
"674 176 OFFCURVE",
"646 127 OFFCURVE",
"579 55 CURVE",
"701 -14 LINE"
);
},
{
closed = 1;
nodes = (
"232 597 LINE",
"87 597 LINE",
"87 0 LINE",
"232 0 LINE"
);
},
{
closed = 1;
nodes = (
"839 512 LINE",
"839 630 LINE",
"-36 630 LINE",
"-36 512 LINE"
);
},
{
closed = 1;
nodes = (
"497 192 OFFCURVE",
"550 239 OFFCURVE",
"550 306 CURVE SMOOTH",
"550 457 LINE",
"405 458 LINE",
"405 399 LINE",
"339 389 OFFCURVE",
"294 349 OFFCURVE",
"294 296 CURVE SMOOTH",
"294 236 OFFCURVE",
"349 192 OFFCURVE",
"423 192 CURVE SMOOTH"
);
},
{
closed = 1;
nodes = (
"550 594 LINE",
"405 582 LINE",
"405 374 LINE",
"550 369 LINE"
);
}
);
};
layerId = "FA3D6E7D-1564-4EF0-9765-0D5E9243D6E7";
paths = (
{
closed = 1;
nodes = (
"767 42 OFFCURVE",
"796 115 OFFCURVE",
"796 171 CURVE SMOOTH",
"796 294 OFFCURVE",
"670 392 OFFCURVE",
"512 392 CURVE SMOOTH",
"476 392 OFFCURVE",
"446 389 OFFCURVE",
"425 385 CURVE",
"441 255 LINE",
"486 286 OFFCURVE",
"540 303 OFFCURVE",
"586 303 CURVE SMOOTH",
"644 303 OFFCURVE",
"677 272 OFFCURVE",
"677 216 CURVE SMOOTH",
"677 153 OFFCURVE",
"638 79 OFFCURVE",
"597 31 CURVE",
"597 22 LINE",
"722 -12 LINE"
);
},
{
closed = 1;
nodes = (
"243 591 LINE",
"116 591 LINE",
"116 34 LINE",
"243 -32 LINE"
);
},
{
closed = 1;
nodes = (
"428 180 CURVE",
"496 180 OFFCURVE",
"540 220 OFFCURVE",
"540 282 CURVE SMOOTH",
"540 564 LINE",
"413 616 LINE",
"413 387 LINE",
"340 380 OFFCURVE",
"292 343 OFFCURVE",
"292 291 CURVE",
"304 245 OFFCURVE",
"360 194 OFFCURVE"
);
},
{
closed = 1;
nodes = (
"845 533 LINE",
"790 625 LINE",
"-64 625 LINE",
"-9 533 LINE"
);
}
);
width = 781;
}
);
leftMetricsKey = Ga;
rightMetricsKey = Ga;
unicode = 1119A;
category = Letter;
},
{
color = 3;
glyphname = Tta;
lastChange = "2023-01-15 20:22:05 +0000";
layers = (
{
anchors = (
{
name = Anchor14;
position = "{326, 0}";
},
{
name = Anchor15;
position = "{336, 710}";
},
{
name = Anchor16;
position = "{336, 0}";
},
{
name = Anchor17;
position = "{511, 710}";
},
{
name = Anchor18;
position = "{276, 710}";
},
{
name = Anchor19;
position = "{336, 0}";
},
{
name = Anchor20;
position = "{511, 710}";
},
{
name = Anchor21;
position = "{326, 0}";
}
);
background = {
paths = (
{
closed = 1;
nodes = (
"343 40 OFFCURVE",
"405 70 OFFCURVE",
"454 114 CURVE",
"402 178 LINE",
"358 140 OFFCURVE",
"318 122 OFFCURVE",
"276 122 CURVE SMOOTH",
"215 122 OFFCURVE",
"182 152 OFFCURVE",
"182 219 CURVE SMOOTH",
"182 288 LINE",
"97 316 LINE",
"97 221 LINE SMOOTH",
"97 96 OFFCURVE",
"177 40 OFFCURVE",
"276 40 CURVE SMOOTH"
);
},
{
closed = 1;
nodes = (
"182 590 LINE",
"97 590 LINE",
"97 280 LINE",
"182 248 LINE"
);
},
{
closed = 1;
nodes = (
"575 550 LINE",
"575 625 LINE",
"-10 625 LINE",
"-10 550 LINE"
);
},
{
closed = 1;
nodes = (
"475 590 LINE",
"390 590 LINE",
"390 341 LINE",
"475 341 LINE"
);
}
);
};
layerId = UUID0;
paths = (
{
closed = 1;
nodes = (
"385 38 OFFCURVE",
"442 72 OFFCURVE",
"479 113 CURVE",
"404 177 LINE",
"370 141 OFFCURVE",
"325 117 OFFCURVE",
"267 117 CURVE SMOOTH",
"207 117 OFFCURVE",
"183 144 OFFCURVE",
"183 201 CURVE SMOOTH",
"183 278 LINE",
"98 316 LINE",
"98 266 LINE",
"98 124 OFFCURVE",
"212 38 OFFCURVE",
"307 38 CURVE SMOOTH"
);
},
{
closed = 1;
nodes = (
"183 590 LINE",
"98 590 LINE",
"98 280 LINE",
"183 238 LINE"
);
},
{
closed = 1;
nodes = (
"591 550 LINE",
"551 625 LINE",
"-24 625 LINE",
"16 550 LINE"
);
},
{
closed = 1;
nodes = (
"476 590 LINE",
"391 590 LINE",
"391 362 LINE",
"476 312 LINE"
);
}
);
width = 567;
},
{
anchors = (
{
name = Anchor14;
position = "{355, 0}";
},
{
name = Anchor15;
position = "{365, 710}";
},
{
name = Anchor16;
position = "{365, 0}";
},
{
name = Anchor17;
position = "{540, 710}";
},
{
name = Anchor18;
position = "{305, 710}";
},
{
name = Anchor19;
position = "{365, 0}";
},
{
name = Anchor20;
position = "{540, 710}";
},
{
name = Anchor21;
position = "{355, 0}";
}
);
background = {
anchors = (
{
name = Anchor14;
position = "{355, 0}";
},
{
name = Anchor15;
position = "{365, 710}";
},
{
name = Anchor16;
position = "{365, 0}";
},
{
name = Anchor17;
position = "{540, 710}";
},
{
name = Anchor18;
position = "{305, 710}";
},
{
name = Anchor19;
position = "{365, 0}";
},
{
name = Anchor20;
position = "{540, 710}";
},
{
name = Anchor21;
position = "{355, 0}";
}
);
paths = (
{
closed = 1;
nodes = (
"367 34 OFFCURVE",
"452 65 OFFCURVE",
"520 123 CURVE",
"431 219 LINE",
"376 177 OFFCURVE",
"332 159 OFFCURVE",
"284 159 CURVE SMOOTH",
"225 159 OFFCURVE",
"201 179 OFFCURVE",
"201 226 CURVE SMOOTH",
"201 309 LINE",
"56 348 LINE",
"56 228 LINE SMOOTH",
"56 108 OFFCURVE",
"143 34 OFFCURVE",
"284 34 CURVE SMOOTH"
);
},
{
closed = 1;
nodes = (
"201 599 LINE",
"56 599 LINE",
"56 265 LINE",
"201 220 LINE"
);
},
{
closed = 1;
nodes = (
"649 512 LINE",
"649 630 LINE",
"-66 630 LINE",
"-66 512 LINE"
);
},
{
closed = 1;
nodes = (
"535 599 LINE",
"390 599 LINE",
"390 316 LINE",
"535 316 LINE"
);
}
);
};
layerId = "FA3D6E7D-1564-4EF0-9765-0D5E9243D6E7";
paths = (
{
closed = 1;
nodes = (
"406 37 OFFCURVE",
"483 68 OFFCURVE",
"532 120 CURVE",
"428 198 LINE",
"386 154 OFFCURVE",
"338 133 OFFCURVE",
"279 133 CURVE SMOOTH",
"225 133 OFFCURVE",
"203 153 OFFCURVE",
"203 205 CURVE SMOOTH",
"203 285 LINE",
"77 334 LINE",
"77 268 LINE SMOOTH",
"77 142 OFFCURVE",
"190 37 OFFCURVE",
"323 37 CURVE SMOOTH"
);
},
{
closed = 1;
nodes = (
"203 592 LINE",
"77 592 LINE",
"77 277 LINE",
"203 222 LINE"
);
},
{
closed = 1;
nodes = (
"659 534 LINE",
"603 626 LINE",
"-64 626 LINE",
"-8 534 LINE"
);
},
{
closed = 1;
nodes = (
"526 592 LINE",
"399 592 LINE",
"399 357 LINE",
"526 291 LINE"
);
}
);
width = 595;
}
);
leftMetricsKey = Ga;
rightMetricsKey = Ga;
unicode = 1119B;
category = Letter;
},
{
color = 3;
glyphname = Ttha;
lastChange = "2023-01-15 19:36:35 +0000";
layers = (
{
anchors = (
{
name = Anchor14;
position = "{278, 0}";
},
{
name = Anchor16;
position = "{293, 0}";
},
{
name = Anchor17;
position = "{528, 710}";
},
{
name = Anchor18;
position = "{273, 710}";
},
{
name = Anchor19;
position = "{293, 0}";
},
{
name = Anchor20;
position = "{528, 710}";
},
{
name = Anchor21;
position = "{278, 0}";
}
);
background = {
paths = (
{
closed = 1;
nodes = (
"420 47 OFFCURVE",
"493 173 OFFCURVE",
"493 331 CURVE SMOOTH",
"493 519 OFFCURVE",
"424 628 OFFCURVE",
"281 628 CURVE SMOOTH",
"146 628 OFFCURVE",
"65 506 OFFCURVE",
"65 327 CURVE SMOOTH",
"65 156 OFFCURVE",
"141 47 OFFCURVE",
"275 47 CURVE SMOOTH"
);
},
{
closed = 1;
nodes = (
"212 123 OFFCURVE",
"147 171 OFFCURVE",
"148 325 CURVE SMOOTH",
"149 495 OFFCURVE",
"210 552 OFFCURVE",
"281 552 CURVE SMOOTH",
"355 552 OFFCURVE",
"412 498 OFFCURVE",
"410 334 CURVE SMOOTH",
"408 172 OFFCURVE",
"345 123 OFFCURVE",
"275 123 CURVE SMOOTH"
);
}
);
};
layerId = UUID0;
paths = (
{
closed = 1;
nodes = (
"421 57 OFFCURVE",
"504 160 OFFCURVE",
"504 315 CURVE SMOOTH",
"504 504 OFFCURVE",
"399 628 OFFCURVE",
"246 628 CURVE SMOOTH",
"153 628 OFFCURVE",
"56 538 OFFCURVE",
"56 345 CURVE SMOOTH",
"56 160 OFFCURVE",
"181 57 OFFCURVE",
"316 57 CURVE SMOOTH"
);
},
{
closed = 1;
nodes = (
"209 119 OFFCURVE",
"148 171 OFFCURVE",
"149 325 CURVE SMOOTH",
"150 495 OFFCURVE",
"209 566 OFFCURVE",
"280 566 CURVE SMOOTH",
"354 566 OFFCURVE",
"413 485 OFFCURVE",
"411 334 CURVE SMOOTH",
"409 196 OFFCURVE",
"354 119 OFFCURVE",
"272 119 CURVE SMOOTH"
);
}
);
width = 543;
},
{
anchors = (
{
name = Anchor14;
position = "{333, 0}";
},
{
name = Anchor16;
position = "{348, 0}";
},
{
name = Anchor17;
position = "{583, 710}";
},
{
name = Anchor18;
position = "{328, 710}";
},
{
name = Anchor19;
position = "{348, 0}";
},
{
name = Anchor20;
position = "{583, 710}";
},
{
name = Anchor21;
position = "{333, 0}";
}
);
background = {
paths = (
{
closed = 1;
nodes = (
"490 40 OFFCURVE",
"597 155 OFFCURVE",
"597 331 CURVE SMOOTH",
"597 527 OFFCURVE",
"503 635 OFFCURVE",
"331 635 CURVE SMOOTH",
"167 635 OFFCURVE",
"61 514 OFFCURVE",
"61 328 CURVE SMOOTH",
"61 150 OFFCURVE",
"162 40 OFFCURVE",
"324 40 CURVE SMOOTH"
);
},
{
closed = 1;
nodes = (
"247 160 OFFCURVE",
"203 219 OFFCURVE",
"204 326 CURVE SMOOTH",
"205 452 OFFCURVE",
"249 515 OFFCURVE",
"331 515 CURVE SMOOTH",
"416 515 OFFCURVE",
"456 457 OFFCURVE",
"454 334 CURVE SMOOTH",
"452 218 OFFCURVE",
"409 160 OFFCURVE",
"324 160 CURVE SMOOTH"
);
}
);
};
layerId = "FA3D6E7D-1564-4EF0-9765-0D5E9243D6E7";
paths = (
{
closed = 1;
nodes = (
"499 56 OFFCURVE",
"592 165 OFFCURVE",
"592 316 CURVE SMOOTH",
"592 503 OFFCURVE",
"472 629 OFFCURVE",
"292 629 CURVE SMOOTH",
"158 629 OFFCURVE",
"66 513 OFFCURVE",
"66 345 CURVE SMOOTH",
"66 176 OFFCURVE",
"193 56 OFFCURVE",
"369 56 CURVE SMOOTH"
);
},
{
closed = 1;
nodes = (
"245 135 OFFCURVE",
"201 205 OFFCURVE",
"201 325 CURVE SMOOTH",
"202 466 OFFCURVE",
"251 550 OFFCURVE",
"329 550 CURVE SMOOTH",
"406 550 OFFCURVE",
"459 463 OFFCURVE",
"457 334 CURVE SMOOTH",
"455 210 OFFCURVE",
"402 135 OFFCURVE",
"320 135 CURVE SMOOTH"
);
}
);
width = 643;
}
);
unicode = 1119C;
category = Letter;
},
{
color = 3;
glyphname = Dda;
lastChange = "2023-01-15 20:22:05 +0000";
layers = (
{
anchors = (
{
name = Anchor14;
position = "{381, 0}";
},
{
name = Anchor15;
position = "{436, 710}";
},
{
name = Anchor16;
position = "{378, 20}";
},
{
name = Anchor17;
position = "{536, 710}";
},
{
name = Anchor18;
position = "{306, 710}";
},
{
name = Anchor19;
position = "{378, 20}";
},
{
name = Anchor20;
position = "{536, 710}";
},
{
name = Anchor21;
position = "{381, 0}";
}
);
background = {
paths = (
{
closed = 1;
nodes = (
"498 84 OFFCURVE",
"523 150 OFFCURVE",
"523 215 CURVE SMOOTH",
"523 318 OFFCURVE",
"452 380 OFFCURVE",
"309 380 CURVE SMOOTH",
"281 380 OFFCURVE",
"219 380 OFFCURVE",
"215 380 CURVE",
"218 303 LINE",
"228 303 OFFCURVE",
"297 303 OFFCURVE",
"317 303 CURVE SMOOTH",
"403 303 OFFCURVE",
"441 271 OFFCURVE",
"441 217 CURVE SMOOTH",
"441 166 OFFCURVE",
"423 118 OFFCURVE",
"366 43 CURVE",
"435 -2 LINE"
);
},
{
closed = 1;
nodes = (
"601 550 LINE",
"601 625 LINE",
"5 625 LINE",
"5 550 LINE"
);
},
{
closed = 1;
nodes = (
"228 210 OFFCURVE",
"264 249 OFFCURVE",
"264 306 CURVE SMOOTH",
"264 441 LINE",
"179 442 LINE",
"179 381 LINE",
"118 378 OFFCURVE",
"82 341 OFFCURVE",
"82 295 CURVE SMOOTH",
"82 248 OFFCURVE",
"118 210 OFFCURVE",
"174 210 CURVE SMOOTH"
);
},
{
closed = 1;
nodes = (
"264 584 LINE",
"179 576 LINE",
"179 402 LINE",
"264 399 LINE"
);
}
);
};
layerId = UUID0;
paths = (
{
closed = 1;
nodes = (
"513 40 OFFCURVE",
"539 99 OFFCURVE",
"539 157 CURVE SMOOTH",
"539 270 OFFCURVE",
"431 385 OFFCURVE",
"266 385 CURVE SMOOTH",
"240 385 OFFCURVE",
"220 383 OFFCURVE",
"197 380 CURVE",
"213 276 LINE",
"248 298 OFFCURVE",
"293 313 OFFCURVE",
"333 313 CURVE SMOOTH",
"415 313 OFFCURVE",
"461 276 OFFCURVE",
"461 204 CURVE SMOOTH",
"461 143 OFFCURVE",
"433 80 OFFCURVE",
"388 24 CURVE",
"388 20 LINE",
"480 -8 LINE"
);
},
{
closed = 1;
nodes = (
"219 186 OFFCURVE",
"249 226 OFFCURVE",
"249 282 CURVE",
"249 567 LINE",
"164 607 LINE",
"164 381 LINE",
"89 378 OFFCURVE",
"54 336 OFFCURVE",
"54 291 CURVE",
"66 241 OFFCURVE",
"120 197 OFFCURVE",
"163 186 CURVE"
);
},
{
closed = 1;
nodes = (
"612 550 LINE",
"572 625 LINE",
"-24 625 LINE",
"16 550 LINE"
);
}
);
width = 588;
},
{
anchors = (
{
name = Anchor14;
position = "{383, 0}";
},
{
name = Anchor15;
position = "{438, 710}";
},
{
name = Anchor16;
position = "{380, 20}";
},
{
name = Anchor17;
position = "{538, 710}";
},
{
name = Anchor18;
position = "{308, 710}";
},
{
name = Anchor19;
position = "{380, 20}";
},
{
name = Anchor20;
position = "{538, 710}";
},
{
name = Anchor21;
position = "{383, 0}";
}
);
background = {
paths = (
{
closed = 1;
nodes = (
"542 76 OFFCURVE",
"579 148 OFFCURVE",
"579 221 CURVE SMOOTH",
"579 336 OFFCURVE",
"482 400 OFFCURVE",
"311 400 CURVE SMOOTH",
"279 400 OFFCURVE",
"208 400 OFFCURVE",
"204 400 CURVE",
"180 375 LINE",
"183 303 LINE",
"207 280 LINE",
"219 280 OFFCURVE",
"298 280 OFFCURVE",
"320 280 CURVE SMOOTH",
"409 280 OFFCURVE",
"437 260 OFFCURVE",
"437 223 CURVE SMOOTH",
"437 177 OFFCURVE",
"416 137 OFFCURVE",
"341 58 CURVE",
"459 -13 LINE"
);
},
{
closed = 1;
nodes = (
"668 512 LINE",
"668 630 LINE",
"-60 630 LINE",
"-60 512 LINE"
);
},
{
closed = 1;
nodes = (
"231 192 OFFCURVE",
"284 239 OFFCURVE",
"284 306 CURVE SMOOTH",
"284 457 LINE",
"139 458 LINE",
"139 399 LINE",
"73 389 OFFCURVE",
"28 349 OFFCURVE",
"28 296 CURVE SMOOTH",
"28 236 OFFCURVE",
"83 192 OFFCURVE",
"157 192 CURVE SMOOTH"
);
},
{
closed = 1;
nodes = (
"284 594 LINE",
"139 582 LINE",
"139 374 LINE",
"284 369 LINE"
);
}
);
};
layerId = "FA3D6E7D-1564-4EF0-9765-0D5E9243D6E7";
paths = (
{
closed = 1;
nodes = (
"569 48 OFFCURVE",
"595 108 OFFCURVE",
"595 161 CURVE SMOOTH",
"595 288 OFFCURVE",
"453 392 OFFCURVE",
"278 392 CURVE SMOOTH",
"242 392 OFFCURVE",
"216 389 OFFCURVE",
"184 386 CURVE",
"207 255 LINE",
"252 286 OFFCURVE",
"306 303 OFFCURVE",
"352 303 CURVE SMOOTH",
"435 303 OFFCURVE",
"476 271 OFFCURVE",
"476 207 CURVE SMOOTH",
"476 142 OFFCURVE",
"448 85 OFFCURVE",
"396 30 CURVE",
"396 22 LINE",
"521 -11 LINE"
);
},
{
closed = 1;
nodes = (
"164 180 CURVE",
"232 180 OFFCURVE",
"276 220 OFFCURVE",
"276 283 CURVE SMOOTH",
"276 564 LINE",
"150 617 LINE",
"150 387 LINE",
"77 380 OFFCURVE",
"29 343 OFFCURVE",
"29 291 CURVE",
"41 245 OFFCURVE",
"95 195 OFFCURVE"
);
},
{
closed = 1;
nodes = (
"682 533 LINE",
"626 625 LINE",
"-64 625 LINE",
"-8 533 LINE"
);
}
);
width = 618;
}
);
leftMetricsKey = Ga;
rightMetricsKey = Ga;
unicode = 1119D;
category = Letter;
},
{
color = 3;
glyphname = Ddha;
lastChange = "2023-01-15 20:22:05 +0000";
layers = (
{
anchors = (
{
name = Anchor14;
position = "{365, 0}";
},
{
name = Anchor16;
position = "{483, 0}";
},
{
name = Anchor17;
position = "{645, 710}";
},
{
name = Anchor18;
position = "{320, 710}";
},
{
name = Anchor19;
position = "{483, 0}";
},
{
name = Anchor20;
position = "{645, 710}";
},
{
name = Anchor21;
position = "{365, 0}";
}
);
background = {
anchors = (
{
name = Anchor14;
position = "{365, 0}";
},
{
name = Anchor16;
position = "{483, 0}";
},
{
name = Anchor17;
position = "{645, 710}";
},
{
name = Anchor18;
position = "{320, 710}";
},
{
name = Anchor19;
position = "{483, 0}";
},
{
name = Anchor20;
position = "{645, 710}";
},
{
name = Anchor21;
position = "{365, 0}";
}
);
paths = (
{
closed = 1;
nodes = (
"611 43 OFFCURVE",
"675 95 OFFCURVE",
"675 171 CURVE SMOOTH",
"675 248 OFFCURVE",
"617 301 OFFCURVE",
"536 301 CURVE SMOOTH",
"456 301 OFFCURVE",
"406 243 OFFCURVE",
"406 184 CURVE SMOOTH",
"406 139 OFFCURVE",
"430 108 OFFCURVE",
"463 81 CURVE",
"549 79 LINE",
"496 109 OFFCURVE",
"478 142 OFFCURVE",
"478 173 CURVE SMOOTH",
"478 209 OFFCURVE",
"503 234 OFFCURVE",
"538 234 CURVE SMOOTH",
"575 234 OFFCURVE",
"600 208 OFFCURVE",
"600 174 CURVE SMOOTH",
"600 138 OFFCURVE",
"569 113 OFFCURVE",
"527 113 CURVE SMOOTH",
"469 113 OFFCURVE",
"389 143 OFFCURVE",
"194 244 CURVE",
"179 165 LINE",
"362 74 OFFCURVE",
"457 43 OFFCURVE",
"523 43 CURVE SMOOTH"
);
},
{
closed = 1;
nodes = (
"701 550 LINE",
"701 625 LINE",
"-11 625 LINE",
"-11 550 LINE"
);
},
{
closed = 1;
nodes = (
"212 80 OFFCURVE",
"248 119 OFFCURVE",
"248 176 CURVE SMOOTH",
"248 311 LINE",
"163 312 LINE",
"163 251 LINE",
"102 248 OFFCURVE",
"66 211 OFFCURVE",
"66 165 CURVE SMOOTH",
"66 118 OFFCURVE",
"102 80 OFFCURVE",
"158 80 CURVE SMOOTH"
);
},
{
closed = 1;
nodes = (
"248 584 LINE",
"163 576 LINE",
"163 272 LINE",
"248 269 LINE"
);
}
);
};
layerId = UUID0;
paths = (
{
closed = 1;
nodes = (
"652 22 OFFCURVE",
"701 62 OFFCURVE",
"701 116 CURVE SMOOTH",
"701 208 OFFCURVE",
"602 303 OFFCURVE",
"506 303 CURVE SMOOTH",
"448 303 OFFCURVE",
"409 265 OFFCURVE",
"409 210 CURVE SMOOTH",
"409 165 OFFCURVE",
"438 112 OFFCURVE",
"479 79 CURVE",
"523 77 LINE",
"497 110 OFFCURVE",
"484 140 OFFCURVE",
"484 170 CURVE SMOOTH",
"484 210 OFFCURVE",
"510 239 OFFCURVE",
"550 239 CURVE SMOOTH",
"596 239 OFFCURVE",
"629 205 OFFCURVE",
"629 160 CURVE SMOOTH",
"629 119 OFFCURVE",
"601 90 OFFCURVE",
"543 90 CURVE SMOOTH",
"462 90 OFFCURVE",
"353 142 OFFCURVE",
"191 242 CURVE",
"181 195 LINE",
"351 92 OFFCURVE",
"483 22 OFFCURVE",
"588 22 CURVE SMOOTH"
);
},
{
closed = 1;
nodes = (
"219 56 OFFCURVE",
"249 96 OFFCURVE",
"249 152 CURVE",
"249 562 LINE",
"164 602 LINE",
"164 251 LINE",
"89 248 OFFCURVE",
"54 206 OFFCURVE",
"54 161 CURVE",
"66 111 OFFCURVE",
"120 67 OFFCURVE",
"163 56 CURVE"
);
},
{
closed = 1;
nodes = (
"729 550 LINE",
"689 625 LINE",
"-24 625 LINE",
"16 550 LINE"
);
}
);
width = 705;
},
{
anchors = (
{
name = Anchor14;
position = "{375, 0}";
},
{
name = Anchor16;
position = "{493, 0}";
},
{
name = Anchor17;
position = "{655, 710}";
},
{
name = Anchor18;
position = "{330, 710}";
},
{
name = Anchor19;
position = "{493, 0}";
},
{
name = Anchor20;
position = "{655, 710}";
},
{
name = Anchor21;
position = "{375, 0}";
}
);
background = {
paths = (
{
closed = 1;
nodes = (
"680 36 OFFCURVE",
"745 97 OFFCURVE",
"745 182 CURVE SMOOTH",
"745 272 OFFCURVE",
"673 332 OFFCURVE",
"574 332 CURVE SMOOTH",
"473 332 OFFCURVE",
"418 265 OFFCURVE",
"418 193 CURVE SMOOTH",
"418 157 OFFCURVE",
"439 108 OFFCURVE",
"493 72 CURVE",
"589 70 LINE",
"601 116 LINE",
"554 134 OFFCURVE",
"530 157 OFFCURVE",
"530 187 CURVE SMOOTH",
"530 215 OFFCURVE",
"550 233 OFFCURVE",
"580 233 CURVE SMOOTH",
"610 233 OFFCURVE",
"629 213 OFFCURVE",
"629 189 CURVE SMOOTH",
"629 164 OFFCURVE",
"610 144 OFFCURVE",
"571 144 CURVE SMOOTH",
"504 144 OFFCURVE",
"396 183 OFFCURVE",
"183 282 CURVE",
"155 161 LINE",
"369 72 OFFCURVE",
"484 36 OFFCURVE",
"569 36 CURVE SMOOTH"
);
},
{
closed = 1;
nodes = (
"786 512 LINE",
"786 630 LINE",
"-58 630 LINE",
"-58 512 LINE"
);
},
{
closed = 1;
nodes = (
"233 71 OFFCURVE",
"285 118 OFFCURVE",
"285 185 CURVE SMOOTH",
"285 336 LINE",
"141 337 LINE",
"141 278 LINE",
"75 268 OFFCURVE",
"30 228 OFFCURVE",
"30 175 CURVE SMOOTH",
"30 115 OFFCURVE",
"85 71 OFFCURVE",
"159 71 CURVE SMOOTH"
);
},
{
closed = 1;
nodes = (
"285 595 LINE",
"141 583 LINE",
"141 253 LINE",
"285 248 LINE"
);
}
);
};
layerId = "FA3D6E7D-1564-4EF0-9765-0D5E9243D6E7";
paths = (
{
closed = 1;
nodes = (
"713 21 OFFCURVE",
"754 65 OFFCURVE",
"754 122 CURVE SMOOTH",
"754 217 OFFCURVE",
"647 313 OFFCURVE",
"532 313 CURVE SMOOTH",
"461 313 OFFCURVE",
"415 274 OFFCURVE",
"415 213 CURVE SMOOTH",
"415 167 OFFCURVE",
"444 112 OFFCURVE",
"495 77 CURVE",
"580 73 LINE",
"543 109 OFFCURVE",
"525 143 OFFCURVE",
"525 175 CURVE SMOOTH",
"525 209 OFFCURVE",
"547 232 OFFCURVE",
"581 232 CURVE SMOOTH",
"622 232 OFFCURVE",
"651 204 OFFCURVE",
"651 165 CURVE SMOOTH",
"651 127 OFFCURVE",
"624 107 OFFCURVE",
"573 107 CURVE SMOOTH",
"492 107 OFFCURVE",
"388 151 OFFCURVE",
"184 264 CURVE",
"167 195 LINE",
"357 94 OFFCURVE",
"500 21 OFFCURVE",
"623 21 CURVE SMOOTH"
);
},
{
closed = 1;
nodes = (
"165 54 CURVE",
"234 54 OFFCURVE",
"276 94 OFFCURVE",
"276 157 CURVE SMOOTH",
"276 560 LINE",
"150 612 LINE",
"150 262 LINE",
"77 255 OFFCURVE",
"29 218 OFFCURVE",
"29 166 CURVE",
"42 116 OFFCURVE",
"100 68 OFFCURVE"
);
},
{
closed = 1;
nodes = (
"801 533 LINE",
"745 625 LINE",
"-64 625 LINE",
"-8 533 LINE"
);
}
);
width = 737;
}
);
leftMetricsKey = Ga;
rightMetricsKey = Ga;
unicode = 1119E;
category = Letter;
},
{
color = 3;
glyphname = Nna;
lastChange = "2023-01-15 19:38:08 +0000";
layers = (
{
anchors = (
{
name = Anchor14;
position = "{350, 0}";
},
{
name = Anchor15;
position = "{354, 710}";
},
{
name = Anchor16;
position = "{639, 0}";
},
{
name = Anchor17;
position = "{645, 710}";
},
{
name = Anchor18;
position = "{345, 710}";
},
{
name = Anchor19;
position = "{639, 0}";
},
{
name = Anchor20;
position = "{645, 710}";
},
{
name = Anchor21;
position = "{350, 0}";
}
);
background = {
anchors = (
{
name = Anchor14;
position = "{350, 0}";
},
{
name = Anchor15;
position = "{354, 710}";
},
{
name = Anchor16;
position = "{639, 0}";
},
{
name = Anchor17;
position = "{645, 710}";
},
{
name = Anchor18;
position = "{345, 710}";
},
{
name = Anchor19;
position = "{639, 0}";
},
{
name = Anchor20;
position = "{645, 710}";
},
{
name = Anchor21;
position = "{350, 0}";
}
);
paths = (
{
closed = 1;
nodes = (
"670 365 LINE",
"826 587 LINE",
"759 634 LINE",
"654 487 LINE",
"651 487 LINE",
"627 576 OFFCURVE",
"576 626 OFFCURVE",
"499 626 CURVE SMOOTH",
"439 626 OFFCURVE",
"396 589 OFFCURVE",
"367 535 CURVE",
"351 535 LINE",
"322 368 LINE",
"404 368 LINE",
"420 501 OFFCURVE",
"459 544 OFFCURVE",
"501 544 CURVE SMOOTH",
"546 544 OFFCURVE",
"574 507 OFFCURVE",
"594 365 CURVE"
);
},
{
closed = 1;
nodes = (
"144 498 OFFCURVE",
"185 544 OFFCURVE",
"228 544 CURVE SMOOTH",
"276 544 OFFCURVE",
"310 502 OFFCURVE",
"322 368 CURVE",
"394 407 LINE",
"365 530 LINE",
"342 586 OFFCURVE",
"296 626 OFFCURVE",
"227 626 CURVE SMOOTH",
"134 626 OFFCURVE",
"62 549 OFFCURVE",
"50 367 CURVE",
"137 367 LINE"
);
}
);
};
layerId = UUID0;
paths = (
{
closed = 1;
nodes = (
"583 380 LINE",
"632 490 OFFCURVE",
"673 529 OFFCURVE",
"720 550 CURVE",
"672 625 LINE",
"626 605 OFFCURVE",
"581 550 OFFCURVE",
"556 497 CURVE",
"553 497 LINE",
"510 585 OFFCURVE",
"467 629 OFFCURVE",
"414 629 CURVE SMOOTH",
"371 629 OFFCURVE",
"331 590 OFFCURVE",
"313 505 CURVE",
"296 504 LINE",
"328 383 LINE",
"356 383 LINE",
"377 498 OFFCURVE",
"405 534 OFFCURVE",
"444 534 CURVE SMOOTH",
"481 534 OFFCURVE",
"515 492 OFFCURVE",
"560 380 CURVE"
);
},
{
closed = 1;
nodes = (
"124 492 OFFCURVE",
"158 534 OFFCURVE",
"199 534 CURVE SMOOTH",
"236 534 OFFCURVE",
"275 504 OFFCURVE",
"328 383 CURVE",
"343 443 LINE",
"318 488 LINE",
"279 571 OFFCURVE",
"230 629 OFFCURVE",
"167 629 CURVE SMOOTH",
"109 629 OFFCURVE",
"63 568 OFFCURVE",
"39 467 CURVE",
"80 365 LINE",
"92 364 LINE"
);
}
);
width = 753;
},
{
anchors = (
{
name = Anchor14;
position = "{460, 0}";
},
{
name = Anchor15;
position = "{464, 710}";
},
{
name = Anchor16;
position = "{749, 0}";
},
{
name = Anchor17;
position = "{755, 710}";
},
{
name = Anchor18;
position = "{455, 710}";
},
{
name = Anchor19;
position = "{749, 0}";
},
{
name = Anchor20;
position = "{755, 710}";
},
{
name = Anchor21;
position = "{460, 0}";
}
);
background = {
paths = (
{
closed = 1;
nodes = (
"793 349 LINE",
"997 588 LINE",
"879 657 LINE",
"753 512 LINE",
"753 483 LINE",
"784 486 LINE",
"752 580 OFFCURVE",
"685 642 OFFCURVE",
"590 642 CURVE SMOOTH",
"524 642 OFFCURVE",
"470 610 OFFCURVE",
"429 547 CURVE",
"400 547 LINE",
"367 352 LINE",
"500 352 LINE",
"512 463 OFFCURVE",
"543 517 OFFCURVE",
"589 517 CURVE SMOOTH",
"632 517 OFFCURVE",
"658 474 OFFCURVE",
"676 349 CURVE"
);
},
{
closed = 1;
nodes = (
"204 458 OFFCURVE",
"227 517 OFFCURVE",
"279 517 CURVE SMOOTH",
"326 517 OFFCURVE",
"355 477 OFFCURVE",
"367 352 CURVE",
"497 400 LINE",
"453 527 LINE",
"420 604 OFFCURVE",
"357 642 OFFCURVE",
"274 642 CURVE SMOOTH",
"136 642 OFFCURVE",
"57 535 OFFCURVE",
"51 351 CURVE",
"198 351 LINE"
);
}
);
};
layerId = "FA3D6E7D-1564-4EF0-9765-0D5E9243D6E7";
paths = (
{
closed = 1;
nodes = (
"685 374 LINE",
"737 478 OFFCURVE",
"782 525 OFFCURVE",
"844 544 CURVE",
"779 635 LINE",
"724 620 OFFCURVE",
"660 565 OFFCURVE",
"625 491 CURVE",
"619 483 LINE",
"620 477 LINE",
"657 479 LINE",
"612 573 OFFCURVE",
"556 635 OFFCURVE",
"487 635 CURVE SMOOTH",
"427 635 OFFCURVE",
"387 589 OFFCURVE",
"367 514 CURVE",
"338 512 LINE",
"380 377 LINE",
"438 377 LINE",
"459 480 OFFCURVE",
"485 523 OFFCURVE",
"520 523 CURVE SMOOTH",
"552 523 OFFCURVE",
"587 484 OFFCURVE",
"635 374 CURVE"
);
},
{
closed = 1;
nodes = (
"168 467 OFFCURVE",
"203 523 OFFCURVE",
"251 523 CURVE SMOOTH",
"291 523 OFFCURVE",
"335 475 OFFCURVE",
"380 377 CURVE",
"409 384 LINE",
"426 445 LINE",
"396 483 LINE",
"342 583 OFFCURVE",
"286 635 OFFCURVE",
"216 635 CURVE SMOOTH",
"143 635 OFFCURVE",
"86 574 OFFCURVE",
"58 467 CURVE",
"124 355 LINE",
"137 352 LINE"
);
}
);
width = 884;
}
);
unicode = 1119F;
category = Letter;
},
{
color = 3;
glyphname = Ta;
lastChange = "2023-01-15 21:42:47 +0000";
layers = (
{
anchors = (
{
name = Anchor14;
position = "{264, 0}";
},
{
name = Anchor16;
position = "{329, 0}";
},
{
name = Anchor17;
position = "{455, 710}";
},
{
name = Anchor18;
position = "{299, 710}";
},
{
name = Anchor19;
position = "{329, 0}";
},
{
name = Anchor20;
position = "{455, 710}";
},
{
name = Anchor21;
position = "{264, 0}";
}
);
background = {
paths = (
{
closed = 1;
nodes = (
"182 296 LINE",
"182 306 LINE",
"317 316 OFFCURVE",
"381 377 OFFCURVE",
"381 462 CURVE SMOOTH",
"381 505 OFFCURVE",
"363 549 OFFCURVE",
"333 593 CURVE",
"309 598 OFFCURVE",
"248 594 OFFCURVE",
"242 593 CURVE",
"286 539 OFFCURVE",
"298 505 OFFCURVE",
"298 464 CURVE SMOOTH",
"298 413 OFFCURVE",
"265 372 OFFCURVE",
"143 372 CURVE SMOOTH",
"114 372 LINE",
"114 296 LINE"
);
},
{
closed = 1;
nodes = (
"464 550 LINE",
"464 625 LINE",
"-2 625 LINE",
"-2 550 LINE"
);
},
{
closed = 1;
nodes = (
"317 296 OFFCURVE",
"353 232 OFFCURVE",
"353 178 CURVE SMOOTH",
"353 122 OFFCURVE",
"316 86 OFFCURVE",
"239 86 CURVE SMOOTH",
"189 86 OFFCURVE",
"137 100 OFFCURVE",
"71 140 CURVE",
"37 69 LINE",
"111 23 OFFCURVE",
"175 8 OFFCURVE",
"242 8 CURVE SMOOTH",
"374 8 OFFCURVE",
"440 80 OFFCURVE",
"441 175 CURVE SMOOTH",
"442 260 OFFCURVE",
"383 339 OFFCURVE",
"261 349 CURVE",
"243 349 OFFCURVE",
"159 301 OFFCURVE",
"151 296 CURVE"
);
}
);
};
layerId = UUID0;
paths = (
{
closed = 1;
nodes = (
"387 2 OFFCURVE",
"447 66 OFFCURVE",
"448 151 CURVE SMOOTH",
"449 239 OFFCURVE",
"381 311 OFFCURVE",
"282 354 CURVE",
"264 354 OFFCURVE",
"156 348 OFFCURVE",
"148 343 CURVE",
"303 321 LINE",
"345 345 OFFCURVE",
"371 381 OFFCURVE",
"371 424 CURVE SMOOTH",
"371 473 OFFCURVE",
"340 541 OFFCURVE",
"304 583 CURVE",
"286 598 OFFCURVE",
"225 606 OFFCURVE",
"219 605 CURVE",
"266 562 OFFCURVE",
"295 511 OFFCURVE",
"295 474 CURVE SMOOTH",
"295 422 OFFCURVE",
"263 389 OFFCURVE",
"107 363 CURVE",
"119 338 OFFCURVE",
"161 293 OFFCURVE",
"184 278 CURVE",
"214 284 OFFCURVE",
"235 290 OFFCURVE",
"270 300 CURVE",
"323 276 OFFCURVE",
"351 239 OFFCURVE",
"351 190 CURVE SMOOTH",
"351 117 OFFCURVE",
"310 72 OFFCURVE",
"225 72 CURVE SMOOTH",
"171 72 OFFCURVE",
"111 92 OFFCURVE",
"64 120 CURVE",
"62 118 LINE",
"54 76 LINE",
"123 30 OFFCURVE",
"208 2 OFFCURVE",
"276 2 CURVE SMOOTH"
);
},
{
closed = 1;
nodes = (
"478 550 LINE",
"438 625 LINE",
"-24 625 LINE",
"16 550 LINE"
);
}
);
width = 454;
},
{
anchors = (
{
name = Anchor14;
position = "{300, 0}";
},
{
name = Anchor16;
position = "{365, 0}";
},
{
name = Anchor17;
position = "{475, 710}";
},
{
name = Anchor18;
position = "{265, 710}";
},
{
name = Anchor19;
position = "{365, 0}";
},
{
name = Anchor20;
position = "{475, 710}";
},
{
name = Anchor21;
position = "{300, 0}";
}
);
background = {
paths = (
{
closed = 1;
nodes = (
"235 273 LINE",
"235 291 LINE",
"379 304 OFFCURVE",
"462 358 OFFCURVE",
"462 453 CURVE SMOOTH",
"462 496 OFFCURVE",
"441 543 OFFCURVE",
"401 591 CURVE",
"387 600 LINE",
"358 605 OFFCURVE",
"283 601 OFFCURVE",
"276 600 CURVE",
"263 559 LINE",
"306 516 OFFCURVE",
"319 491 OFFCURVE",
"319 455 CURVE SMOOTH",
"319 417 OFFCURVE",
"286 393 OFFCURVE",
"167 393 CURVE SMOOTH",
"120 393 LINE",
"120 273 LINE"
);
},
{
closed = 1;
nodes = (
"557 512 LINE",
"557 630 LINE",
"-23 630 LINE",
"-23 512 LINE"
);
},
{
closed = 1;
nodes = (
"176 273 LINE",
"312 273 OFFCURVE",
"382 241 OFFCURVE",
"382 186 CURVE SMOOTH",
"382 146 OFFCURVE",
"347 124 OFFCURVE",
"276 124 CURVE SMOOTH",
"212 124 OFFCURVE",
"151 142 OFFCURVE",
"76 183 CURVE",
"13 75 LINE",
"101 25 OFFCURVE",
"184 3 OFFCURVE",
"280 3 CURVE SMOOTH",
"432 3 OFFCURVE",
"529 72 OFFCURVE",
"530 183 CURVE SMOOTH",
"533 290 OFFCURVE",
"441 362 OFFCURVE",
"291 364 CURVE",
"266 364 OFFCURVE",
"174 323 OFFCURVE",
"164 318 CURVE"
);
}
);
};
layerId = "FA3D6E7D-1564-4EF0-9765-0D5E9243D6E7";
paths = (
{
closed = 1;
nodes = (
"412 2 OFFCURVE",
"493 62 OFFCURVE",
"495 156 CURVE SMOOTH",
"496 240 OFFCURVE",
"425 314 OFFCURVE",
"302 362 CURVE",
"257 362 OFFCURVE",
"148 355 OFFCURVE",
"139 350 CURVE",
"323 310 LINE",
"379 338 OFFCURVE",
"410 376 OFFCURVE",
"410 421 CURVE SMOOTH",
"410 468 OFFCURVE",
"378 540 OFFCURVE",
"332 581 CURVE",
"300 586 OFFCURVE",
"257 589 OFFCURVE",
"215 589 CURVE",
"262 551 OFFCURVE",
"293 503 OFFCURVE",
"293 469 CURVE SMOOTH",
"293 417 OFFCURVE",
"240 390 OFFCURVE",
"82 368 CURVE",
"105 332 OFFCURVE",
"139 298 OFFCURVE",
"191 268 CURVE",
"217 273 OFFCURVE",
"251 282 OFFCURVE",
"281 289 CURVE",
"330 268 OFFCURVE",
"355 236 OFFCURVE",
"355 194 CURVE SMOOTH",
"355 125 OFFCURVE",
"321 89 OFFCURVE",
"233 89 CURVE SMOOTH",
"176 89 OFFCURVE",
"118 106 OFFCURVE",
"49 142 CURVE",
"43 141 LINE",
"27 80 LINE",
"104 33 OFFCURVE",
"207 2 OFFCURVE",
"289 2 CURVE SMOOTH"
);
},
{
closed = 1;
nodes = (
"534 533 LINE",
"479 625 LINE",
"-64 625 LINE",
"-9 533 LINE"
);
}
);
width = 470;
}
);
leftMetricsKey = Ga;
rightMetricsKey = Ga;
unicode = 111A0;
category = Letter;
},
{
color = 3;
glyphname = Tha;
lastChange = "2023-01-15 20:22:05 +0000";
layers = (
{
anchors = (
{
name = Anchor14;
position = "{267, 0}";
},
{
name = Anchor15;
position = "{262, 710}";
},
{
name = Anchor16;
position = "{474, 0}";
},
{
name = Anchor17;
position = "{562, 710}";
},
{
name = Anchor18;
position = "{242, 710}";
},
{
name = Anchor19;
position = "{474, 0}";
},
{
name = Anchor20;
position = "{562, 710}";
},
{
name = Anchor21;
position = "{267, 0}";
}
);
background = {
paths = (
{
closed = 1;
nodes = (
"341 138 OFFCURVE",
"391 155 OFFCURVE",
"442 192 CURVE",
"425 274 LINE",
"374 233 OFFCURVE",
"325 218 OFFCURVE",
"278 218 CURVE SMOOTH",
"206 218 OFFCURVE",
"173 247 OFFCURVE",
"173 328 CURVE SMOOTH",
"173 595 LINE",
"88 595 LINE",
"88 330 LINE SMOOTH",
"88 203 OFFCURVE",
"168 138 OFFCURVE",
"280 138 CURVE SMOOTH"
);
},
{
closed = 1;
nodes = (
"421 356 LINE",
"411 427 LINE",
"128 427 LINE",
"138 356 LINE"
);
},
{
closed = 1;
nodes = (
"473 590 LINE",
"388 615 LINE",
"388 0 LINE",
"473 0 LINE"
);
},
{
closed = 1;
nodes = (
"559 550 LINE",
"559 625 LINE",
"-9 625 LINE",
"-9 550 LINE"
);
}
);
};
layerId = UUID0;
paths = (
{
closed = 1;
nodes = (
"364 138 OFFCURVE",
"413 167 OFFCURVE",
"442 194 CURVE",
"425 282 LINE",
"367 233 OFFCURVE",
"315 213 OFFCURVE",
"258 213 CURVE SMOOTH",
"189 213 OFFCURVE",
"173 239 OFFCURVE",
"173 278 CURVE SMOOTH",
"173 311 OFFCURVE",
"183 398 OFFCURVE",
"183 435 CURVE SMOOTH",
"183 488 OFFCURVE",
"166 519 OFFCURVE",
"115 566 CURVE",
"51 566 LINE",
"84 539 OFFCURVE",
"98 516 OFFCURVE",
"98 475 CURVE SMOOTH",
"98 435 OFFCURVE",
"88 366 OFFCURVE",
"88 330 CURVE SMOOTH",
"88 223 OFFCURVE",
"214 138 OFFCURVE",
"298 138 CURVE SMOOTH"
);
},
{
closed = 1;
nodes = (
"441 360 LINE",
"411 421 LINE",
"128 421 LINE",
"158 360 LINE"
);
},
{
closed = 1;
nodes = (
"473 590 LINE",
"388 625 LINE",
"388 30 LINE",
"473 -20 LINE"
);
},
{
closed = 1;
nodes = (
"578 550 LINE",
"538 625 LINE",
"-24 625 LINE",
"16 550 LINE"
);
}
);
width = 554;
},
{
anchors = (
{
name = Anchor14;
position = "{316, 0}";
},
{
name = Anchor15;
position = "{311, 710}";
},
{
name = Anchor16;
position = "{523, 0}";
},
{
name = Anchor17;
position = "{611, 710}";
},
{
name = Anchor18;
position = "{291, 710}";
},
{
name = Anchor19;
position = "{523, 0}";
},
{
name = Anchor20;
position = "{611, 710}";
},
{
name = Anchor21;
position = "{316, 0}";
}
);
background = {
paths = (
{
closed = 1;
nodes = (
"357 124 OFFCURVE",
"424 144 OFFCURVE",
"490 188 CURVE",
"459 308 LINE",
"399 267 OFFCURVE",
"339 248 OFFCURVE",
"276 248 CURVE SMOOTH",
"203 248 OFFCURVE",
"181 268 OFFCURVE",
"181 327 CURVE SMOOTH",
"181 602 LINE",
"36 602 LINE",
"36 329 LINE SMOOTH",
"36 203 OFFCURVE",
"130 124 OFFCURVE",
"279 124 CURVE SMOOTH"
);
},
{
closed = 1;
nodes = (
"467 349 LINE",
"448 444 LINE",
"76 444 LINE",
"97 349 LINE"
);
},
{
closed = 1;
nodes = (
"523 592 LINE",
"378 618 LINE",
"378 0 LINE",
"523 0 LINE"
);
},
{
closed = 1;
nodes = (
"621 512 LINE",
"621 630 LINE",
"-75 630 LINE",
"-75 512 LINE"
);
}
);
};
layerId = "FA3D6E7D-1564-4EF0-9765-0D5E9243D6E7";
paths = (
{
closed = 1;
nodes = (
"397 133 OFFCURVE",
"460 169 OFFCURVE",
"489 195 CURVE",
"464 307 LINE",
"393 249 OFFCURVE",
"336 225 OFFCURVE",
"269 225 CURVE SMOOTH",
"211 225 OFFCURVE",
"192 239 OFFCURVE",
"192 279 CURVE SMOOTH",
"192 294 OFFCURVE",
"195 321 OFFCURVE",
"197 350 CURVE SMOOTH",
"200 380 OFFCURVE",
"203 412 OFFCURVE",
"203 431 CURVE SMOOTH",
"203 485 OFFCURVE",
"183 517 OFFCURVE",
"120 568 CURVE",
"5 568 LINE",
"59 535 OFFCURVE",
"77 513 OFFCURVE",
"77 470 CURVE SMOOTH",
"77 450 OFFCURVE",
"74 423 OFFCURVE",
"71 397 CURVE SMOOTH",
"68 372 OFFCURVE",
"66 346 OFFCURVE",
"66 329 CURVE SMOOTH",
"66 233 OFFCURVE",
"194 133 OFFCURVE",
"313 133 CURVE SMOOTH"
);
},
{
closed = 1;
nodes = (
"493 349 LINE",
"449 427 LINE",
"103 427 LINE",
"147 349 LINE"
);
},
{
closed = 1;
nodes = (
"522 587 LINE",
"396 612 LINE",
"396 34 LINE",
"522 -32 LINE"
);
},
{
closed = 1;
nodes = (
"644 533 LINE",
"589 625 LINE",
"-64 625 LINE",
"-9 533 LINE"
);
}
);
width = 580;
}
);
leftMetricsKey = Ga;
rightMetricsKey = Ga;
unicode = 111A1;
category = Letter;
},
{
color = 3;
glyphname = Da;
lastChange = "2023-01-15 20:22:05 +0000";
layers = (
{
anchors = (
{
name = Anchor14;
position = "{347, 0}";
},
{
name = Anchor16;
position = "{547, 0}";
},
{
name = Anchor17;
position = "{667, 710}";
},
{
name = Anchor18;
position = "{342, 710}";
},
{
name = Anchor19;
position = "{547, 0}";
},
{
name = Anchor20;
position = "{667, 710}";
},
{
name = Anchor21;
position = "{347, 0}";
}
);
background = {
paths = (
{
closed = 1;
nodes = (
"552 48 OFFCURVE",
"601 88 OFFCURVE",
"601 164 CURVE SMOOTH",
"601 262 LINE",
"518 262 LINE",
"519 177 LINE SMOOTH",
"519 146 OFFCURVE",
"505 129 OFFCURVE",
"478 129 CURVE SMOOTH",
"441 129 OFFCURVE",
"380 149 OFFCURVE",
"204 247 CURVE",
"181 166 LINE",
"355 73 OFFCURVE",
"434 48 OFFCURVE",
"486 48 CURVE SMOOTH"
);
},
{
closed = 1;
nodes = (
"646 550 LINE",
"646 625 LINE",
"-9 625 LINE",
"-9 550 LINE"
);
},
{
closed = 1;
nodes = (
"214 80 OFFCURVE",
"250 119 OFFCURVE",
"250 176 CURVE SMOOTH",
"250 311 LINE",
"165 312 LINE",
"165 251 LINE",
"104 248 OFFCURVE",
"68 211 OFFCURVE",
"68 165 CURVE SMOOTH",
"68 118 OFFCURVE",
"104 80 OFFCURVE",
"160 80 CURVE SMOOTH"
);
},
{
closed = 1;
nodes = (
"250 584 LINE",
"165 576 LINE",
"165 272 LINE",
"250 269 LINE"
);
}
);
};
layerId = UUID0;
paths = (
{
closed = 1;
nodes = (
"584 44 OFFCURVE",
"620 95 OFFCURVE",
"620 190 CURVE SMOOTH",
"620 261 LINE",
"535 306 LINE",
"535 219 LINE SMOOTH",
"535 147 OFFCURVE",
"509 121 OFFCURVE",
"466 121 CURVE SMOOTH",
"432 121 OFFCURVE",
"390 134 OFFCURVE",
"190 254 CURVE",
"180 200 LINE",
"378 83 OFFCURVE",
"461 44 OFFCURVE",
"522 44 CURVE SMOOTH"
);
},
{
closed = 1;
nodes = (
"220 56 OFFCURVE",
"250 96 OFFCURVE",
"250 152 CURVE",
"250 571 LINE",
"165 611 LINE",
"165 251 LINE",
"90 248 OFFCURVE",
"55 206 OFFCURVE",
"55 161 CURVE",
"67 111 OFFCURVE",
"121 67 OFFCURVE",
"164 56 CURVE"
);
},
{
closed = 1;
nodes = (
"674 550 LINE",
"634 625 LINE",
"-24 625 LINE",
"16 550 LINE"
);
}
);
width = 650;
},
{
anchors = (
{
name = Anchor14;
position = "{330, 0}";
},
{
name = Anchor16;
position = "{530, 0}";
},
{
name = Anchor17;
position = "{650, 710}";
},
{
name = Anchor18;
position = "{325, 710}";
},
{
name = Anchor19;
position = "{530, 0}";
},
{
name = Anchor20;
position = "{650, 710}";
},
{
name = Anchor21;
position = "{330, 0}";
}
);
background = {
anchors = (
{
name = Anchor14;
position = "{330, 0}";
},
{
name = Anchor16;
position = "{530, 0}";
},
{
name = Anchor17;
position = "{650, 710}";
},
{
name = Anchor18;
position = "{325, 710}";
},
{
name = Anchor19;
position = "{530, 0}";
},
{
name = Anchor20;
position = "{650, 710}";
},
{
name = Anchor21;
position = "{330, 0}";
}
);
paths = (
{
closed = 1;
nodes = (
"629 41 OFFCURVE",
"681 84 OFFCURVE",
"681 174 CURVE SMOOTH",
"681 303 LINE",
"538 303 LINE",
"539 204 LINE SMOOTH",
"539 184 OFFCURVE",
"530 172 OFFCURVE",
"510 172 CURVE SMOOTH",
"482 172 OFFCURVE",
"397 199 OFFCURVE",
"210 285 CURVE",
"168 163 LINE",
"361 77 OFFCURVE",
"472 41 OFFCURVE",
"535 41 CURVE SMOOTH"
);
},
{
closed = 1;
nodes = (
"752 512 LINE",
"752 630 LINE",
"-43 630 LINE",
"-43 512 LINE"
);
},
{
closed = 1;
nodes = (
"248 71 OFFCURVE",
"300 118 OFFCURVE",
"300 186 CURVE SMOOTH",
"300 337 LINE",
"156 337 LINE",
"156 278 LINE",
"89 268 OFFCURVE",
"45 229 OFFCURVE",
"45 175 CURVE SMOOTH",
"45 115 OFFCURVE",
"100 71 OFFCURVE",
"174 71 CURVE SMOOTH"
);
},
{
closed = 1;
nodes = (
"300 595 LINE",
"156 584 LINE",
"156 253 LINE",
"300 248 LINE"
);
}
);
};
layerId = "FA3D6E7D-1564-4EF0-9765-0D5E9243D6E7";
paths = (
{
closed = 1;
nodes = (
"640 43 OFFCURVE",
"684 98 OFFCURVE",
"684 194 CURVE SMOOTH",
"684 268 LINE",
"557 327 LINE",
"557 222 LINE SMOOTH",
"557 163 OFFCURVE",
"538 137 OFFCURVE",
"498 137 CURVE SMOOTH",
"456 137 OFFCURVE",
"385 168 OFFCURVE",
"182 276 CURVE",
"166 200 LINE",
"397 80 OFFCURVE",
"488 43 OFFCURVE",
"560 43 CURVE SMOOTH"
);
},
{
closed = 1;
nodes = (
"166 54 CURVE",
"235 54 OFFCURVE",
"277 95 OFFCURVE",
"277 157 CURVE SMOOTH",
"277 569 LINE",
"151 621 LINE",
"151 262 LINE",
"78 255 OFFCURVE",
"30 218 OFFCURVE",
"30 166 CURVE",
"42 120 OFFCURVE",
"97 69 OFFCURVE"
);
},
{
closed = 1;
nodes = (
"750 533 LINE",
"694 625 LINE",
"-64 625 LINE",
"-8 533 LINE"
);
}
);
width = 686;
}
);
leftMetricsKey = Ga;
rightMetricsKey = Ga;
unicode = 111A2;
category = Letter;
},
{
color = 3;
glyphname = Dha;
lastChange = "2023-01-15 20:22:05 +0000";
layers = (
{
anchors = (
{
name = Anchor14;
position = "{278, 0}";
},
{
name = Anchor15;
position = "{228, 710}";
},
{
name = Anchor16;
position = "{328, 0}";
},
{
name = Anchor17;
position = "{558, 710}";
},
{
name = Anchor18;
position = "{273, 710}";
},
{
name = Anchor19;
position = "{328, 0}";
},
{
name = Anchor20;
position = "{558, 710}";
},
{
name = Anchor21;
position = "{278, 0}";
}
);
background = {
paths = (
{
closed = 1;
nodes = (
"398 73 OFFCURVE",
"468 136 OFFCURVE",
"468 253 CURVE SMOOTH",
"468 590 LINE",
"383 605 LINE",
"383 262 LINE SMOOTH",
"383 187 OFFCURVE",
"349 151 OFFCURVE",
"281 151 CURVE SMOOTH",
"209 151 OFFCURVE",
"175 185 OFFCURVE",
"175 256 CURVE SMOOTH",
"175 319 LINE",
"90 337 LINE",
"90 248 LINE SMOOTH",
"90 133 OFFCURVE",
"169 73 OFFCURVE",
"281 73 CURVE SMOOTH"
);
},
{
closed = 1;
nodes = (
"175 591 LINE",
"90 601 LINE",
"90 291 LINE",
"175 269 LINE"
);
},
{
closed = 1;
nodes = (
"555 550 LINE",
"555 625 LINE",
"-8 625 LINE",
"-8 550 LINE"
);
}
);
};
layerId = UUID0;
paths = (
{
closed = 1;
nodes = (
"384 74 OFFCURVE",
"467 147 OFFCURVE",
"467 236 CURVE SMOOTH",
"467 590 LINE",
"382 625 LINE",
"382 263 LINE SMOOTH",
"382 194 OFFCURVE",
"326 148 OFFCURVE",
"253 148 CURVE SMOOTH",
"192 148 OFFCURVE",
"174 173 OFFCURVE",
"174 236 CURVE SMOOTH",
"174 299 LINE",
"89 337 LINE",
"89 237 LINE SMOOTH",
"89 176 OFFCURVE",
"196 74 OFFCURVE",
"288 74 CURVE SMOOTH"
);
},
{
closed = 1;
nodes = (
"174 591 LINE",
"89 621 LINE",
"89 291 LINE",
"174 249 LINE"
);
},
{
closed = 1;
nodes = (
"569 550 LINE",
"529 625 LINE",
"-24 625 LINE",
"16 550 LINE"
);
}
);
width = 545;
},
{
anchors = (
{
name = Anchor14;
position = "{285, 0}";
},
{
name = Anchor15;
position = "{235, 710}";
},
{
name = Anchor16;
position = "{335, 0}";
},
{
name = Anchor17;
position = "{565, 710}";
},
{
name = Anchor18;
position = "{280, 710}";
},
{
name = Anchor19;
position = "{335, 0}";
},
{
name = Anchor20;
position = "{565, 710}";
},
{
name = Anchor21;
position = "{285, 0}";
}
);
background = {
anchors = (
{
name = Anchor14;
position = "{285, 0}";
},
{
name = Anchor15;
position = "{235, 710}";
},
{
name = Anchor16;
position = "{335, 0}";
},
{
name = Anchor17;
position = "{565, 710}";
},
{
name = Anchor18;
position = "{280, 710}";
},
{
name = Anchor19;
position = "{335, 0}";
},
{
name = Anchor20;
position = "{565, 710}";
},
{
name = Anchor21;
position = "{285, 0}";
}
);
paths = (
{
closed = 1;
nodes = (
"443 60 OFFCURVE",
"531 137 OFFCURVE",
"531 259 CURVE SMOOTH",
"531 597 LINE",
"386 618 LINE",
"386 268 LINE SMOOTH",
"386 212 OFFCURVE",
"357 185 OFFCURVE",
"293 185 CURVE SMOOTH",
"226 185 OFFCURVE",
"197 211 OFFCURVE",
"197 264 CURVE SMOOTH",
"197 341 LINE",
"52 367 LINE",
"52 254 LINE SMOOTH",
"52 138 OFFCURVE",
"143 60 OFFCURVE",
"294 60 CURVE SMOOTH"
);
},
{
closed = 1;
nodes = (
"197 598 LINE",
"52 613 LINE",
"52 274 LINE",
"197 247 LINE"
);
},
{
closed = 1;
nodes = (
"630 512 LINE",
"630 630 LINE",
"-59 630 LINE",
"-59 512 LINE"
);
}
);
};
layerId = "FA3D6E7D-1564-4EF0-9765-0D5E9243D6E7";
paths = (
{
closed = 1;
nodes = (
"418 73 OFFCURVE",
"516 149 OFFCURVE",
"516 240 CURVE SMOOTH",
"516 588 LINE",
"389 624 LINE",
"389 266 LINE SMOOTH",
"389 206 OFFCURVE",
"338 164 OFFCURVE",
"264 164 CURVE SMOOTH",
"210 164 OFFCURVE",
"194 181 OFFCURVE",
"194 240 CURVE SMOOTH",
"194 306 LINE",
"67 356 LINE",
"67 240 LINE SMOOTH",
"67 170 OFFCURVE",
"202 73 OFFCURVE",
"303 73 CURVE SMOOTH"
);
},
{
closed = 1;
nodes = (
"194 590 LINE",
"67 619 LINE",
"67 288 LINE",
"194 233 LINE"
);
},
{
closed = 1;
nodes = (
"635 533 LINE",
"579 625 LINE",
"-64 625 LINE",
"-8 533 LINE"
);
}
);
width = 571;
}
);
leftMetricsKey = Ga;
rightMetricsKey = Ga;
unicode = 111A3;
category = Letter;
},
{
color = 3;
glyphname = Na;
lastChange = "2023-01-15 20:22:05 +0000";
layers = (
{
anchors = (
{
name = Anchor14;
position = "{347, 0}";
},
{
name = Anchor15;
position = "{363, 707}";
},
{
name = Anchor16;
position = "{429, 0}";
},
{
name = Anchor17;
position = "{502, 710}";
},
{
name = Anchor18;
position = "{257, 710}";
},
{
name = Anchor19;
position = "{429, 0}";
},
{
name = Anchor20;
position = "{502, 710}";
},
{
name = Anchor21;
position = "{347, 0}";
}
);
background = {
paths = (
{
closed = 1;
nodes = (
"429 590 LINE",
"344 590 LINE",
"344 0 LINE",
"429 0 LINE"
);
},
{
closed = 1;
nodes = (
"401 302 LINE",
"382 383 LINE",
"74 383 LINE",
"74 302 LINE"
);
},
{
closed = 1;
nodes = (
"526 550 LINE",
"526 625 LINE",
"-9 625 LINE",
"-9 550 LINE"
);
}
);
};
layerId = UUID0;
paths = (
{
closed = 1;
nodes = (
"429 590 LINE",
"344 590 LINE",
"344 30 LINE",
"429 -20 LINE"
);
},
{
closed = 1;
nodes = (
"401 302 LINE",
"382 383 LINE",
"46 383 LINE",
"84 302 LINE"
);
},
{
closed = 1;
nodes = (
"541 550 LINE",
"501 625 LINE",
"-24 625 LINE",
"16 550 LINE"
);
}
);
width = 517;
},
{
anchors = (
{
name = Anchor14;
position = "{395, 0}";
},
{
name = Anchor15;
position = "{411, 707}";
},
{
name = Anchor16;
position = "{477, 0}";
},
{
name = Anchor17;
position = "{550, 710}";
},
{
name = Anchor18;
position = "{305, 710}";
},
{
name = Anchor19;
position = "{477, 0}";
},
{
name = Anchor20;
position = "{550, 710}";
},
{
name = Anchor21;
position = "{395, 0}";
}
);
background = {
paths = (
{
closed = 1;
nodes = (
"476 597 LINE",
"331 597 LINE",
"331 0 LINE",
"476 0 LINE"
);
},
{
closed = 1;
nodes = (
"452 276 LINE",
"416 403 LINE",
"23 403 LINE",
"23 276 LINE"
);
},
{
closed = 1;
nodes = (
"586 512 LINE",
"586 630 LINE",
"-71 630 LINE",
"-71 512 LINE"
);
}
);
};
layerId = "FA3D6E7D-1564-4EF0-9765-0D5E9243D6E7";
paths = (
{
closed = 1;
nodes = (
"477 591 LINE",
"350 591 LINE",
"350 34 LINE",
"477 -32 LINE"
);
},
{
closed = 1;
nodes = (
"448 279 LINE",
"422 390 LINE",
"16 390 LINE",
"69 279 LINE"
);
},
{
closed = 1;
nodes = (
"606 533 LINE",
"551 625 LINE",
"-64 625 LINE",
"-9 533 LINE"
);
}
);
width = 542;
}
);
leftMetricsKey = Ga;
rightMetricsKey = Ga;
unicode = 111A4;
category = Letter;
},
{
color = 3;
glyphname = Pa;
lastChange = "2023-01-15 20:22:05 +0000";
layers = (
{
anchors = (
{
name = Anchor14;
position = "{250, 0}";
},
{
name = Anchor15;
position = "{270, 710}";
},
{
name = Anchor16;
position = "{457, 0}";
},
{
name = Anchor17;
position = "{541, 710}";
},
{
name = Anchor18;
position = "{225, 710}";
},
{
name = Anchor19;
position = "{457, 0}";
},
{
name = Anchor20;
position = "{541, 710}";
},
{
name = Anchor21;
position = "{250, 0}";
}
);
background = {
paths = (
{
closed = 1;
nodes = (
"156 625 LINE",
"-6 625 LINE",
"-6 550 LINE",
"156 550 LINE"
);
},
{
closed = 1;
nodes = (
"457 590 LINE",
"372 625 LINE",
"372 0 LINE",
"457 0 LINE"
);
},
{
closed = 1;
nodes = (
"541 550 LINE",
"541 625 LINE",
"372 625 LINE",
"412 550 LINE"
);
},
{
closed = 1;
nodes = (
"324 138 OFFCURVE",
"374 155 OFFCURVE",
"425 192 CURVE",
"408 274 LINE",
"357 233 OFFCURVE",
"308 218 OFFCURVE",
"261 218 CURVE SMOOTH",
"189 218 OFFCURVE",
"156 247 OFFCURVE",
"156 328 CURVE SMOOTH",
"156 595 LINE",
"71 595 LINE",
"71 330 LINE SMOOTH",
"71 203 OFFCURVE",
"151 138 OFFCURVE",
"263 138 CURVE SMOOTH"
);
}
);
};
layerId = UUID0;
paths = (
{
closed = 1;
nodes = (
"348 170 OFFCURVE",
"397 199 OFFCURVE",
"426 226 CURVE",
"409 316 LINE",
"351 267 OFFCURVE",
"296 247 OFFCURVE",
"242 247 CURVE SMOOTH",
"208 247 OFFCURVE",
"184 273 OFFCURVE",
"184 327 CURVE SMOOTH",
"184 409 LINE SMOOTH",
"184 483 OFFCURVE",
"166 528 OFFCURVE",
"125 585 CURVE SMOOTH",
"96 625 LINE",
"-24 625 LINE",
"16 550 LINE",
"81 550 LINE",
"95 518 OFFCURVE",
"99 489 OFFCURVE",
"99 432 CURVE SMOOTH",
"99 398 LINE SMOOTH",
"99 256 OFFCURVE",
"213 170 OFFCURVE",
"282 170 CURVE SMOOTH"
);
},
{
closed = 1;
nodes = (
"457 590 LINE",
"372 625 LINE",
"372 30 LINE",
"457 -20 LINE"
);
},
{
closed = 1;
nodes = (
"559 550 LINE",
"519 625 LINE",
"372 625 LINE",
"412 550 LINE"
);
}
);
width = 535;
},
{
anchors = (
{
name = Anchor14;
position = "{298, 0}";
},
{
name = Anchor15;
position = "{318, 710}";
},
{
name = Anchor16;
position = "{505, 0}";
},
{
name = Anchor17;
position = "{603, 710}";
},
{
name = Anchor18;
position = "{273, 710}";
},
{
name = Anchor19;
position = "{505, 0}";
},
{
name = Anchor20;
position = "{603, 710}";
},
{
name = Anchor21;
position = "{298, 0}";
}
);
background = {
paths = (
{
closed = 1;
nodes = (
"161 630 LINE",
"-71 630 LINE",
"-71 512 LINE",
"161 512 LINE"
);
},
{
closed = 1;
nodes = (
"505 590 LINE",
"360 630 LINE",
"360 0 LINE",
"505 0 LINE"
);
},
{
closed = 1;
nodes = (
"600 512 LINE",
"600 630 LINE",
"360 630 LINE",
"416 512 LINE"
);
},
{
closed = 1;
nodes = (
"338 124 OFFCURVE",
"405 144 OFFCURVE",
"471 188 CURVE",
"440 316 LINE",
"381 270 OFFCURVE",
"323 248 OFFCURVE",
"257 248 CURVE SMOOTH",
"184 248 OFFCURVE",
"161 268 OFFCURVE",
"161 327 CURVE SMOOTH",
"161 602 LINE",
"16 602 LINE",
"16 329 LINE SMOOTH",
"16 203 OFFCURVE",
"110 124 OFFCURVE",
"259 124 CURVE SMOOTH"
);
}
);
};
layerId = "FA3D6E7D-1564-4EF0-9765-0D5E9243D6E7";
paths = (
{
closed = 1;
nodes = (
"376 161 OFFCURVE",
"442 196 OFFCURVE",
"471 226 CURVE",
"446 340 LINE",
"382 284 OFFCURVE",
"317 258 OFFCURVE",
"261 258 CURVE SMOOTH",
"223 258 OFFCURVE",
"204 282 OFFCURVE",
"204 326 CURVE SMOOTH",
"204 406 LINE SMOOTH",
"204 475 OFFCURVE",
"187 520 OFFCURVE",
"136 582 CURVE SMOOTH",
"101 625 LINE",
"-64 625 LINE",
"-9 533 LINE",
"62 533 LINE",
"74 507 OFFCURVE",
"78 479 OFFCURVE",
"78 428 CURVE SMOOTH",
"78 395 LINE SMOOTH",
"78 254 OFFCURVE",
"220 161 OFFCURVE",
"301 161 CURVE SMOOTH"
);
},
{
closed = 1;
nodes = (
"505 587 LINE",
"378 625 LINE",
"378 34 LINE",
"505 -32 LINE"
);
},
{
closed = 1;
nodes = (
"623 533 LINE",
"568 625 LINE",
"378 625 LINE",
"427 533 LINE"
);
}
);
width = 559;
}
);
leftMetricsKey = Ga;
rightMetricsKey = Ga;
unicode = 111A5;
category = Letter;
},
{
color = 3;
glyphname = Pha;
lastChange = "2023-01-15 20:22:05 +0000";
layers = (
{
anchors = (
{
name = Anchor14;
position = "{358, 0}";
},
{
name = Anchor16;
position = "{308, 0}";
},
{
name = Anchor17;
position = "{638, 710}";
},
{
name = Anchor18;
position = "{343, 710}";
},
{
name = Anchor19;
position = "{308, 0}";
},
{
name = Anchor20;
position = "{638, 710}";
},
{
name = Anchor21;
position = "{358, 0}";
}
);
background = {
paths = (
{
closed = 1;
nodes = (
"283 38 OFFCURVE",
"328 66 OFFCURVE",
"418 202 CURVE SMOOTH",
"445 243 OFFCURVE",
"472 258 OFFCURVE",
"500 258 CURVE SMOOTH",
"541 258 OFFCURVE",
"567 229 OFFCURVE",
"567 184 CURVE SMOOTH",
"567 138 OFFCURVE",
"537 110 OFFCURVE",
"498 111 CURVE SMOOTH",
"463 112 OFFCURVE",
"430 128 OFFCURVE",
"395 180 CURVE",
"344 128 LINE",
"392 63 OFFCURVE",
"448 35 OFFCURVE",
"502 35 CURVE SMOOTH",
"576 35 OFFCURVE",
"644 88 OFFCURVE",
"645 176 CURVE SMOOTH",
"646 276 OFFCURVE",
"575 335 OFFCURVE",
"499 335 CURVE SMOOTH",
"433 335 OFFCURVE",
"389 297 OFFCURVE",
"341 231 CURVE SMOOTH",
"275 139 OFFCURVE",
"251 120 OFFCURVE",
"223 120 CURVE SMOOTH",
"191 120 OFFCURVE",
"169 147 OFFCURVE",
"169 229 CURVE SMOOTH",
"169 337 OFFCURVE",
"225 468 OFFCURVE",
"300 577 CURVE",
"211 592 LINE",
"139 485 OFFCURVE",
"84 341 OFFCURVE",
"84 229 CURVE SMOOTH",
"84 97 OFFCURVE",
"144 38 OFFCURVE",
"223 38 CURVE SMOOTH"
);
},
{
closed = 1;
nodes = (
"674 550 LINE",
"674 625 LINE",
"2 625 LINE",
"2 550 LINE"
);
}
);
};
layerId = UUID0;
paths = (
{
closed = 1;
nodes = (
"375 43 OFFCURVE",
"402 267 OFFCURVE",
"503 267 CURVE SMOOTH",
"533 267 OFFCURVE",
"559 234 OFFCURVE",
"559 191 CURVE SMOOTH",
"559 145 OFFCURVE",
"532 114 OFFCURVE",
"492 115 CURVE SMOOTH",
"460 116 OFFCURVE",
"426 134 OFFCURVE",
"384 177 CURVE",
"360 143 LINE",
"412 92 OFFCURVE",
"487 47 OFFCURVE",
"543 47 CURVE SMOOTH",
"597 47 OFFCURVE",
"638 92 OFFCURVE",
"639 153 CURVE SMOOTH",
"640 240 OFFCURVE",
"545 341 OFFCURVE",
"459 341 CURVE SMOOTH",
"338 341 OFFCURVE",
"301 122 OFFCURVE",
"228 122 CURVE SMOOTH",
"202 122 OFFCURVE",
"176 158 OFFCURVE",
"176 237 CURVE SMOOTH",
"176 340 OFFCURVE",
"225 452 OFFCURVE",
"297 572 CURVE",
"201 592 LINE",
"142 495 OFFCURVE",
"91 377 OFFCURVE",
"91 290 CURVE SMOOTH",
"91 157 OFFCURVE",
"194 43 OFFCURVE",
"270 43 CURVE SMOOTH"
);
},
{
closed = 1;
nodes = (
"681 550 LINE",
"641 625 LINE",
"-24 625 LINE",
"16 550 LINE"
);
}
);
width = 657;
},
{
anchors = (
{
name = Anchor14;
position = "{400, 0}";
},
{
name = Anchor16;
position = "{350, 0}";
},
{
name = Anchor17;
position = "{680, 710}";
},
{
name = Anchor18;
position = "{385, 710}";
},
{
name = Anchor19;
position = "{350, 0}";
},
{
name = Anchor20;
position = "{680, 710}";
},
{
name = Anchor21;
position = "{400, 0}";
}
);
background = {
paths = (
{
closed = 1;
nodes = (
"317 32 OFFCURVE",
"378 80 OFFCURVE",
"474 204 CURVE SMOOTH",
"498 235 OFFCURVE",
"518 255 OFFCURVE",
"547 255 CURVE SMOOTH",
"580 255 OFFCURVE",
"600 231 OFFCURVE",
"600 200 CURVE SMOOTH",
"600 168 OFFCURVE",
"579 146 OFFCURVE",
"542 146 CURVE SMOOTH",
"504 146 OFFCURVE",
"471 171 OFFCURVE",
"433 224 CURVE",
"344 143 LINE",
"402 69 OFFCURVE",
"471 29 OFFCURVE",
"551 29 CURVE SMOOTH",
"653 29 OFFCURVE",
"724 99 OFFCURVE",
"725 188 CURVE SMOOTH",
"726 290 OFFCURVE",
"656 370 OFFCURVE",
"549 370 CURVE SMOOTH",
"468 370 OFFCURVE",
"414 329 OFFCURVE",
"347 253 CURVE SMOOTH",
"280 177 OFFCURVE",
"260 160 OFFCURVE",
"233 160 CURVE SMOOTH",
"204 160 OFFCURVE",
"190 180 OFFCURVE",
"190 232 CURVE SMOOTH",
"190 327 OFFCURVE",
"260 462 OFFCURVE",
"369 580 CURVE",
"209 602 LINE",
"114 490 OFFCURVE",
"50 342 OFFCURVE",
"50 235 CURVE SMOOTH",
"50 109 OFFCURVE",
"119 32 OFFCURVE",
"233 32 CURVE SMOOTH"
);
},
{
closed = 1;
nodes = (
"771 512 LINE",
"771 630 LINE",
"-43 630 LINE",
"-43 512 LINE"
);
}
);
};
layerId = "FA3D6E7D-1564-4EF0-9765-0D5E9243D6E7";
paths = (
{
closed = 1;
nodes = (
"334 42 OFFCURVE",
"364 71 OFFCURVE",
"423 157 CURVE SMOOTH",
"482 243 OFFCURVE",
"503 259 OFFCURVE",
"526 259 CURVE SMOOTH",
"552 259 OFFCURVE",
"578 230 OFFCURVE",
"578 195 CURVE SMOOTH",
"578 157 OFFCURVE",
"554 131 OFFCURVE",
"521 131 CURVE SMOOTH",
"486 132 OFFCURVE",
"456 153 OFFCURVE",
"405 201 CURVE",
"363 148 LINE",
"429 88 OFFCURVE",
"517 46 OFFCURVE",
"579 46 CURVE SMOOTH",
"648 46 OFFCURVE",
"692 99 OFFCURVE",
"692 158 CURVE SMOOTH",
"692 240 OFFCURVE",
"585 350 OFFCURVE",
"488 350 CURVE SMOOTH",
"425 350 OFFCURVE",
"393 325 OFFCURVE",
"316 217 CURVE SMOOTH",
"269 151 OFFCURVE",
"254 138 OFFCURVE",
"236 138 CURVE SMOOTH",
"215 138 OFFCURVE",
"195 163 OFFCURVE",
"195 240 CURVE SMOOTH",
"195 342 OFFCURVE",
"252 453 OFFCURVE",
"334 571 CURVE",
"197 596 LINE",
"116 481 OFFCURVE",
"69 368 OFFCURVE",
"69 291 CURVE SMOOTH",
"69 169 OFFCURVE",
"178 42 OFFCURVE",
"282 42 CURVE SMOOTH"
);
},
{
closed = 1;
nodes = (
"747 533 LINE",
"692 625 LINE",
"-64 625 LINE",
"-9 533 LINE"
);
}
);
width = 683;
}
);
leftMetricsKey = Ga;
rightMetricsKey = Ga;
unicode = 111A6;
category = Letter;
},
{
color = 3;
glyphname = Ba;
lastChange = "2023-01-15 20:22:05 +0000";
layers = (
{
anchors = (
{
name = Anchor14;
position = "{317, 0}";
},
{
name = Anchor15;
position = "{257, 710}";
},
{
name = Anchor16;
position = "{329, 0}";
},
{
name = Anchor17;
position = "{566, 710}";
},
{
name = Anchor18;
position = "{297, 710}";
},
{
name = Anchor19;
position = "{329, 0}";
},
{
name = Anchor20;
position = "{566, 710}";
},
{
name = Anchor21;
position = "{317, 0}";
}
);
background = {
paths = (
{
closed = 1;
nodes = (
"418 17 OFFCURVE",
"465 69 OFFCURVE",
"465 181 CURVE SMOOTH",
"465 590 LINE",
"380 590 LINE",
"380 184 LINE SMOOTH",
"380 117 OFFCURVE",
"361 97 OFFCURVE",
"322 97 CURVE SMOOTH",
"251 97 OFFCURVE",
"160 181 OFFCURVE",
"160 253 CURVE SMOOTH",
"160 283 OFFCURVE",
"178 304 OFFCURVE",
"222 304 CURVE SMOOTH",
"277 304 OFFCURVE",
"371 304 OFFCURVE",
"411 304 CURVE",
"411 381 LINE",
"359 381 OFFCURVE",
"279 381 OFFCURVE",
"222 381 CURVE SMOOTH",
"121 381 OFFCURVE",
"72 331 OFFCURVE",
"72 258 CURVE SMOOTH",
"72 139 OFFCURVE",
"211 17 OFFCURVE",
"336 17 CURVE SMOOTH"
);
},
{
closed = 1;
nodes = (
"571 550 LINE",
"571 625 LINE",
"-9 625 LINE",
"-9 550 LINE"
);
}
);
};
layerId = UUID0;
paths = (
{
closed = 1;
nodes = (
"438 17 OFFCURVE",
"465 66 OFFCURVE",
"465 158 CURVE SMOOTH",
"465 590 LINE",
"380 590 LINE",
"380 191 LINE SMOOTH",
"380 114 OFFCURVE",
"359 91 OFFCURVE",
"315 91 CURVE SMOOTH",
"262 91 OFFCURVE",
"157 174 OFFCURVE",
"157 236 CURVE SMOOTH",
"157 278 OFFCURVE",
"182 296 OFFCURVE",
"256 296 CURVE SMOOTH",
"311 296 OFFCURVE",
"371 296 OFFCURVE",
"411 296 CURVE",
"411 373 LINE",
"359 373 OFFCURVE",
"253 373 OFFCURVE",
"196 373 CURVE SMOOTH",
"103 373 OFFCURVE",
"68 336 OFFCURVE",
"68 284 CURVE SMOOTH",
"68 175 OFFCURVE",
"248 17 OFFCURVE",
"366 17 CURVE SMOOTH"
);
},
{
closed = 1;
nodes = (
"586 550 LINE",
"546 625 LINE",
"-24 625 LINE",
"16 550 LINE"
);
}
);
width = 562;
},
{
anchors = (
{
name = Anchor14;
position = "{369, 0}";
},
{
name = Anchor15;
position = "{309, 710}";
},
{
name = Anchor16;
position = "{381, 0}";
},
{
name = Anchor17;
position = "{634, 710}";
},
{
name = Anchor18;
position = "{349, 710}";
},
{
name = Anchor19;
position = "{381, 0}";
},
{
name = Anchor20;
position = "{634, 710}";
},
{
name = Anchor21;
position = "{369, 0}";
}
);
background = {
paths = (
{
closed = 1;
nodes = (
"454 11 OFFCURVE",
"515 75 OFFCURVE",
"515 189 CURVE SMOOTH",
"515 598 LINE",
"370 598 LINE",
"370 192 LINE SMOOTH",
"370 145 OFFCURVE",
"361 134 OFFCURVE",
"328 134 CURVE SMOOTH",
"258 134 OFFCURVE",
"167 201 OFFCURVE",
"167 253 CURVE SMOOTH",
"167 268 OFFCURVE",
"177 281 OFFCURVE",
"207 281 CURVE SMOOTH",
"270 281 OFFCURVE",
"384 281 OFFCURVE",
"429 281 CURVE",
"453 305 LINE",
"453 401 LINE",
"398 401 OFFCURVE",
"288 401 OFFCURVE",
"214 401 CURVE SMOOTH",
"83 401 OFFCURVE",
"19 349 OFFCURVE",
"19 262 CURVE SMOOTH",
"19 138 OFFCURVE",
"185 11 OFFCURVE",
"344 11 CURVE SMOOTH"
);
},
{
closed = 1;
nodes = (
"636 512 LINE",
"636 630 LINE",
"-74 630 LINE",
"-74 512 LINE"
);
}
);
};
layerId = "FA3D6E7D-1564-4EF0-9765-0D5E9243D6E7";
paths = (
{
closed = 1;
nodes = (
"475 16 OFFCURVE",
"514 63 OFFCURVE",
"514 163 CURVE SMOOTH",
"514 592 LINE",
"387 592 LINE",
"387 195 LINE SMOOTH",
"387 129 OFFCURVE",
"369 108 OFFCURVE",
"333 108 CURVE SMOOTH",
"269 108 OFFCURVE",
"175 185 OFFCURVE",
"175 235 CURVE SMOOTH",
"175 264 OFFCURVE",
"191 287 OFFCURVE",
"258 287 CURVE SMOOTH",
"326 287 OFFCURVE",
"412 287 OFFCURVE",
"455 287 CURVE",
"454 381 LINE",
"408 381 OFFCURVE",
"271 381 OFFCURVE",
"202 381 CURVE SMOOTH",
"82 381 OFFCURVE",
"41 345 OFFCURVE",
"41 285 CURVE SMOOTH",
"41 184 OFFCURVE",
"249 16 OFFCURVE",
"388 16 CURVE SMOOTH"
);
},
{
closed = 1;
nodes = (
"654 533 LINE",
"598 625 LINE",
"-64 625 LINE",
"-8 533 LINE"
);
}
);
width = 590;
}
);
leftMetricsKey = Ga;
rightMetricsKey = Ga;
unicode = 111A7;
category = Letter;
},
{
color = 3;
glyphname = Bha;
lastChange = "2023-01-15 20:22:05 +0000";
layers = (
{
anchors = (
{
name = Anchor14;
position = "{319, 0}";
},
{
name = Anchor16;
position = "{480, 0}";
},
{
name = Anchor17;
position = "{594, 710}";
},
{
name = Anchor18;
position = "{314, 710}";
},
{
name = Anchor19;
position = "{480, 0}";
},
{
name = Anchor20;
position = "{594, 710}";
},
{
name = Anchor21;
position = "{319, 0}";
}
);
background = {
paths = (
{
closed = 1;
nodes = (
"165 18 OFFCURVE",
"241 -3 OFFCURVE",
"311 -3 CURVE SMOOTH",
"455 -3 OFFCURVE",
"542 69 OFFCURVE",
"542 191 CURVE SMOOTH",
"542 317 OFFCURVE",
"446 400 OFFCURVE",
"254 400 CURVE SMOOTH",
"236 400 OFFCURVE",
"224 400 OFFCURVE",
"220 400 CURVE",
"223 319 LINE",
"233 319 OFFCURVE",
"242 319 OFFCURVE",
"262 319 CURVE SMOOTH",
"402 319 OFFCURVE",
"458 267 OFFCURVE",
"458 192 CURVE SMOOTH",
"458 118 OFFCURVE",
"402 76 OFFCURVE",
"309 76 CURVE SMOOTH",
"260 76 OFFCURVE",
"205 89 OFFCURVE",
"136 121 CURVE",
"105 47 LINE"
);
},
{
closed = 1;
nodes = (
"602 550 LINE",
"602 625 LINE",
"-9 625 LINE",
"-9 550 LINE"
);
},
{
closed = 1;
nodes = (
"233 230 OFFCURVE",
"269 269 OFFCURVE",
"269 326 CURVE SMOOTH",
"269 461 LINE",
"184 462 LINE",
"184 401 LINE",
"123 398 OFFCURVE",
"87 361 OFFCURVE",
"87 315 CURVE SMOOTH",
"87 268 OFFCURVE",
"123 230 OFFCURVE",
"179 230 CURVE SMOOTH"
);
},
{
closed = 1;
nodes = (
"269 584 LINE",
"184 576 LINE",
"184 422 LINE",
"269 419 LINE"
);
}
);
};
layerId = UUID0;
paths = (
{
closed = 1;
nodes = (
"497 -12 OFFCURVE",
"554 61 OFFCURVE",
"554 153 CURVE SMOOTH",
"554 284 OFFCURVE",
"408 404 OFFCURVE",
"261 404 CURVE SMOOTH",
"239 404 OFFCURVE",
"225 402 OFFCURVE",
"199 397 CURVE",
"215 300 LINE",
"254 321 OFFCURVE",
"284 333 OFFCURVE",
"317 333 CURVE SMOOTH",
"401 333 OFFCURVE",
"472 283 OFFCURVE",
"472 194 CURVE SMOOTH",
"472 120 OFFCURVE",
"421 56 OFFCURVE",
"315 56 CURVE SMOOTH",
"256 56 OFFCURVE",
"199 74 OFFCURVE",
"121 127 CURVE",
"101 95 LINE",
"188 27 OFFCURVE",
"291 -12 OFFCURVE",
"375 -12 CURVE SMOOTH"
);
},
{
closed = 1;
nodes = (
"239 206 OFFCURVE",
"269 246 OFFCURVE",
"269 302 CURVE SMOOTH",
"269 561 LINE",
"184 601 LINE",
"184 401 LINE",
"109 398 OFFCURVE",
"74 356 OFFCURVE",
"74 311 CURVE",
"86 261 OFFCURVE",
"140 217 OFFCURVE",
"183 206 CURVE"
);
},
{
closed = 1;
nodes = (
"620 550 LINE",
"580 625 LINE",
"-24 625 LINE",
"16 550 LINE"
);
}
);
width = 596;
},
{
anchors = (
{
name = Anchor14;
position = "{343, 0}";
},
{
name = Anchor16;
position = "{504, 0}";
},
{
name = Anchor17;
position = "{618, 710}";
},
{
name = Anchor18;
position = "{338, 710}";
},
{
name = Anchor19;
position = "{504, 0}";
},
{
name = Anchor20;
position = "{618, 710}";
},
{
name = Anchor21;
position = "{343, 0}";
}
);
background = {
paths = (
{
closed = 1;
nodes = (
"146 5 OFFCURVE",
"243 -14 OFFCURVE",
"329 -14 CURVE SMOOTH",
"530 -14 OFFCURVE",
"624 72 OFFCURVE",
"624 198 CURVE SMOOTH",
"624 331 OFFCURVE",
"496 419 OFFCURVE",
"264 419 CURVE SMOOTH",
"244 419 OFFCURVE",
"229 419 OFFCURVE",
"225 419 CURVE",
"201 394 LINE",
"206 300 LINE",
"235 300 OFFCURVE",
"238 300 OFFCURVE",
"273 300 CURVE SMOOTH",
"417 300 OFFCURVE",
"483 259 OFFCURVE",
"483 199 CURVE SMOOTH",
"483 151 OFFCURVE",
"437 111 OFFCURVE",
"327 111 CURVE SMOOTH",
"264 111 OFFCURVE",
"196 124 OFFCURVE",
"116 154 CURVE",
"62 40 LINE"
);
},
{
closed = 1;
nodes = (
"685 512 LINE",
"685 630 LINE",
"-60 630 LINE",
"-60 512 LINE"
);
},
{
closed = 1;
nodes = (
"253 214 OFFCURVE",
"305 258 OFFCURVE",
"305 325 CURVE SMOOTH",
"305 476 LINE",
"160 477 LINE",
"160 418 LINE",
"94 408 OFFCURVE",
"50 368 OFFCURVE",
"50 315 CURVE SMOOTH",
"50 255 OFFCURVE",
"105 214 OFFCURVE",
"179 214 CURVE SMOOTH"
);
},
{
closed = 1;
nodes = (
"305 594 LINE",
"160 582 LINE",
"160 391 LINE",
"305 389 LINE"
);
}
);
};
layerId = "FA3D6E7D-1564-4EF0-9765-0D5E9243D6E7";
paths = (
{
closed = 1;
nodes = (
"529 -12 OFFCURVE",
"611 53 OFFCURVE",
"611 158 CURVE SMOOTH",
"611 288 OFFCURVE",
"446 411 OFFCURVE",
"272 411 CURVE SMOOTH",
"245 411 OFFCURVE",
"227 408 OFFCURVE",
"186 401 CURVE",
"209 281 LINE",
"271 312 OFFCURVE",
"301 323 OFFCURVE",
"334 323 CURVE SMOOTH",
"426 323 OFFCURVE",
"488 272 OFFCURVE",
"488 197 CURVE SMOOTH",
"488 121 OFFCURVE",
"428 73 OFFCURVE",
"332 73 CURVE SMOOTH",
"263 73 OFFCURVE",
"201 95 OFFCURVE",
"113 149 CURVE",
"78 100 LINE",
"174 31 OFFCURVE",
"297 -12 OFFCURVE",
"398 -12 CURVE SMOOTH"
);
},
{
closed = 1;
nodes = (
"187 199 CURVE",
"254 199 OFFCURVE",
"298 239 OFFCURVE",
"298 302 CURVE SMOOTH",
"298 558 LINE",
"171 611 LINE",
"171 407 LINE",
"98 400 OFFCURVE",
"50 363 OFFCURVE",
"50 311 CURVE",
"64 261 OFFCURVE",
"122 213 OFFCURVE"
);
},
{
closed = 1;
nodes = (
"690 533 LINE",
"635 625 LINE",
"-64 625 LINE",
"-9 533 LINE"
);
}
);
width = 626;
}
);
leftMetricsKey = Ga;
rightMetricsKey = Ga;
unicode = 111A8;
category = Letter;
},
{
color = 3;
glyphname = Ma;
lastChange = "2023-01-15 20:22:05 +0000";
layers = (
{
anchors = (
{
name = Anchor14;
position = "{279, 0}";
},
{
name = Anchor15;
position = "{249, 710}";
},
{
name = Anchor16;
position = "{510, 0}";
},
{
name = Anchor17;
position = "{559, 710}";
},
{
name = Anchor18;
position = "{254, 710}";
},
{
name = Anchor19;
position = "{510, 0}";
},
{
name = Anchor20;
position = "{559, 710}";
},
{
name = Anchor21;
position = "{279, 0}";
}
);
background = {
paths = (
{
closed = 1;
nodes = (
"509 590 LINE",
"424 625 LINE",
"424 0 LINE",
"509 0 LINE"
);
},
{
closed = 1;
nodes = (
"496 305 LINE",
"456 380 LINE",
"197 380 LINE",
"237 305 LINE"
);
},
{
closed = 1;
nodes = (
"599 550 LINE",
"599 625 LINE",
"424 625 LINE",
"464 550 LINE"
);
},
{
closed = 1;
nodes = (
"211 210 OFFCURVE",
"247 249 OFFCURVE",
"247 306 CURVE SMOOTH",
"247 441 LINE",
"162 442 LINE",
"162 381 LINE",
"101 378 OFFCURVE",
"65 341 OFFCURVE",
"65 295 CURVE SMOOTH",
"65 248 OFFCURVE",
"101 210 OFFCURVE",
"157 210 CURVE SMOOTH"
);
},
{
closed = 1;
nodes = (
"247 584 LINE",
"162 576 LINE",
"162 402 LINE",
"247 399 LINE"
);
},
{
closed = 1;
nodes = (
"247 550 LINE",
"247 625 LINE",
"-6 625 LINE",
"-6 550 LINE"
);
},
{
closed = 1;
nodes = (
"510 590 LINE",
"425 625 LINE",
"425 30 LINE",
"510 -20 LINE"
);
},
{
closed = 1;
nodes = (
"219 186 OFFCURVE",
"249 226 OFFCURVE",
"249 282 CURVE",
"249 410 LINE",
"164 460 LINE",
"164 381 LINE",
"89 378 OFFCURVE",
"54 336 OFFCURVE",
"54 291 CURVE",
"66 241 OFFCURVE",
"120 197 OFFCURVE",
"163 186 CURVE"
);
},
{
closed = 1;
nodes = (
"249 399 LINE",
"249 456 OFFCURVE",
"216 506 OFFCURVE",
"179 550 CURVE",
"104 560 LINE",
"135 528 OFFCURVE",
"164 469 OFFCURVE",
"164 392 CURVE"
);
},
{
closed = 1;
nodes = (
"497 307 LINE",
"457 382 LINE",
"198 382 LINE",
"238 307 LINE"
);
},
{
closed = 1;
nodes = (
"179 550 LINE",
"121 625 LINE",
"-24 625 LINE",
"16 550 LINE"
);
},
{
closed = 1;
nodes = (
"615 550 LINE",
"575 625 LINE",
"425 625 LINE",
"465 550 LINE"
);
}
);
};
layerId = UUID0;
paths = (
{
closed = 1;
nodes = (
"510 590 LINE",
"425 625 LINE",
"425 30 LINE",
"510 -20 LINE"
);
},
{
closed = 1;
nodes = (
"219 186 OFFCURVE",
"249 226 OFFCURVE",
"249 282 CURVE",
"249 400 LINE",
"164 460 LINE",
"164 381 LINE",
"89 378 OFFCURVE",
"54 336 OFFCURVE",
"54 291 CURVE",
"66 241 OFFCURVE",
"120 197 OFFCURVE",
"163 186 CURVE"
);
},
{
closed = 1;
nodes = (
"497 307 LINE",
"457 382 LINE",
"198 382 LINE",
"238 307 LINE"
);
},
{
closed = 1;
nodes = (
"121 625 LINE",
"-24 625 LINE",
"16 550 LINE",
"114 550 LINE",
"138 517 OFFCURVE",
"164 469 OFFCURVE",
"164 392 CURVE",
"249 399 LINE",
"249 456 OFFCURVE",
"214 505 OFFCURVE",
"179 550 CURVE SMOOTH"
);
},
{
closed = 1;
nodes = (
"615 550 LINE",
"575 625 LINE",
"425 625 LINE",
"465 550 LINE"
);
}
);
width = 591;
},
{
anchors = (
{
name = Anchor14;
position = "{332, 0}";
},
{
name = Anchor15;
position = "{302, 710}";
},
{
name = Anchor16;
position = "{563, 0}";
},
{
name = Anchor17;
position = "{612, 710}";
},
{
name = Anchor18;
position = "{307, 710}";
},
{
name = Anchor19;
position = "{563, 0}";
},
{
name = Anchor20;
position = "{612, 710}";
},
{
name = Anchor21;
position = "{332, 0}";
}
);
background = {
paths = (
{
closed = 1;
nodes = (
"564 590 LINE",
"419 630 LINE",
"419 -5 LINE",
"564 -5 LINE"
);
},
{
closed = 1;
nodes = (
"539 281 LINE",
"492 400 LINE",
"140 400 LINE",
"217 281 LINE"
);
},
{
closed = 1;
nodes = (
"666 512 LINE",
"666 630 LINE",
"419 630 LINE",
"475 512 LINE"
);
},
{
closed = 1;
nodes = (
"215 188 OFFCURVE",
"265 239 OFFCURVE",
"265 306 CURVE SMOOTH",
"265 457 LINE",
"120 458 LINE",
"120 399 LINE",
"54 389 OFFCURVE",
"10 349 OFFCURVE",
"10 296 CURVE SMOOTH",
"10 236 OFFCURVE",
"62 188 OFFCURVE",
"138 188 CURVE SMOOTH"
);
},
{
closed = 1;
nodes = (
"265 594 LINE",
"120 582 LINE",
"120 374 LINE",
"265 369 LINE"
);
},
{
closed = 1;
nodes = (
"265 512 LINE",
"265 630 LINE",
"-71 630 LINE",
"-71 512 LINE"
);
},
{
closed = 1;
nodes = (
"563 587 LINE",
"436 625 LINE",
"436 34 LINE",
"563 -32 LINE"
);
},
{
closed = 1;
nodes = (
"165 180 CURVE",
"233 180 OFFCURVE",
"276 220 OFFCURVE",
"276 283 CURVE SMOOTH",
"276 401 LINE",
"151 433 LINE",
"149 387 LINE",
"77 380 OFFCURVE",
"28 343 OFFCURVE",
"28 291 CURVE",
"41 244 OFFCURVE",
"95 195 OFFCURVE"
);
},
{
closed = 1;
nodes = (
"276 394 LINE",
"276 443 OFFCURVE",
"254 485 OFFCURVE",
"215 533 CURVE",
"91 565 LINE",
"110 529 OFFCURVE",
"150 467 OFFCURVE",
"149 388 CURVE"
);
},
{
closed = 1;
nodes = (
"555 297 LINE",
"500 389 LINE",
"180 389 LINE",
"236 297 LINE"
);
},
{
closed = 1;
nodes = (
"215 533 LINE",
"143 625 LINE",
"-64 625 LINE",
"-8 533 LINE"
);
},
{
closed = 1;
nodes = (
"685 533 LINE",
"629 625 LINE",
"436 625 LINE",
"485 533 LINE"
);
}
);
};
layerId = "FA3D6E7D-1564-4EF0-9765-0D5E9243D6E7";
paths = (
{
closed = 1;
nodes = (
"563 587 LINE",
"436 625 LINE",
"436 34 LINE",
"563 -32 LINE"
);
},
{
closed = 1;
nodes = (
"41 244 OFFCURVE",
"95 195 OFFCURVE",
"165 180 CURVE",
"233 180 OFFCURVE",
"276 220 OFFCURVE",
"276 283 CURVE SMOOTH",
"276 397 LINE",
"151 433 LINE",
"149 387 LINE",
"77 380 OFFCURVE",
"28 343 OFFCURVE",
"28 291 CURVE"
);
},
{
closed = 1;
nodes = (
"137 477 OFFCURVE",
"150 436 OFFCURVE",
"149 388 CURVE",
"276 394 LINE",
"276 443 OFFCURVE",
"256 483 OFFCURVE",
"209 542 CURVE SMOOTH",
"143 625 LINE",
"-64 625 LINE",
"-8 533 LINE",
"109 533 LINE"
);
},
{
closed = 1;
nodes = (
"555 297 LINE",
"500 389 LINE",
"180 389 LINE",
"236 297 LINE"
);
},
{
closed = 1;
nodes = (
"685 533 LINE",
"629 625 LINE",
"436 625 LINE",
"485 533 LINE"
);
}
);
width = 621;
},
{
anchors = (
{
name = Anchor14;
position = "{279, 0}";
},
{
name = Anchor15;
position = "{249, 710}";
},
{
name = Anchor16;
position = "{510, 0}";
},
{
name = Anchor17;
position = "{559, 710}";
},
{
name = Anchor18;
position = "{254, 710}";
},
{
name = Anchor19;
position = "{510, 0}";
},
{
name = Anchor20;
position = "{559, 710}";
},
{
name = Anchor21;
position = "{279, 0}";
}
);
associatedMasterId = UUID0;
background = {
paths = (
{
closed = 1;
nodes = (
"510 0 LINE",
"510 550 LINE",
"569 550 LINE",
"569 625 LINE",
"425 625 LINE",
"425 317 LINE",
"184 317 LINE",
"188 348 OFFCURVE",
"190 378 OFFCURVE",
"190 399 CURVE SMOOTH",
"190 487 OFFCURVE",
"163 625 OFFCURVE",
"3 625 CURVE SMOOTH",
"-33 625 LINE",
"-33 550 LINE",
"-10 550 LINE SMOOTH",
"92 550 OFFCURVE",
"105 474 OFFCURVE",
"105 405 CURVE SMOOTH",
"105 373 OFFCURVE",
"99 335 OFFCURVE",
"88 313 CURVE",
"35 302 OFFCURVE",
"-41 285 OFFCURVE",
"-41 251 CURVE SMOOTH",
"-41 203 OFFCURVE",
"68 126 OFFCURVE",
"102 126 CURVE SMOOTH",
"133 126 OFFCURVE",
"156 179 OFFCURVE",
"170 242 CURVE",
"425 242 LINE",
"425 0 LINE"
);
}
);
};
layerId = "4D185B72-DC71-419A-929E-66ED7374EED6";
name = "Jan 13 23, 19:03";
paths = (
{
closed = 1;
nodes = (
"509 590 LINE",
"424 625 LINE",
"424 0 LINE",
"509 0 LINE"
);
},
{
closed = 1;
nodes = (
"496 305 LINE",
"456 380 LINE",
"197 380 LINE",
"237 305 LINE"
);
},
{
closed = 1;
nodes = (
"599 550 LINE",
"599 625 LINE",
"424 625 LINE",
"464 550 LINE"
);
},
{
closed = 1;
nodes = (
"211 210 OFFCURVE",
"247 249 OFFCURVE",
"247 306 CURVE SMOOTH",
"247 441 LINE",
"162 442 LINE",
"162 381 LINE",
"101 378 OFFCURVE",
"65 341 OFFCURVE",
"65 295 CURVE SMOOTH",
"65 248 OFFCURVE",
"101 210 OFFCURVE",
"157 210 CURVE SMOOTH"
);
},
{
closed = 1;
nodes = (
"247 584 LINE",
"162 576 LINE",
"162 402 LINE",
"247 399 LINE"
);
},
{
closed = 1;
nodes = (
"247 550 LINE",
"247 625 LINE",
"-6 625 LINE",
"-6 550 LINE"
);
}
);
width = 593;
}
);
leftMetricsKey = Ga;
rightMetricsKey = Ga;
unicode = 111A9;
category = Letter;
},
{
color = 3;
glyphname = Ya;
lastChange = "2023-01-15 20:22:05 +0000";
layers = (
{
anchors = (
{
name = Anchor14;
position = "{343, 0}";
},
{
name = Anchor16;
position = "{535, 0}";
},
{
name = Anchor17;
position = "{588, 710}";
},
{
name = Anchor18;
position = "{293, 710}";
},
{
name = Anchor19;
position = "{535, 0}";
},
{
name = Anchor20;
position = "{588, 710}";
},
{
name = Anchor21;
position = "{343, 0}";
}
);
background = {
paths = (
{
closed = 1;
nodes = (
"375 105 OFFCURVE",
"451 142 OFFCURVE",
"505 194 CURVE",
"470 270 LINE",
"418 217 OFFCURVE",
"352 186 OFFCURVE",
"278 186 CURVE SMOOTH",
"206 186 OFFCURVE",
"179 216 OFFCURVE",
"179 259 CURVE SMOOTH",
"179 303 OFFCURVE",
"217 338 OFFCURVE",
"330 354 CURVE",
"330 411 LINE",
"268 418 LINE",
"143 396 OFFCURVE",
"89 333 OFFCURVE",
"89 258 CURVE SMOOTH",
"89 176 OFFCURVE",
"150 105 OFFCURVE",
"280 105 CURVE SMOOTH"
);
},
{
closed = 1;
nodes = (
"169 590 LINE",
"73 579 LINE",
"260 373 LINE",
"330 411 LINE"
);
},
{
closed = 1;
nodes = (
"534 590 LINE",
"449 590 LINE",
"449 0 LINE",
"534 0 LINE"
);
},
{
closed = 1;
nodes = (
"650 550 LINE",
"650 625 LINE",
"20 625 LINE",
"20 550 LINE"
);
}
);
};
layerId = UUID0;
paths = (
{
closed = 1;
nodes = (
"403 127 OFFCURVE",
"454 154 OFFCURVE",
"506 193 CURVE",
"463 275 LINE",
"399 230 OFFCURVE",
"335 211 OFFCURVE",
"266 211 CURVE SMOOTH",
"215 211 OFFCURVE",
"184 229 OFFCURVE",
"184 253 CURVE SMOOTH",
"184 293 OFFCURVE",
"237 353 OFFCURVE",
"361 366 CURVE",
"361 386 LINE",
"259 437 LINE",
"151 412 OFFCURVE",
"91 351 OFFCURVE",
"91 293 CURVE SMOOTH",
"91 224 OFFCURVE",
"227 127 OFFCURVE",
"326 127 CURVE SMOOTH"
);
},
{
closed = 1;
nodes = (
"316 423 OFFCURVE",
"222 505 OFFCURVE",
"134 590 CURVE",
"114 609 OFFCURVE",
"74 603 OFFCURVE",
"74 579 CURVE",
"148 511 OFFCURVE",
"200 459 OFFCURVE",
"281 393 CURVE",
"293 392 OFFCURVE",
"353 377 OFFCURVE",
"361 387 CURVE"
);
},
{
closed = 1;
nodes = (
"535 590 LINE",
"450 590 LINE",
"450 30 LINE",
"535 -20 LINE"
);
},
{
closed = 1;
nodes = (
"668 550 LINE",
"628 625 LINE",
"-24 625 LINE",
"16 550 LINE"
);
}
);
width = 644;
},
{
anchors = (
{
name = Anchor14;
position = "{399, 0}";
},
{
name = Anchor16;
position = "{591, 0}";
},
{
name = Anchor17;
position = "{644, 710}";
},
{
name = Anchor18;
position = "{349, 710}";
},
{
name = Anchor19;
position = "{591, 0}";
},
{
name = Anchor20;
position = "{644, 710}";
},
{
name = Anchor21;
position = "{399, 0}";
}
);
background = {
paths = (
{
closed = 1;
nodes = (
"387 93 OFFCURVE",
"489 129 OFFCURVE",
"564 195 CURVE",
"499 311 LINE",
"439 250 OFFCURVE",
"361 218 OFFCURVE",
"274 218 CURVE SMOOTH",
"212 218 OFFCURVE",
"185 233 OFFCURVE",
"185 262 CURVE SMOOTH",
"185 297 OFFCURVE",
"223 325 OFFCURVE",
"357 336 CURVE",
"357 415 LINE",
"262 436 LINE",
"118 416 OFFCURVE",
"35 353 OFFCURVE",
"35 261 CURVE SMOOTH",
"35 159 OFFCURVE",
"130 93 OFFCURVE",
"276 93 CURVE SMOOTH"
);
},
{
closed = 1;
nodes = (
"158 598 LINE",
"-16 582 LINE",
"248 341 LINE",
"357 415 LINE"
);
},
{
closed = 1;
nodes = (
"590 597 LINE",
"445 597 LINE",
"445 0 LINE",
"590 0 LINE"
);
},
{
closed = 1;
nodes = (
"722 512 LINE",
"722 630 LINE",
"-44 630 LINE",
"-44 512 LINE"
);
}
);
};
layerId = "FA3D6E7D-1564-4EF0-9765-0D5E9243D6E7";
paths = (
{
closed = 1;
nodes = (
"441 119 OFFCURVE",
"502 150 OFFCURVE",
"561 194 CURVE",
"502 294 LINE",
"429 245 OFFCURVE",
"360 220 OFFCURVE",
"278 220 CURVE SMOOTH",
"228 220 OFFCURVE",
"205 235 OFFCURVE",
"205 254 CURVE SMOOTH",
"205 304 OFFCURVE",
"289 349 OFFCURVE",
"399 355 CURVE",
"399 388 LINE",
"273 444 LINE",
"152 420 OFFCURVE",
"69 360 OFFCURVE",
"69 293 CURVE SMOOTH",
"69 220 OFFCURVE",
"230 119 OFFCURVE",
"346 119 CURVE SMOOTH"
);
},
{
closed = 1;
nodes = (
"354 419 OFFCURVE",
"247 501 OFFCURVE",
"145 588 CURVE SMOOTH",
"113 615 OFFCURVE",
"50 606 OFFCURVE",
"56 563 CURVE",
"65 556 OFFCURVE",
"221 434 OFFCURVE",
"284 383 CURVE",
"374 370 OFFCURVE",
"402 365 OFFCURVE",
"398 388 CURVE"
);
},
{
closed = 1;
nodes = (
"591 591 LINE",
"464 591 LINE",
"464 34 LINE",
"591 -32 LINE"
);
},
{
closed = 1;
nodes = (
"744 533 LINE",
"688 625 LINE",
"-64 625 LINE",
"-8 533 LINE"
);
}
);
width = 680;
}
);
leftMetricsKey = Ga;
rightMetricsKey = Ga;
unicode = 111AA;
category = Letter;
},
{
color = 3;
glyphname = Ra;
lastChange = "2023-01-15 20:22:05 +0000";
layers = (
{
anchors = (
{
name = Anchor14;
position = "{247, 0}";
},
{
name = Anchor15;
position = "{338, 710}";
},
{
name = Anchor16;
position = "{281, 27}";
},
{
name = Anchor17;
position = "{383, 710}";
},
{
name = Anchor18;
position = "{203, 710}";
},
{
name = Anchor19;
position = "{281, 27}";
},
{
name = Anchor20;
position = "{383, 710}";
},
{
name = Anchor21;
position = "{247, 0}";
}
);
background = {
paths = (
{
closed = 1;
nodes = (
"281 590 LINE",
"196 590 LINE",
"196 242 LINE",
"64 242 LINE",
"64 213 LINE",
"254 27 LINE",
"281 27 LINE"
);
},
{
closed = 1;
nodes = (
"393 550 LINE",
"393 625 LINE",
"-6 625 LINE",
"-6 550 LINE"
);
}
);
};
layerId = UUID0;
paths = (
{
closed = 1;
nodes = (
"281 590 LINE",
"196 590 LINE",
"196 262 LINE",
"160 255 OFFCURVE",
"86 241 OFFCURVE",
"61 235 CURVE",
"58 226 OFFCURVE",
"54 217 OFFCURVE",
"52 210 CURVE",
"93 160 OFFCURVE",
"192 66 OFFCURVE",
"251 17 CURVE",
"259 15 OFFCURVE",
"273 12 OFFCURVE",
"281 12 CURVE"
);
},
{
closed = 1;
nodes = (
"411 550 LINE",
"371 625 LINE",
"-24 625 LINE",
"16 550 LINE"
);
}
);
width = 387;
},
{
anchors = (
{
name = Anchor14;
position = "{235, 0}";
},
{
name = Anchor15;
position = "{376, 710}";
},
{
name = Anchor16;
position = "{312, 21}";
},
{
name = Anchor17;
position = "{421, 710}";
},
{
name = Anchor18;
position = "{241, 710}";
},
{
name = Anchor19;
position = "{312, 21}";
},
{
name = Anchor20;
position = "{421, 710}";
},
{
name = Anchor21;
position = "{235, 0}";
}
);
background = {
paths = (
{
closed = 1;
nodes = (
"312 598 LINE",
"167 598 LINE",
"167 271 LINE",
"17 271 LINE",
"17 192 LINE",
"216 21 LINE",
"312 21 LINE"
);
},
{
closed = 1;
nodes = (
"440 512 LINE",
"440 630 LINE",
"-63 630 LINE",
"-63 512 LINE"
);
}
);
};
layerId = "FA3D6E7D-1564-4EF0-9765-0D5E9243D6E7";
paths = (
{
closed = 1;
nodes = (
"311 21 CURVE",
"311 592 LINE",
"185 592 LINE",
"185 271 LINE",
"126 261 OFFCURVE",
"63 250 OFFCURVE",
"49 247 CURVE",
"41 241 OFFCURVE",
"34 232 OFFCURVE",
"31 225 CURVE",
"52 197 OFFCURVE",
"200 57 OFFCURVE",
"258 13 CURVE",
"274 11 OFFCURVE",
"301 17 OFFCURVE"
);
},
{
closed = 1;
nodes = (
"461 533 LINE",
"405 625 LINE",
"-64 625 LINE",
"-8 533 LINE"
);
}
);
width = 397;
}
);
leftMetricsKey = Ga;
rightMetricsKey = Ga;
unicode = 111AB;
category = Letter;
},
{
color = 3;
glyphname = La;
lastChange = "2023-01-15 20:22:05 +0000";
layers = (
{
anchors = (
{
name = Anchor14;
position = "{341, 0}";
},
{
name = Anchor16;
position = "{625, 0}";
},
{
name = Anchor17;
position = "{651, 710}";
},
{
name = Anchor18;
position = "{336, 710}";
},
{
name = Anchor19;
position = "{625, 0}";
},
{
name = Anchor20;
position = "{651, 710}";
},
{
name = Anchor21;
position = "{341, 0}";
}
);
background = {
paths = (
{
closed = 1;
nodes = (
"245 -6 CURVE",
"295 60 LINE",
"161 154 OFFCURVE",
"128 207 OFFCURVE",
"128 266 CURVE SMOOTH",
"128 309 OFFCURVE",
"152 341 OFFCURVE",
"202 341 CURVE SMOOTH",
"253 341 OFFCURVE",
"309 308 OFFCURVE",
"342 199 CURVE",
"400 199 LINE",
"400 222 OFFCURVE",
"392 286 OFFCURVE",
"389 297 CURVE",
"357 365 OFFCURVE",
"288 424 OFFCURVE",
"201 424 CURVE SMOOTH",
"107 424 OFFCURVE",
"41 359 OFFCURVE",
"41 270 CURVE SMOOTH",
"41 180 OFFCURVE",
"98 97 OFFCURVE"
);
},
{
closed = 1;
nodes = (
"450 281 OFFCURVE",
"511 345 OFFCURVE",
"604 374 CURVE",
"556 442 LINE",
"471 412 OFFCURVE",
"399 350 OFFCURVE",
"354 269 CURVE",
"400 199 LINE"
);
},
{
closed = 1;
nodes = (
"626 590 LINE",
"541 590 LINE",
"541 0 LINE",
"626 0 LINE"
);
},
{
closed = 1;
nodes = (
"722 550 LINE",
"722 625 LINE",
"-5 625 LINE",
"-5 550 LINE"
);
}
);
};
layerId = UUID0;
paths = (
{
closed = 1;
nodes = (
"302 -9 LINE",
"324 27 LINE",
"166 136 OFFCURVE",
"139 184 OFFCURVE",
"139 248 CURVE SMOOTH",
"139 293 OFFCURVE",
"168 331 OFFCURVE",
"223 331 CURVE SMOOTH",
"269 331 OFFCURVE",
"316 300 OFFCURVE",
"379 199 CURVE",
"392 205 LINE",
"382 230 OFFCURVE",
"389 257 OFFCURVE",
"386 268 CURVE",
"325 368 OFFCURVE",
"245 423 OFFCURVE",
"171 423 CURVE SMOOTH",
"91 423 OFFCURVE",
"42 363 OFFCURVE",
"42 298 CURVE SMOOTH",
"42 210 OFFCURVE",
"114 118 OFFCURVE",
"300 -9 CURVE"
);
},
{
closed = 1;
nodes = (
"433 289 OFFCURVE",
"502 347 OFFCURVE",
"592 351 CURVE",
"545 428 LINE",
"465 426 OFFCURVE",
"382 373 OFFCURVE",
"344 292 CURVE",
"392 205 LINE"
);
},
{
closed = 1;
nodes = (
"625 590 LINE",
"540 590 LINE",
"540 30 LINE",
"625 -20 LINE"
);
},
{
closed = 1;
nodes = (
"756 550 LINE",
"716 625 LINE",
"-24 625 LINE",
"16 550 LINE"
);
}
);
width = 732;
},
{
anchors = (
{
name = Anchor14;
position = "{405, 0}";
},
{
name = Anchor16;
position = "{689, 0}";
},
{
name = Anchor17;
position = "{715, 710}";
},
{
name = Anchor18;
position = "{400, 710}";
},
{
name = Anchor19;
position = "{689, 0}";
},
{
name = Anchor20;
position = "{715, 710}";
},
{
name = Anchor21;
position = "{405, 0}";
}
);
background = {
paths = (
{
closed = 1;
nodes = (
"-26 169 OFFCURVE",
"48 79 OFFCURVE",
"230 -17 CURVE",
"309 87 LINE",
"154 171 OFFCURVE",
"124 216 OFFCURVE",
"124 257 CURVE SMOOTH",
"124 285 OFFCURVE",
"145 311 OFFCURVE",
"189 311 CURVE SMOOTH",
"247 311 OFFCURVE",
"297 270 OFFCURVE",
"324 182 CURVE",
"426 182 LINE",
"431 206 LINE",
"431 227 OFFCURVE",
"416 286 OFFCURVE",
"409 307 CURVE",
"363 385 OFFCURVE",
"274 437 OFFCURVE",
"177 437 CURVE SMOOTH",
"59 437 OFFCURVE",
"-26 371 OFFCURVE",
"-26 272 CURVE SMOOTH"
);
},
{
closed = 1;
nodes = (
"492 284 OFFCURVE",
"567 335 OFFCURVE",
"685 355 CURVE",
"593 461 LINE",
"479 432 OFFCURVE",
"382 352 OFFCURVE",
"327 259 CURVE",
"426 182 LINE"
);
},
{
closed = 1;
nodes = (
"689 597 LINE",
"544 597 LINE",
"544 0 LINE",
"689 0 LINE"
);
},
{
closed = 1;
nodes = (
"801 512 LINE",
"801 630 LINE",
"-78 630 LINE",
"-78 512 LINE"
);
}
);
};
layerId = "FA3D6E7D-1564-4EF0-9765-0D5E9243D6E7";
paths = (
{
closed = 1;
nodes = (
"322 -18 LINE",
"361 37 LINE",
"199 135 OFFCURVE",
"155 184 OFFCURVE",
"155 249 CURVE SMOOTH",
"155 291 OFFCURVE",
"185 320 OFFCURVE",
"231 320 CURVE SMOOTH",
"282 320 OFFCURVE",
"330 281 OFFCURVE",
"395 187 CURVE",
"424 194 LINE",
"424 214 OFFCURVE",
"426 226 OFFCURVE",
"427 252 CURVE SMOOTH",
"428 265 OFFCURVE",
"427 274 OFFCURVE",
"423 275 CURVE",
"356 371 OFFCURVE",
"259 429 OFFCURVE",
"167 429 CURVE SMOOTH",
"75 429 OFFCURVE",
"15 372 OFFCURVE",
"15 298 CURVE SMOOTH",
"15 206 OFFCURVE",
"105 113 OFFCURVE",
"309 -10 CURVE"
);
},
{
closed = 1;
nodes = (
"474 304 OFFCURVE",
"555 345 OFFCURVE",
"661 340 CURVE",
"596 434 LINE",
"493 436 OFFCURVE",
"389 376 OFFCURVE",
"347 292 CURVE",
"424 194 LINE"
);
},
{
closed = 1;
nodes = (
"689 591 LINE",
"563 591 LINE",
"563 34 LINE",
"689 -32 LINE"
);
},
{
closed = 1;
nodes = (
"840 533 LINE",
"784 625 LINE",
"-64 625 LINE",
"-8 533 LINE"
);
}
);
width = 776;
}
);
leftMetricsKey = Ga;
rightMetricsKey = Ga;
unicode = 111AC;
category = Letter;
},
{
color = 3;
glyphname = Lla;
lastChange = "2023-01-15 20:22:05 +0000";
layers = (
{
anchors = (
{
name = Anchor14;
position = "{455, 0}";
},
{
name = Anchor15;
position = "{450, 710}";
},
{
name = Anchor16;
position = "{301, 22}";
},
{
name = Anchor17;
position = "{770, 710}";
},
{
name = Anchor18;
position = "{405, 710}";
},
{
name = Anchor19;
position = "{301, 22}";
},
{
name = Anchor20;
position = "{770, 710}";
},
{
name = Anchor21;
position = "{455, 0}";
}
);
background = {
paths = (
{
closed = 1;
nodes = (
"454 81 OFFCURVE",
"480 146 OFFCURVE",
"480 212 CURVE SMOOTH",
"480 314 OFFCURVE",
"412 380 OFFCURVE",
"280 380 CURVE SMOOTH",
"252 380 OFFCURVE",
"203 380 OFFCURVE",
"199 380 CURVE",
"202 302 LINE",
"212 302 OFFCURVE",
"270 302 OFFCURVE",
"290 302 CURVE SMOOTH",
"367 302 OFFCURVE",
"398 270 OFFCURVE",
"398 210 CURVE SMOOTH",
"398 165 OFFCURVE",
"375 115 OFFCURVE",
"323 43 CURVE",
"393 -3 LINE"
);
},
{
closed = 1;
nodes = (
"782 550 LINE",
"782 625 LINE",
"-11 625 LINE",
"-11 550 LINE"
);
},
{
closed = 1;
nodes = (
"212 210 OFFCURVE",
"248 249 OFFCURVE",
"248 306 CURVE SMOOTH",
"248 441 LINE",
"163 442 LINE",
"163 381 LINE",
"102 378 OFFCURVE",
"66 341 OFFCURVE",
"66 295 CURVE SMOOTH",
"66 248 OFFCURVE",
"102 210 OFFCURVE",
"158 210 CURVE SMOOTH"
);
},
{
closed = 1;
nodes = (
"248 584 LINE",
"163 576 LINE",
"163 402 LINE",
"248 399 LINE"
);
},
{
closed = 1;
nodes = (
"669 345 OFFCURVE",
"703 385 OFFCURVE",
"703 459 CURVE SMOOTH",
"703 572 LINE",
"629 605 LINE",
"629 461 LINE SMOOTH",
"629 430 OFFCURVE",
"619 419 OFFCURVE",
"598 419 CURVE SMOOTH",
"577 419 OFFCURVE",
"556 434 OFFCURVE",
"524 477 CURVE SMOOTH",
"441 589 LINE",
"367 566 LINE",
"470 431 LINE SMOOTH",
"519 367 OFFCURVE",
"560 345 OFFCURVE",
"610 345 CURVE SMOOTH"
);
}
);
};
layerId = UUID0;
paths = (
{
closed = 1;
nodes = (
"457 42 OFFCURVE",
"482 110 OFFCURVE",
"482 167 CURVE SMOOTH",
"482 280 OFFCURVE",
"384 385 OFFCURVE",
"239 385 CURVE SMOOTH",
"213 385 OFFCURVE",
"193 383 OFFCURVE",
"170 380 CURVE",
"186 276 LINE",
"221 298 OFFCURVE",
"266 313 OFFCURVE",
"306 313 CURVE SMOOTH",
"368 313 OFFCURVE",
"404 276 OFFCURVE",
"404 214 CURVE SMOOTH",
"404 163 OFFCURVE",
"376 80 OFFCURVE",
"331 24 CURVE",
"331 20 LINE",
"424 -8 LINE"
);
},
{
closed = 1;
nodes = (
"219 186 OFFCURVE",
"249 226 OFFCURVE",
"249 282 CURVE",
"249 567 LINE",
"164 607 LINE",
"164 381 LINE",
"89 378 OFFCURVE",
"54 336 OFFCURVE",
"54 291 CURVE",
"66 241 OFFCURVE",
"120 197 OFFCURVE",
"163 186 CURVE"
);
},
{
closed = 1;
nodes = (
"622 550 LINE",
"582 625 LINE",
"-24 625 LINE",
"16 550 LINE"
);
},
{
closed = 1;
nodes = (
"680 311 OFFCURVE",
"714 351 OFFCURVE",
"714 422 CURVE SMOOTH",
"714 570 LINE",
"629 605 LINE",
"629 462 LINE SMOOTH",
"629 409 OFFCURVE",
"616 388 OFFCURVE",
"586 388 CURVE SMOOTH",
"551 388 OFFCURVE",
"503 423 OFFCURVE",
"392 588 CURVE",
"348 563 LINE",
"486 365 OFFCURVE",
"560 311 OFFCURVE",
"627 311 CURVE SMOOTH"
);
},
{
closed = 1;
nodes = (
"802 550 LINE",
"762 625 LINE",
"357 625 LINE",
"397 550 LINE"
);
}
);
width = 778;
},
{
anchors = (
{
name = Anchor14;
position = "{486, 0}";
},
{
name = Anchor15;
position = "{481, 710}";
},
{
name = Anchor16;
position = "{332, 22}";
},
{
name = Anchor17;
position = "{802, 710}";
},
{
name = Anchor18;
position = "{436, 710}";
},
{
name = Anchor19;
position = "{332, 22}";
},
{
name = Anchor20;
position = "{802, 710}";
},
{
name = Anchor21;
position = "{486, 0}";
}
);
background = {
paths = (
{
closed = 1;
nodes = (
"504 74 OFFCURVE",
"541 146 OFFCURVE",
"541 218 CURVE SMOOTH",
"541 333 OFFCURVE",
"447 400 OFFCURVE",
"289 400 CURVE SMOOTH",
"257 400 OFFCURVE",
"201 400 OFFCURVE",
"197 400 CURVE",
"173 375 LINE",
"176 302 LINE",
"200 279 LINE",
"213 279 OFFCURVE",
"277 279 OFFCURVE",
"301 279 CURVE SMOOTH",
"372 279 OFFCURVE",
"400 259 OFFCURVE",
"400 216 CURVE SMOOTH",
"400 177 OFFCURVE",
"376 140 OFFCURVE",
"305 62 CURVE",
"423 -14 LINE"
);
},
{
closed = 1;
nodes = (
"866 512 LINE",
"866 630 LINE",
"-67 630 LINE",
"-67 512 LINE"
);
},
{
closed = 1;
nodes = (
"224 192 OFFCURVE",
"277 239 OFFCURVE",
"277 306 CURVE SMOOTH",
"277 457 LINE",
"132 458 LINE",
"132 399 LINE",
"66 389 OFFCURVE",
"21 349 OFFCURVE",
"21 296 CURVE SMOOTH",
"21 236 OFFCURVE",
"76 192 OFFCURVE",
"150 192 CURVE SMOOTH"
);
},
{
closed = 1;
nodes = (
"277 594 LINE",
"132 582 LINE",
"132 374 LINE",
"277 369 LINE"
);
},
{
closed = 1;
nodes = (
"750 319 OFFCURVE",
"805 368 OFFCURVE",
"805 450 CURVE SMOOTH",
"805 573 LINE",
"683 621 LINE",
"683 461 LINE SMOOTH",
"683 444 OFFCURVE",
"674 431 OFFCURVE",
"656 431 CURVE SMOOTH",
"638 431 OFFCURVE",
"623 443 OFFCURVE",
"587 483 CURVE SMOOTH",
"483 599 LINE",
"362 565 LINE",
"507 408 LINE SMOOTH",
"565 346 OFFCURVE",
"619 319 OFFCURVE",
"675 319 CURVE SMOOTH"
);
}
);
};
layerId = "FA3D6E7D-1564-4EF0-9765-0D5E9243D6E7";
paths = (
{
closed = 1;
nodes = (
"505 45 OFFCURVE",
"532 113 OFFCURVE",
"532 171 CURVE SMOOTH",
"532 294 OFFCURVE",
"406 392 OFFCURVE",
"248 392 CURVE SMOOTH",
"212 392 OFFCURVE",
"185 389 OFFCURVE",
"154 386 CURVE",
"177 255 LINE",
"222 286 OFFCURVE",
"276 303 OFFCURVE",
"322 303 CURVE SMOOTH",
"380 303 OFFCURVE",
"413 272 OFFCURVE",
"413 217 CURVE SMOOTH",
"413 153 OFFCURVE",
"377 79 OFFCURVE",
"333 31 CURVE",
"333 22 LINE",
"460 -11 LINE"
);
},
{
closed = 1;
nodes = (
"164 180 CURVE",
"232 180 OFFCURVE",
"276 220 OFFCURVE",
"276 283 CURVE SMOOTH",
"276 564 LINE",
"149 617 LINE",
"149 387 LINE",
"76 380 OFFCURVE",
"28 343 OFFCURVE",
"28 291 CURVE",
"41 245 OFFCURVE",
"95 195 OFFCURVE"
);
},
{
closed = 1;
nodes = (
"692 533 LINE",
"637 625 LINE",
"-64 625 LINE",
"-9 533 LINE"
);
},
{
closed = 1;
nodes = (
"765 301 OFFCURVE",
"807 346 OFFCURVE",
"807 419 CURVE SMOOTH",
"807 567 LINE",
"680 613 LINE",
"680 457 LINE SMOOTH",
"680 411 OFFCURVE",
"670 395 OFFCURVE",
"650 395 CURVE SMOOTH",
"612 395 OFFCURVE",
"549 454 OFFCURVE",
"442 595 CURVE",
"368 558 LINE",
"513 374 OFFCURVE",
"603 301 OFFCURVE",
"695 301 CURVE SMOOTH"
);
},
{
closed = 1;
nodes = (
"910 533 LINE",
"855 625 LINE",
"375 625 LINE",
"430 533 LINE"
);
}
);
width = 846;
}
);
leftMetricsKey = Ga;
rightMetricsKey = Ga;
unicode = 111AD;
category = Letter;
},
{
color = 3;
glyphname = Va;
lastChange = "2023-01-15 20:22:05 +0000";
layers = (
{
anchors = (
{
name = Anchor14;
position = "{316, 0}";
},
{
name = Anchor16;
position = "{411, 0}";
},
{
name = Anchor17;
position = "{481, 710}";
},
{
name = Anchor18;
position = "{221, 710}";
},
{
name = Anchor19;
position = "{411, 0}";
},
{
name = Anchor20;
position = "{481, 710}";
},
{
name = Anchor21;
position = "{316, 0}";
}
);
background = {
paths = (
{
closed = 1;
nodes = (
"285 109 OFFCURVE",
"341 129 OFFCURVE",
"371 148 CURVE",
"371 230 LINE",
"318 199 OFFCURVE",
"281 188 OFFCURVE",
"230 188 CURVE SMOOTH",
"159 188 OFFCURVE",
"124 224 OFFCURVE",
"124 279 CURVE SMOOTH",
"124 334 OFFCURVE",
"159 373 OFFCURVE",
"232 373 CURVE SMOOTH",
"265 373 OFFCURVE",
"301 365 OFFCURVE",
"337 351 CURVE",
"337 429 LINE",
"304 442 OFFCURVE",
"261 451 OFFCURVE",
"224 451 CURVE SMOOTH",
"108 451 OFFCURVE",
"39 376 OFFCURVE",
"39 282 CURVE SMOOTH",
"39 189 OFFCURVE",
"107 109 OFFCURVE",
"235 109 CURVE SMOOTH"
);
},
{
closed = 1;
nodes = (
"411 590 LINE",
"326 590 LINE",
"326 0 LINE",
"411 0 LINE"
);
},
{
closed = 1;
nodes = (
"510 550 LINE",
"510 625 LINE",
"-13 625 LINE",
"-13 550 LINE"
);
}
);
};
layerId = UUID0;
paths = (
{
closed = 1;
nodes = (
"312 117 OFFCURVE",
"358 125 OFFCURVE",
"388 134 CURVE",
"380 227 LINE",
"341 210 OFFCURVE",
"296 198 OFFCURVE",
"223 198 CURVE SMOOTH",
"152 198 OFFCURVE",
"104 234 OFFCURVE",
"104 269 CURVE SMOOTH",
"104 306 OFFCURVE",
"168 363 OFFCURVE",
"337 389 CURVE",
"333 476 LINE",
"133 451 OFFCURVE",
"18 378 OFFCURVE",
"18 312 CURVE SMOOTH",
"18 239 OFFCURVE",
"153 117 OFFCURVE",
"277 117 CURVE SMOOTH"
);
},
{
closed = 1;
nodes = (
"411 590 LINE",
"326 590 LINE",
"326 30 LINE",
"411 -20 LINE"
);
},
{
closed = 1;
nodes = (
"524 550 LINE",
"484 625 LINE",
"-24 625 LINE",
"16 550 LINE"
);
}
);
width = 500;
},
{
anchors = (
{
name = Anchor14;
position = "{360, 0}";
},
{
name = Anchor16;
position = "{455, 0}";
},
{
name = Anchor17;
position = "{525, 710}";
},
{
name = Anchor18;
position = "{265, 710}";
},
{
name = Anchor19;
position = "{455, 0}";
},
{
name = Anchor20;
position = "{525, 710}";
},
{
name = Anchor21;
position = "{360, 0}";
}
);
background = {
paths = (
{
closed = 1;
nodes = (
"288 97 OFFCURVE",
"367 117 OFFCURVE",
"409 144 CURVE",
"409 274 LINE",
"330 232 OFFCURVE",
"288 219 OFFCURVE",
"224 219 CURVE SMOOTH",
"160 219 OFFCURVE",
"128 241 OFFCURVE",
"128 281 CURVE SMOOTH",
"128 322 OFFCURVE",
"161 345 OFFCURVE",
"227 345 CURVE SMOOTH",
"270 345 OFFCURVE",
"321 335 OFFCURVE",
"370 315 CURVE",
"370 439 LINE",
"325 456 OFFCURVE",
"265 467 OFFCURVE",
"218 467 CURVE SMOOTH",
"70 467 OFFCURVE",
"-17 392 OFFCURVE",
"-17 284 CURVE SMOOTH",
"-17 173 OFFCURVE",
"73 97 OFFCURVE",
"230 97 CURVE SMOOTH"
);
},
{
closed = 1;
nodes = (
"455 597 LINE",
"310 597 LINE",
"310 0 LINE",
"455 0 LINE"
);
},
{
closed = 1;
nodes = (
"568 512 LINE",
"568 630 LINE",
"-77 630 LINE",
"-77 512 LINE"
);
}
);
};
layerId = "FA3D6E7D-1564-4EF0-9765-0D5E9243D6E7";
paths = (
{
closed = 1;
nodes = (
"337 113 OFFCURVE",
"400 123 OFFCURVE",
"430 133 CURVE",
"419 247 LINE",
"368 225 OFFCURVE",
"321 211 OFFCURVE",
"231 211 CURVE SMOOTH",
"167 211 OFFCURVE",
"117 238 OFFCURVE",
"117 270 CURVE SMOOTH",
"117 314 OFFCURVE",
"222 360 OFFCURVE",
"374 378 CURVE",
"368 482 LINE",
"149 461 OFFCURVE",
"-11 389 OFFCURVE",
"-11 312 CURVE SMOOTH",
"-11 238 OFFCURVE",
"146 113 OFFCURVE",
"291 113 CURVE SMOOTH"
);
},
{
closed = 1;
nodes = (
"455 591 LINE",
"328 591 LINE",
"328 34 LINE",
"455 -32 LINE"
);
},
{
closed = 1;
nodes = (
"586 533 LINE",
"530 625 LINE",
"-64 625 LINE",
"-8 533 LINE"
);
}
);
width = 522;
}
);
leftMetricsKey = Ga;
rightMetricsKey = Ga;
unicode = 111AE;
category = Letter;
},
